<svg width="262" height="386" viewBox="0 0 262 386" fill="none" xmlns="http://www.w3.org/2000/svg">
<g filter="url(#filter0_d)">
<path d="M54.2136 169.601C56.7444 167.115 57.7872 164.772 56.803 160.529C53.3348 145.455 54.401 130.251 57.2013 115.151C58.2324 109.58 57.2013 103.931 57.8106 98.3334C57.9512 97.0057 57.4591 95.5348 56.6506 94.3763C52.0811 87.8417 50.2182 79.8363 47.1601 72.4947C44.2544 65.5306 42.0985 58.15 36.1699 53.3728C33.5805 51.29 31.1551 48.934 27.8393 48.3222C25.9998 47.9837 25.4608 46.2655 24.9219 44.6253C24.1368 42.2432 23.9845 39.6399 21.9927 37.7654C20.5281 36.3856 22.2153 35.3833 22.9535 34.3549C24.2189 32.5976 27.1715 32.3634 26.4099 28.7316C25.8826 26.2063 25.1562 23.9934 23.5862 22.132C21.8404 20.0623 22.0161 18.0707 23.7151 16.1442C25.2148 14.4259 26.4919 12.6166 27.4292 10.3907C28.2377 8.45116 29.6554 6.75895 31.905 6.71989C34.2015 6.68084 34.799 4.40285 35.9824 2.95797C39.099 -0.842992 40.5402 -1.0903 43.4811 2.85385C45.4963 5.56138 47.3945 6.98021 50.6868 6.04299C53.5106 5.24895 56.0648 7.27961 58.209 8.81561C61.6771 11.2888 64.9812 10.7291 68.2384 9.25818C71.8472 7.60503 74.4483 8.73751 76.7799 11.7444C78.5139 13.9834 80.4355 15.8578 82.9429 17.0554C84.6652 17.8755 85.5908 19.8671 86.5867 21.6113C86.9968 22.3403 87.3015 23.5639 88.0982 23.3946C91.9178 22.5616 95.8078 24.8265 99.5219 23.1733C102.182 21.9888 105.017 21.7935 107.735 20.9735C111.953 19.7108 114.25 23.5639 116.816 26.1282C118.023 27.3258 118.972 28.4843 120.647 28.6535C121.303 28.7186 122.123 28.9138 122.545 29.3955C126.658 34.0425 131.52 30.9835 135.984 30.8404C138.269 30.7623 139.406 31.1397 140.226 33.4307C141.257 36.2684 142.077 38.976 141.011 42.1C140.448 43.7532 141.104 45.0679 142.651 46.0832C146.353 48.5044 149.294 51.7196 150.021 56.7572C150.208 58.0328 151.052 58.8399 151.767 59.686C154.215 62.5888 155.446 66.2986 157.016 69.7481C158.082 72.1042 156.16 74.8768 153.372 75.5667C150.138 76.3607 146.81 76.6341 143.682 77.9749C141.573 78.873 140.765 79.9534 142.218 82.5829C144.444 86.5921 143.518 88.9221 139.745 90.6924C136.16 92.3846 132.411 91.877 128.767 91.5646C124.666 91.2131 120.577 91.4865 116.488 91.2001C114.297 91.0439 112.539 92.3586 110.782 93.4521C104.009 97.6565 96.6865 99.4529 89.0472 100.273C84.9815 100.703 80.9627 101.51 76.8502 101.705C74.0382 101.835 71.9643 103.801 70.8044 106.677C69.6444 109.554 67.8635 111.754 65.5084 113.433C63.7509 114.683 62.7902 116.531 62.4621 118.757C61.5599 124.836 60.2711 130.902 59.9547 137.033C59.5095 145.676 60.7983 154.228 62.8605 162.598C63.3291 164.499 64.3719 164.811 65.6608 163.562C68.0158 161.244 70.3943 160.646 72.9485 163.119C74.1319 164.264 74.9872 163.952 75.7722 162.52C77.6586 159.097 80.4941 157.639 84.0676 157.522C85.4971 157.47 87.0906 157.17 88.2857 156.389C92.2225 153.812 96.417 153.76 100.74 154.254C103.119 154.528 105.38 154.163 107.536 152.888C111.203 150.701 114.941 151.729 118.632 152.836C120.132 153.291 121.538 154.085 122.99 154.723C127.091 156.532 128.837 160.854 126.447 164.85C124.045 168.846 124.291 172.166 126.763 175.745C127.349 176.592 127.841 177.711 127.619 178.791C126.295 185.469 125.931 192.589 120.952 197.64C119.019 199.606 116.371 200.387 114.566 202.691C112.703 205.073 110.922 207.064 112.609 210.618C113.336 212.141 113.301 214.211 113.289 216.033C113.23 223.062 113.137 230.091 111.625 236.99C111.262 238.643 110.114 239.854 109.938 241.429C109.352 246.727 108.321 252.103 108.696 257.336C108.942 260.759 111.227 264.04 112.762 267.307C114.297 270.587 115.093 274.141 116.242 277.564C118.562 284.437 122.159 290.529 126.447 296.947C126.447 293.172 126.47 290.139 126.435 287.106C126.412 283.93 126.81 280.884 127.736 277.851C128.837 274.219 128.134 270.34 128.732 266.578C129.763 260.004 131.239 253.743 134.766 248.172C136.547 245.373 138.878 243.655 141.491 242.145C143.377 241.039 145.276 239.919 147.068 238.643C147.935 238.019 148.99 237.199 149.072 235.962C149.271 232.812 151.216 230.703 152.54 228.217C153.149 227.058 153.876 225.835 155.2 226.03C156.723 226.264 157.133 227.957 157.18 229.258C157.309 232.825 157.414 236.444 157.039 239.971C155.528 254.446 151.017 267.762 143.284 279.504C139.406 285.4 136.968 291.844 134.859 298.613C134.051 301.216 134.965 303.52 135.188 305.954C135.246 306.644 135.773 307.074 136.383 307.217C143.624 308.948 149.564 314.298 156.594 316.433C163.003 318.386 168.768 322.421 175.575 323.111C178.902 323.449 181.468 326.352 184.444 327.953C185.206 328.357 185.276 329.346 185.323 330.439C182.992 331.572 180.508 331.181 178.258 330.556C170.9 328.487 163.413 326.716 156.617 322.837C153.196 320.885 149.704 319.505 146.084 318.412C145.545 319.609 146.225 320.052 146.74 320.481C156.453 328.552 166.248 336.57 177.239 342.35C186.389 347.153 195.763 351.462 205.218 355.458C211.416 358.074 217.286 361.433 223.332 364.375C224.902 365.129 226.73 365.234 228.441 365.637C232.272 366.535 235.881 368.241 239.513 369.764C242.583 371.052 245.734 371.547 248.921 371.716C251.628 371.859 253.995 373.174 256.537 373.864C257.556 374.137 258.177 375.048 257.955 376.337C257.814 377.183 257.275 377.652 256.549 377.769C255.365 377.964 255.295 377.183 255.049 376.077C254.662 374.385 252.835 374.346 251.686 374.072C248.371 373.291 244.961 372.992 241.587 372.549C241.188 372.497 240.602 372.341 240.31 373.291C244.692 373.89 248.757 375.608 253.667 377.092C251.077 377.99 249.566 376.793 247.961 376.571C239.876 375.465 232.202 372.679 224.691 369.464C210.866 363.528 196.489 359.246 183.179 351.67C178.106 348.78 173.278 345.201 167.83 343.118C167.045 342.818 166.471 342.194 166.752 341.517C167.83 338.874 166.014 338.158 164.596 337.117C162.312 335.451 160.027 333.772 157.566 332.366C158.773 335.099 161.257 336.18 163.413 338.002C162.194 339.408 161.187 338.523 160.203 338.067C157.637 336.857 156.031 334.175 153.758 332.652C145.979 327.458 139.769 320.273 133.207 313.517C132.633 312.931 132.118 312.202 131.274 312.163C127.49 311.968 125.006 309 122.17 306.826C119.183 304.548 116.277 302.127 113.582 299.316C119.206 301.177 123.424 305.993 128.919 308.857C127.747 304.548 116.347 295.84 111.824 295.437C111.028 296.868 113.336 297.129 112.621 298.717C110.723 299.107 109.657 297.324 108.497 296.126C107.337 294.916 106.189 294.421 104.595 294.434C95.9366 294.499 87.278 294.59 78.7248 292.495C74.0968 291.362 71.0856 287.874 68.3439 284.086C65.9771 280.818 63.9618 277.239 61.8997 273.724C60.3179 271.017 58.3495 268.947 55.6547 267.619C53.3348 266.474 51.2727 264.795 49.5152 262.725C48.777 261.853 47.7811 260.955 48.531 259.666C49.2105 258.507 50.4877 258.052 51.6593 258.403C54.0027 259.106 56.3343 259.952 58.5956 260.942C68.8243 265.419 78.9358 270.197 88.9301 275.299C89.7151 275.703 90.5001 276.289 91.3671 275.338C91.6015 273.568 90.2423 272.618 89.4573 271.55C84.841 265.263 82.1227 257.791 78.7483 250.749C77.3774 247.899 76.3112 244.866 75.081 241.937C74.4951 240.531 73.4523 240.062 72.0932 239.737C61.1615 237.212 50.6283 239.659 40.1067 242.627C37.8454 243.264 35.4434 243.369 33.2407 244.176C30.8739 245.035 29.6671 243.98 29.0579 241.729C28.4955 239.633 27.1363 237.967 26.4567 236.144C25.4374 233.45 24.957 230.69 23.0003 228.36C22.0161 227.189 23.5393 225.366 24.6641 224.299C26.0701 222.958 27.5933 221.799 29.011 220.459C30.5342 219.027 31.0497 217.374 29.011 216.02C26.5036 214.354 24.9102 211.581 22.5434 209.707C20.8445 208.366 21.8638 206.622 23.4573 206.088C26.5505 205.047 26.8083 203.237 25.6014 200.191C24.008 196.156 25.4608 192.433 27.7573 189.361C29.5734 186.927 32.1862 187.031 34.7404 188.255C36.0527 188.893 37.2009 188.346 36.6854 186.797C35.1857 182.293 38.5484 180.822 40.6456 178.804C41.8759 177.62 43.3053 176.774 44.2192 175.147C45.3206 173.194 47.1015 172.283 49.0699 171.801C50.9095 171.359 50.968 170.33 50.019 168.781C48.3201 165.996 45.6955 165.163 42.9773 164.707C37.9157 163.861 34.3421 160.685 31.4246 156.259C30.5576 154.944 30.3115 153.682 31.1903 152.419C32.1511 151.039 33.3462 151.768 34.3538 152.419C38.1851 154.944 42.3563 156.48 46.5977 158.238C47.8514 154.905 46.2931 152.276 45.7658 149.503C45.1097 145.976 43.6803 143.554 40.1184 142.773C33.475 141.302 29.5148 135.913 26.2224 129.874C24.8164 127.296 23.1058 125.253 20.7156 123.795C18.6535 122.532 17.06 120.566 15.4899 118.627C14.6346 117.573 13.6856 116.271 14.6229 114.891C15.5837 113.485 17.0717 113.733 18.3605 114.461C22.9535 117.091 27.3941 120.007 31.2489 123.899C34.1312 126.815 36.9432 129.822 39.7786 132.776C40.3293 133.349 40.7511 134.169 42.0751 133.922C42.3094 131.058 41.2783 128.351 40.7394 125.669C39.3685 118.822 35.6778 113.446 31.4363 108.33C27.4292 103.501 23.0589 98.9582 20.2 93.0485C19.0167 90.6144 18.1965 88.05 17.8684 85.4206C16.8842 77.5583 14.7049 70.1126 12.467 62.6018C10.6744 56.601 7.6632 51.3291 5.47219 45.5886C4.61687 43.3627 2.8828 40.2516 5.03867 38.8328C7.20625 37.4139 8.48337 40.7723 9.58474 42.6468C16.5327 54.3621 23.6213 65.9602 28.8235 78.86C33.0767 89.4038 36.8377 100.143 40.2238 111.051C43.6568 122.102 46.34 133.336 48.0975 144.895C49.2808 152.653 50.5228 160.476 52.995 167.922C53.2059 168.469 53.2645 169.159 54.2136 169.601ZM143.26 320.286C143.647 321.718 144.409 322.707 146.693 323.124C145.1 321.848 144.631 320.507 143.213 320.338C143.26 319.167 142.815 318.203 141.983 317.565C139.488 315.665 137.461 313.244 135.574 310.653C135.141 310.055 134.59 309.235 133.196 310.042C136.347 313.869 139.558 317.357 143.26 320.286ZM93.7691 51.8758C95.9952 41.7356 102.287 34.0555 106.154 25.0087C104.103 23.694 102.685 24.8265 101.256 25.2951C98.1159 26.3365 95.1751 27.8465 91.6366 26.4146C89.3753 25.4904 87.5709 27.0134 86.2001 29.4866C84.1497 33.1964 83.5404 37.7393 80.9393 40.9936C78.5257 44.0266 78.3382 47.3589 78.6428 51.0167C78.7952 52.8781 79.0998 54.7916 78.2327 56.7181C75.5613 53.2947 75.5848 44.5212 78.4905 40.512C81.0916 36.8933 82.2281 32.7148 83.224 28.4062C83.6927 26.4016 83.1069 25.1129 81.1854 24.5011C77.7172 23.4077 74.2842 22.158 70.8395 20.9735C67.9924 19.9972 66.891 20.9865 66.973 24.423C66.9965 25.5685 67.6995 27.1956 66.6801 27.7814C64.8289 28.8357 65.4499 30.4759 65.3444 31.9859C65.2624 33.2745 65.7076 34.6283 64.9226 35.8779C64.946 32.8059 64.1845 29.9292 63.54 27.0264C62.9073 24.1627 62.5675 21.2469 59.0408 20.8043C56.5569 20.5049 54.6354 16.5477 51.7296 19.6067C50.8157 18.3571 49.9721 17.4849 48.6716 16.9643C46.0705 15.9359 44.3013 13.736 43.6568 10.7031C43.2702 8.88071 42.5906 7.22756 41.8525 5.58742C41.208 4.15556 40.3059 2.80178 38.7241 3.75202C37.3298 4.59813 37.7633 6.09509 38.2906 7.50092C38.771 8.77659 40.0481 9.83095 39.3685 11.6403C37.7165 10.8463 37.9039 7.55295 35.4434 8.36001C33.768 8.90672 31.987 9.33629 30.5342 10.3256C28.6946 11.5752 28.308 14.9597 29.4328 16.8992C28.8235 17.3678 27.8276 16.4436 27.3355 17.7713C29.0579 20.4919 32.3502 22.0669 32.9126 25.8548C30.0538 24.5271 28.6009 21.364 25.6717 19.9972C28.4369 23.7982 27.8393 29.018 30.0421 32.7278C32.7603 37.2707 37.1189 40.2516 41.0323 43.9354C41.2198 43.2195 41.4541 42.816 41.3604 42.6337C40.4113 40.8895 39.4037 39.1712 38.4078 37.453C38.0211 36.7761 38.9116 31.1267 39.474 30.7623C40.095 30.3587 40.6574 30.6711 41.044 31.1658C41.6064 31.8947 42.1337 32.6888 42.5437 33.5349C46.047 40.8765 46.3634 49.1292 47.8397 57.0436C48.8942 62.6539 49.7261 68.3162 50.5462 73.9786C51.3664 79.641 55.1978 83.3769 57.5528 88.037C59.8024 92.4888 62.6144 94.4804 67.1956 93.5692C68.5431 93.3089 69.1875 92.8663 69.6561 91.4084C70.3357 89.2996 71.3668 87.321 72.2455 85.2904C72.5267 85.3815 72.8079 85.4596 73.0891 85.5507C72.1635 89.0002 70.3943 92.5018 73.1126 95.704C75.7723 95.9122 77.2368 92.2935 80.0371 92.7882C80.4003 93.9857 78.4671 93.6733 79.4044 95.2614C84.4777 94.0508 89.4105 90.8747 95.632 91.6557C91.4609 95.1052 86.411 94.1419 82.2984 97.8648C97.7176 98.802 110.137 92.8923 121.573 82.2444C115.187 80.1617 109.715 82.8432 103.857 85.5377C104.466 82.8172 105.685 82.3095 106.786 81.6456C112.258 78.2873 118.374 78.6387 124.209 78.6127C132.914 78.5736 141.186 76.4128 149.505 74.213C150.22 74.0177 150.829 73.6532 150.911 72.7941C151.005 71.9089 150.396 71.4273 149.81 71.0368C147.994 69.8002 146.096 69.8783 144.186 70.6984C142.698 71.3362 141.21 72 139.007 72.9633C143.963 67.9127 143.963 67.9127 139.698 61.9509C140.284 60.0505 142.569 58.2151 141.034 56.0022C139.406 53.6591 137.062 54.7265 134.59 56.0022C135.551 53.5029 137.414 52.9302 138.562 51.5634C139.101 50.9125 139.745 50.2747 139.206 49.3245C138.691 48.4133 137.894 48.5434 137.121 48.9209C131.801 51.5243 126.681 54.4792 122.088 58.5535C119.3 61.0268 116.136 62.9923 112.516 65.6347C113.254 63.1615 114.297 62.0811 115.328 61.222C121.268 56.2365 127.279 51.3551 134.262 48.231C138.831 46.1744 140.507 41.6444 138.187 37.6222C136.324 39.1842 135.937 39.3274 135.469 38.7807C134.895 37.7654 136.711 37.1406 135.586 36.1122C132.528 37.6352 131.321 41.5664 128.04 43.571C128.146 39.4055 131.755 37.9736 132.422 34.6413C130.126 33.7952 128.04 33.2485 126.037 35.2011C123.623 37.5441 121.174 39.8481 118.655 42.061C117.683 42.9201 116.757 44.1307 115.175 43.9354C115.304 41.7356 116.781 40.8244 117.917 39.757C119.265 38.4813 120.6 37.2187 121.502 35.5265C122.674 33.3396 122.018 31.5172 119.757 31.361C117.601 31.2178 116.464 29.8511 115.257 28.263C113.348 25.7507 112.481 25.7898 110.805 28.4452C109.809 30.0073 108.954 31.6865 107.079 32.845C107.384 29.3564 110.489 27.6903 110.172 24.3839C109.657 24.436 109.352 24.3709 109.294 24.475C104.127 33.5869 98.9478 42.7249 93.7691 51.8758ZM80.6698 182.683C81.9587 180.041 83.7044 177.919 84.1262 174.834C84.4309 172.634 86.036 171.085 87.9693 169.901C92.199 167.336 96.9677 166.308 101.209 163.9C107.22 160.49 112.961 160.659 118.597 164.707C119.804 165.566 120.928 166.581 122.194 167.61C124.35 165.761 124.935 163.327 124.643 160.463C124.385 157.86 122.604 157.3 120.776 156.728C119.839 156.428 118.936 156.025 118.034 155.621C114.39 153.981 110.793 153.994 107.325 156.116C105.333 157.339 103.271 157.678 101.104 157.066C98.2683 156.259 95.5266 156.454 92.7497 157.365C91.414 157.808 90.2423 158.472 90.3361 160.138C90.4767 162.676 88.9887 163.366 87.4655 164.134C86.493 163.249 86.247 162.234 86.1298 161.127C86.0361 160.294 85.5908 159.787 84.8292 159.591C81.9118 158.823 77.4243 162.767 77.5649 166.152C77.6586 168.443 77.9984 170.721 78.2445 173.129C76.6627 173.051 76.569 171.814 76.1589 170.903C75.2801 168.951 74.2256 167.154 72.7259 165.709C71.4605 164.486 70.0662 163.835 68.4376 164.733C66.8324 165.618 67.8752 167.219 67.758 168.508C66.9262 168.742 66.2934 167.193 65.3913 168.274C65.0632 170.07 66.9027 171.346 66.5747 173.546C64.2665 171.528 63.6338 168.313 61.1381 166.842C59.2635 168.065 57.3888 169.25 56.0648 171.411C55.0572 173.051 53.5809 173.923 51.6007 173.897C49.8667 173.871 47.8045 174.079 46.75 175.68C44.6293 178.896 41.3604 180.497 38.8999 183.191C38.0563 184.115 37.1072 184.987 37.9039 186.51C39.3451 189.244 38.0563 192.42 39.638 195.297C36.4511 195.622 35.4434 193.201 33.9671 191.639C31.8347 189.387 30.5576 189.374 28.5892 191.795C26.281 194.633 26.7262 197.861 27.8042 200.959C28.7181 203.602 28.4837 205.593 26.2341 207.077C24.6407 208.132 24.9219 209.264 26.0935 210.423C26.9606 211.282 28.0268 211.946 28.7649 212.922C30.4053 215.07 31.6121 214.341 32.9829 212.57C34.9162 210.071 37.3884 208.717 40.4113 208.743C41.5244 208.756 42.5789 208.613 43.3405 207.598C44.6645 205.854 46.4103 205.463 48.3435 205.502C49.2574 205.515 50.4408 205.997 50.886 204.617C51.2375 203.537 50.3588 202.873 49.8432 202.105C48.4841 200.087 46.8438 198.213 46.5626 195.479C48.2849 194.945 48.5075 196.494 49.0699 197.328C51.343 200.712 53.4168 204.305 56.4397 206.934C60.4117 210.397 63.4463 214.731 66.2114 219.352C66.8441 220.42 67.5471 221.487 66.7153 222.841C65.2038 221.982 65.2038 221.982 64.7586 221.123C62.2512 216.293 59.3455 211.972 54.7994 209.134C50.9329 206.726 47.8865 206.739 44.4301 209.902C43.3639 210.878 42.2274 211.815 40.7745 211.672C39.5911 211.555 38.0328 210.397 37.5759 212.401C37.1658 214.224 38.9819 214.38 40.0364 215.031C40.2356 215.161 40.3527 215.46 40.5753 215.773C39.1811 216.45 37.9625 216.111 36.8377 215.525C34.8342 214.484 33.4399 215.525 32.8423 217.387C31.7761 220.667 29.9835 223.114 26.7614 224.989C29.4094 227.8 32.9829 226.564 35.502 228.581C34.6584 230.43 33.1587 229.857 31.905 230.052C30.8505 230.221 29.3156 229.349 28.9758 231.224C28.6712 232.903 27.7222 234.751 29.5734 236.261C30.2295 236.795 30.8622 237.784 30.9677 238.656C31.3075 241.416 32.8423 241.689 34.7756 241.208C39.0522 240.14 43.2936 238.917 47.5819 237.875C54.6354 236.17 61.7122 234.634 68.918 236.938C69.621 237.16 70.488 237.485 70.8278 236.196C64.3133 230.495 57.6465 225.171 48.4255 225.34C49.937 222.138 52.1866 222.047 53.7683 222.776C57.1544 224.312 60.8803 224.689 64.0907 226.837C69.6093 230.547 74.8232 234.699 79.6505 239.451C82.2867 242.041 85.2862 243.863 89.1058 244.384C89.844 238.175 83.0717 238.409 82.3101 233.45C86.0712 234.986 88.3208 239.138 92.574 239.841C92.035 238.058 91.6249 236.665 91.1914 235.246C92.7614 235.402 93.3121 237.862 94.9407 237.368C95.9601 236.6 94.5306 235.246 95.7726 234.738C97.7527 235.233 97.8347 237.941 99.5571 239.008C100.623 237.147 99.4048 235.038 100.459 233.02C102.404 234.803 101.408 237.719 103.096 239.841C104.607 235.129 103.869 230.482 105.052 226.186C105.896 231.458 107.782 236.561 105.486 242.679C108.345 241.182 108.755 239.268 109.399 237.472C111.098 232.682 110.594 227.644 110.911 222.698C111.157 218.936 111.766 215.226 110.758 211.425C108.403 202.495 108.11 193.292 108.227 184.063C108.263 181.434 108.919 179.117 111.59 177.945C112.211 180.471 110.032 182.098 110.653 183.92C111.988 187.89 111.543 192.043 112.059 196.078C112.317 198.096 113.383 198.772 115.187 198.343C120.014 197.184 125.416 186.979 123.881 181.798C123.764 181.395 123.658 180.939 123.424 180.614C121.725 178.167 120.12 175.615 117.905 173.806C116.792 174.418 117.53 176.136 116.253 176.435C114.695 175.667 114.836 174.418 115.328 172.934C116.148 170.474 115.234 169.081 112.938 169.081C111.016 169.081 109.481 168.313 108.321 166.738C106.716 164.577 104.759 164.577 102.767 165.592C99.0533 167.506 95.2571 169.159 91.4257 170.76C88.602 171.944 85.6494 173.233 85.9423 177.659C85.9775 178.232 85.5908 178.935 85.2393 179.416C82.7788 182.749 82.5328 186.445 83.5873 190.429C83.7982 191.236 83.9622 192.147 82.9897 192.837C81.7946 192.316 81.3142 191.21 81.2674 189.83C81.1385 186.484 79.0529 184.896 76.651 183.764C74.5771 182.775 73.2297 184.141 73.5578 186.641C73.6984 187.734 74.7295 188.762 73.7101 189.986C72.0229 189.999 71.1793 188.893 70.5701 187.252C69.5273 184.454 64.4539 182.436 62.1692 183.985C60.8686 184.87 59.2049 186.185 60.0953 188.112C62.427 193.149 62.6964 198.994 65.3796 203.888C66.0474 205.099 67.1253 206.387 66.4692 208.223C64.1376 203.823 61.4427 199.475 60.1773 194.672C58.1855 187.07 53.1473 191.236 49.4097 190.363C48.1795 190.077 46.8672 189.7 46.0587 191.353C46.0002 191.483 45.7658 191.522 45.6135 191.6C45.3675 188.606 46.1525 187.122 48.8825 186.107C50.5111 185.495 51.9757 184.714 53.0067 183.204C54.1081 181.603 55.6196 181.134 57.2833 180.77C65.1452 179.039 72.8314 179.898 80.6698 182.683ZM155.493 229.896C152.774 230.677 152.083 232.89 151.685 234.869C150.946 238.539 148.826 240.544 146.131 242.327C143.635 243.98 140.776 244.879 138.597 247.209C135.094 250.945 133.219 255.5 131.942 260.642C130.196 267.684 130.63 275.026 129.118 282.107C128.404 285.466 128.638 289.149 129.505 292.625C131.18 288.512 131.157 283.93 132.879 279.92C136.535 271.446 140.237 263.011 143.834 254.524C144.233 253.574 144.643 252.936 145.498 253.327C146.541 253.795 146.131 254.863 145.721 255.526C143.014 259.835 142.311 265.185 139.757 269.546C135.867 276.184 133.559 283.461 132.387 291.219C132.141 292.846 131.508 294.447 132.083 296.166C133.688 296.048 133.758 294.76 134.11 293.666C134.941 291.063 135.328 288.29 136.781 285.908C142.44 276.64 148.252 267.554 151.509 256.685C154.098 248.055 155.422 239.359 155.493 229.896ZM84.7472 246.102C84.1614 247.469 84.6066 248.107 84.8995 248.771C88.6606 257.505 93.4761 265.471 98.9244 273.021C102.568 278.085 106.611 282.68 110.793 287.145C111.59 288.004 112.563 288.941 114.273 287.796C112.762 283.162 110.5 278.788 109.106 274.037C107.759 269.455 105.732 265.133 103.998 260.694C104.326 260.538 104.654 260.369 104.982 260.213C106.212 262.178 107.478 264.131 108.274 266.409C111.039 274.245 113.711 282.133 117.413 289.501C119.124 292.898 121.151 295.983 124.326 298.3C124.584 296.973 124.068 296.556 123.775 296.022C121.292 291.544 117.917 287.6 116.324 282.589C114.086 275.534 111.075 268.895 108.181 262.191C106.669 258.677 105.333 255.214 106.364 251.049C106.763 249.435 107.583 247.586 106.775 245.582C105.322 245.139 103.834 244.761 102.228 245.373C101.174 247.378 101.877 250.346 99.5219 251.504C99.8383 254.29 103.002 254.745 103.248 257.765C99.932 256.672 98.0222 254.121 96.4522 251.465C93.4644 246.428 88.4731 248.263 84.7472 246.102ZM111.883 292.482C93.2652 279.009 72.8548 269.884 52.2334 261.228C52.5029 263.311 54.0612 263.532 55.1509 264.131C59.6501 266.578 63.3174 269.897 65.5436 275C67.0433 278.436 69.2929 281.313 71.4254 284.255C73.8156 287.561 77.0376 289.917 80.5526 290.868C86.7156 292.521 93.1129 292.013 99.4282 291.922C99.9555 291.909 100.647 292.078 100.905 290.946C92.4451 285.986 82.7554 283.656 74.8466 277.369C75.0341 276.874 75.2216 276.38 75.409 275.872C87.2663 282.263 99.3345 288.043 111.883 292.482ZM9.08092 46.669C8.62397 48.7778 9.66676 50.3268 10.5338 51.7326C14.8221 58.7357 17.1068 66.8583 18.2434 74.7987C19.9189 86.5661 23.3284 96.7193 31.6355 104.543C31.8699 103.918 31.7644 103.371 31.4715 102.733C28.9758 97.2139 26.4919 91.6817 24.0783 86.1105C23.3635 84.4703 22.4145 82.7391 23.7971 79.8883C28.4134 88.2583 29.8663 97.7476 35.6309 104.569C29.3039 83.8585 20.5633 64.5023 9.08092 46.669ZM83.2123 22.0409C82.8843 20.2445 82.1344 19.2292 81.1619 18.9168C78.4319 18.0316 76.815 15.7016 75.081 13.5538C73.2414 11.2758 71.0504 10.9114 68.7188 12.0569C64.1962 14.2698 60.0953 13.8272 56.1585 10.4558C54.1901 8.76356 51.8351 7.90444 49.2808 8.46417C48.0974 8.72451 46.4571 8.56831 46.1408 10.2605C45.7893 12.1219 47.2304 13.0852 48.4138 14.0354C49.1871 14.6602 50.0893 14.6212 50.9446 14.491C54.7057 13.9053 58.0566 14.9076 61.0795 17.4719C62.7433 18.8907 64.5594 19.2552 66.5278 18.1488C69.5155 16.4696 72.3158 17.1074 75.1395 18.9038C77.518 20.4268 79.9785 21.9628 83.2123 22.0409ZM45.6604 61.9119C45.8713 60.2848 45.9182 59.1132 45.5784 57.8245C42.8132 47.476 33.9671 42.7249 28.5072 34.8626C27.7339 33.7431 26.5505 34.2768 25.5897 34.9798C24.9336 35.4614 23.926 36.3205 24.5587 36.9323C26.3513 38.6375 25.8944 41.1108 26.6559 43.1284C27.3824 45.0419 28.1674 46.2394 30.0772 46.9814C34.4475 48.6866 38.1734 51.5894 41.0557 55.7288C42.4383 57.7334 43.9497 59.6469 45.6604 61.9119ZM60.9155 105.675C61.349 106.417 61.2553 107.51 60.9272 109.007C59.9547 113.381 58.5019 117.703 57.9629 122.102C56.8967 130.772 56.5686 139.558 56.7678 148.319C56.8732 152.94 57.834 157.522 59.6852 162.312C60.2359 160.88 60.2125 160.021 60.0016 159.188C58.5136 153.434 58.9471 147.42 58.0098 141.563C56.7092 133.427 59.6384 125.578 60.6929 117.599C61.0678 114.774 62.6144 112.405 64.864 110.882C67.9104 108.812 69.3749 105.701 70.0662 102.017C65.8951 99.0103 62.8605 99.9996 60.9155 105.675ZM119.581 89.7162C123.588 89.3126 127.607 89.6251 131.626 89.7552C133.957 89.8333 136.324 90.0416 138.55 89.0653C139.687 88.5707 141.515 87.9198 140.812 86.3578C139.933 84.4052 140.355 80.8907 137.074 81.0469C130.981 81.3333 125.568 83.7935 120.6 87.5944C120.085 87.9979 119.429 88.4014 119.581 89.7162ZM101.279 281.092C101.631 279.738 100.869 279.191 100.319 278.449C92.9255 268.361 86.1181 257.87 81.5134 245.803C80.8339 244.019 79.8028 242.483 78.139 241.663C77.6703 242.288 77.6235 242.822 77.8812 243.33C82.193 251.778 85.1221 261.046 90.4181 268.921C92.574 272.123 95.011 275.078 96.9443 278.475C97.823 280.037 99.3696 281.131 101.279 281.092ZM18.6652 117.377C19.005 119.095 19.497 119.616 20.0829 120.033C24.2657 123.105 27.6167 126.945 30.0538 131.943C31.0145 133.909 32.5494 136.083 35.3497 136.773C34.0492 134.26 31.8347 133.076 31.2489 129.769C36.0879 133.089 38.7124 138.322 43.3756 140.691C36.3105 131.709 28.9407 123.157 18.6652 117.377ZM178.856 346.502C188.159 353.089 211.908 363.476 215.06 362.266C202.394 357.645 191.123 350.681 178.856 346.502ZM146.178 53.1124C145.943 55.3643 144.83 56.6921 143.952 58.2151C142.604 60.5712 144.479 65.1531 146.928 65.2573C148.931 65.3354 150.138 66.3116 151.333 67.8216C152.118 68.8109 153.067 70.2037 154.438 68.134C151.696 63.2526 148.533 58.6056 146.178 53.1124ZM156.442 319.258C160.085 323.241 175.387 328.669 179.523 327.276C171.205 325.18 164.303 320.637 156.442 319.258ZM138.738 310.966C140.554 315.118 151.427 319.791 155.856 318.268C149.552 316.941 144.889 312.385 138.738 310.966ZM33.6625 155.504C37.3767 161.192 43.1999 163.653 45.801 160.633C42.0751 158.797 38.4195 156.975 34.7287 155.192C34.5295 155.087 34.2015 155.335 33.6625 155.504ZM108.895 163.692C110.079 165.397 110.77 166.959 112.469 166.79C116.312 166.412 118.187 169.12 120.026 172.192C120.788 173.454 121.057 175.537 123.072 175.55C122.815 169.927 114.847 163.549 108.895 163.692ZM50.9915 188.489C53.2528 188.255 55.3384 187.318 57.5059 186.81C58.3847 186.602 59.4861 185.404 58.7128 184.024C57.998 182.762 56.7209 183.152 55.8422 183.764C54.0612 185 52.7841 186.953 50.9915 188.489ZM227.468 367.564C230.303 370.284 235.951 372.328 237.955 371.586C234.709 369.256 230.924 368.943 227.468 367.564ZM156.582 331.533C156.289 330.882 155.914 330.765 155.539 330.895C155.2 331.012 155.188 331.376 155.446 331.611C155.762 331.884 156.137 331.975 156.582 331.533Z" fill="#5C5A58"/>
<path d="M44.6879 216.762C44.3598 216.996 44.1724 217.256 43.9849 217.256C43.774 217.243 43.5748 216.996 43.3756 216.853C43.5514 216.684 43.7037 216.384 43.8912 216.358C44.0903 216.319 44.3129 216.554 44.6879 216.762Z" fill="#6F6C6A"/>
<path d="M35.4903 228.555C35.4903 228.555 35.0451 229.545 34.4241 229.727C33.8031 229.909 32.3268 230 31.8933 230.026C31.4598 230.039 29.3625 229.441 29.011 230.977C28.6595 232.513 28.4603 233.645 28.4603 233.645C28.4603 233.645 28.144 235.064 29.5617 236.235C30.9677 237.407 31.0028 238.943 31.0028 238.943C31.0028 238.943 31.202 241.299 33.147 241.351C35.0919 241.403 41.1495 239.49 41.1495 239.49L46.2579 238.162L53.2411 236.574C53.2411 236.574 58.6308 235.65 60.9507 235.728C63.2706 235.806 65.7428 236.001 67.676 236.535C69.621 237.081 70.242 237.641 70.8044 236.144C70.8044 236.144 63.3291 229.597 61.6185 229.089C59.9196 228.581 58.0683 225.379 48.4021 225.275C48.4021 225.275 49.562 222.242 52.1514 222.346C52.1514 222.346 52.9599 222.177 54.3307 222.958C54.3307 222.958 59.8258 225.093 60.7046 225.093C61.5833 225.093 67.7229 228.738 68.7071 230.039C68.7071 230.039 74.9638 234.621 75.784 235.793C75.784 235.793 85.5322 246.024 89.0707 244.319C89.0707 244.319 90.2306 241.702 85.79 238.032C85.79 238.032 82.5211 235.689 82.4742 234.218L82.275 233.385C82.275 233.385 83.3764 233.918 83.6459 234.088C83.9153 234.257 87.3835 236.73 87.6764 237.264C87.9693 237.797 91.6015 239.984 92.5388 239.776C92.5388 239.776 91.496 235.467 91.1563 235.181C90.8165 234.895 92.2928 235.558 92.7263 236.17C93.1481 236.782 95.7726 239.047 95.2219 235.702C95.2219 235.702 95.0345 233.84 96.6045 235.077C96.6045 235.077 99.2173 239.672 99.5337 238.93C99.5337 238.93 100.237 237.81 99.9789 235.637C99.9789 235.637 99.9555 233.385 100.436 232.942C100.436 232.942 101.701 233.957 101.924 236.678C101.924 236.678 102.334 239.203 103.072 239.763C103.072 239.763 104.513 234.374 104.22 232.057C104.22 232.057 104.63 226.369 105.029 226.108C105.029 226.108 106.47 232.916 106.411 233.905C106.353 234.895 107.032 239.854 105.462 242.588C105.462 242.588 109.715 242.744 110.665 229.597C111.614 216.45 111.637 211.607 109.54 205.854C109.54 205.854 107.021 184.636 108.649 181.004C108.649 181.004 109.458 178.726 111.578 177.854C111.578 177.854 111.66 179.546 110.793 181.889C110.793 181.889 110.278 183.217 110.629 183.829C110.629 183.829 111.754 188.359 111.766 192.537C111.778 196.729 111.977 201.506 118.081 196.56C118.081 196.56 128.087 185.977 122.534 179.26C122.534 179.26 118.761 173.754 117.87 173.702C117.87 173.702 117.144 174.131 117.167 174.873C117.191 175.602 116.675 176.318 116.218 176.344C115.761 176.37 114.941 175.55 114.953 174.392C114.953 174.392 115.082 173.298 115.398 172.452C115.714 171.593 115.761 170.005 114.601 169.38C113.441 168.755 110.864 168.833 110.102 168.326C110.102 168.326 108.591 167.232 107.829 166.152C107.068 165.071 104.724 164.043 102.111 165.826C102.111 165.826 89.0355 171.294 88.9301 171.84C88.9301 171.84 85.8955 172.504 85.8837 177.099C85.8837 177.685 85.8017 178.284 85.544 178.791C85.4034 179.078 85.2042 179.39 84.9347 179.69C84.9347 179.69 81.9352 183.881 83.1303 188.502C83.1303 188.502 84.4543 191.808 82.9311 192.746C82.9311 192.746 81.0682 192.459 81.0682 188.554C81.0682 188.554 80.248 186.146 79.2404 185.365C78.2328 184.584 73.136 180.445 73.4992 186.563C73.4992 186.563 74.6357 188.827 73.6515 189.908C73.6515 189.908 71.6128 190.207 70.5115 187.174C69.4101 184.141 63.5869 181.369 60.5757 185.17C60.5757 185.17 58.7714 186.523 60.5171 189.14C60.5171 189.14 62.9659 196.247 63.1182 198.109C63.1182 198.109 64.8172 204.07 66.3403 205.698C66.3403 205.698 66.9144 206.908 66.4106 208.145C66.4106 208.145 61.4193 199.072 61.2787 198.057C61.2787 198.057 59.615 191.782 58.2675 190.975C58.2675 190.975 56.6741 188.841 51.261 190.39C51.261 190.39 49.5034 190.442 49.1519 190.246C48.8004 190.051 46.8438 189.687 46.3165 190.78C46.3165 190.78 46.0236 191.262 45.5666 191.522C45.5666 191.522 45.4729 187.734 47.5351 186.641C49.5972 185.547 52.3155 185.092 53.3348 182.644C53.3348 182.644 54.319 181.121 57.7286 180.588C61.1381 180.054 63.0948 179.859 63.9618 179.846C64.8289 179.82 69.5038 179.885 69.9842 180.08C70.4646 180.275 74.9169 180.913 75.9011 181.174C76.8853 181.434 80.4472 182.436 80.6464 182.618C80.6464 182.618 83.3881 178.167 84.0559 175.511C84.4074 174.118 84.9581 172.778 85.872 171.736C86.8445 170.63 88.2974 169.393 90.3712 168.521C95.0462 166.568 100.284 164.733 100.858 164.004C100.858 164.004 105.087 161.635 107.653 161.531C110.219 161.44 113.664 161.31 116.757 163.457C116.757 163.457 120.952 166.256 122.182 167.532C122.182 167.532 126.33 164.486 124.092 158.654C124.092 158.654 123.904 157.404 119.511 156.194C119.511 156.194 113.09 152.172 108.028 155.621C108.028 155.621 104.794 157.574 102.932 157.287C102.932 157.287 97.4481 155.647 94.0386 156.91C94.0386 156.91 90.1017 157.313 90.3126 160.06C90.5118 162.807 87.4421 164.056 87.4421 164.056C87.4421 164.056 86.2704 163.145 86.1064 161.049C85.9423 158.954 82.6148 158.381 79.2287 162.052C79.2287 162.052 77.1665 163.223 77.6352 167.571L78.221 173.038C78.221 173.038 76.7916 173.077 76.3229 171.294C76.3229 171.294 73.3703 163.718 69.5858 164.251C69.5858 164.251 66.4809 164.095 67.7346 168.417C67.7346 168.417 67.2074 168.534 66.7738 168.104C66.3403 167.675 64.9812 167.349 65.3561 168.964C65.3561 168.964 66.9613 172.426 66.5629 173.441C66.5629 173.441 64.3251 170.981 63.833 169.745C63.833 169.745 61.806 166.49 61.1264 166.738C61.1264 166.738 56.3577 169.51 55.186 172.413C55.186 172.413 53.9441 173.949 50.6751 173.806C47.4062 173.676 46.7383 175.576 46.7383 175.576C46.7383 175.576 43.938 179.156 42.6492 179.768C41.3604 180.379 38.2203 183.829 38.2203 183.829C38.2203 183.829 37.0721 184.922 37.8922 186.406C38.7124 187.89 38.7007 190.663 38.7007 190.663C38.7007 190.663 38.4312 193.501 39.6263 195.193C39.6263 195.193 37.2244 195.779 34.471 192.134C31.7175 188.489 29.5617 189.504 27.5933 193.227C25.6249 196.95 27.9799 201.454 27.9799 201.454C27.9799 201.454 29.55 205.125 25.8944 207.221C25.8944 207.221 23.7619 208.444 26.5856 210.774C26.5856 210.774 29.4562 213.924 30.1475 214.028C30.8388 214.133 31.0145 215.07 34.8576 210.54C34.8576 210.54 36.6385 208.665 41.7236 208.522C41.7236 208.522 42.9538 208.457 44.6762 206.244C44.6762 206.244 46.1642 205.086 49.48 205.502C49.48 205.502 52.831 205.411 49.5972 201.662C49.5972 201.662 46.3634 197.419 46.5509 195.388C46.5509 195.388 48.0389 194.503 49.3394 197.666C49.3394 197.666 53.5692 204.474 54.9517 205.424C54.9517 205.424 58.3847 208.665 58.9705 209.316C59.5681 209.967 62.7199 213.898 63.2588 214.705C63.7978 215.512 66.4926 219.808 66.4926 219.808C66.4926 219.808 67.512 221.448 66.6684 222.737C66.6684 222.737 65.0515 222.073 64.3719 220.381C64.3719 220.381 58.9588 208.184 49.8784 207.325C49.8784 207.325 46.1408 207.429 44.8402 209.407C44.8402 209.407 42.7078 211.568 40.7277 211.568C40.7277 211.568 37.4704 209.811 37.4704 212.857C37.4704 212.857 36.9783 213.898 39.9895 214.927C39.9895 214.927 41.0206 215.76 39.556 215.981C38.0914 216.202 36.9783 215.473 36.5917 215.317C36.205 215.161 34.4592 214.172 33.1704 216.384C33.1704 216.384 31.9284 220.198 30.4404 221.734C28.9524 223.27 27.2769 224.728 26.7028 224.872C26.7028 224.872 28.6829 227.045 31.5887 227.058C31.6355 227.136 34.2952 227.501 35.4903 228.555Z" fill="#CD3333"/>
<path d="M50.9916 188.489C50.9916 188.489 52.878 186.771 53.1826 186.289C53.4872 185.808 55.9009 183.438 56.5804 183.36C57.26 183.282 58.209 182.775 58.912 184.519C59.615 186.263 56.1703 187.174 56.1703 187.174L50.9916 188.489Z" fill="#CF2045"/>
<path d="M108.895 163.691C108.895 163.691 110.43 166.438 111.157 166.503C111.157 166.503 112.106 167.037 113.195 166.75C114.285 166.464 116.523 167.818 116.523 167.818C116.523 167.818 118.55 169.549 118.667 170.083C118.784 170.616 119.827 171.28 120.331 172.803C120.835 174.326 121.502 175.446 123.061 175.55C123.061 175.55 123.096 171.853 118.772 168.039C114.461 164.212 108.895 163.691 108.895 163.691Z" fill="#CD3333"/>
<path d="M24.3478 36.3856C24.3478 36.3856 25.1211 34.8235 26.738 34.3419C28.3549 33.8602 29.2336 35.8779 29.2336 35.8779C29.2336 35.8779 32.5846 40.2386 33.0767 40.3037C33.5688 40.3687 36.5683 44.2999 37.365 44.6774C38.15 45.0679 42.0985 50.3007 42.5086 50.9646C42.9187 51.6285 45.3441 55.833 45.5901 57.8376C45.8362 59.8422 45.8948 59.9854 45.6721 61.9249C45.6721 61.9249 41.0206 56.0672 40.6574 55.1821C40.2942 54.2969 36.1933 50.483 35.6427 50.0925C35.092 49.702 31.038 47.1636 30.0772 47.0074C29.1165 46.8512 27.1246 45.1199 26.656 43.1544C26.1873 41.1888 25.8358 39.1712 25.7069 38.8197C25.7069 38.8197 25.0859 37.3618 24.5587 36.9583C24.0197 36.5287 24.3478 36.3856 24.3478 36.3856Z" fill="#CD3333"/>
<path d="M148.556 70.373C148.556 70.373 146.295 69.5009 143.729 70.8937L139.031 72.9504C139.031 72.9504 144.444 68.7329 142.382 65.9863C142.382 65.9863 140.214 62.2634 139.71 61.938C139.71 61.938 141.151 59.2174 141.421 58.4364C141.69 57.6684 141.866 53.7373 137.507 54.7526C137.507 54.7526 135.363 55.3124 134.613 55.9892C134.613 55.9892 135.07 54.5443 136.558 53.3207C136.558 53.3207 140.343 50.9386 139.23 49.2985C139.23 49.2985 138.96 46.604 130.993 52.1752C130.993 52.1752 123.529 56.8223 122.791 57.9548C122.791 57.9548 113.687 65.2183 112.539 65.6218C112.539 65.6218 112.235 63.3699 118.679 58.4494C125.123 53.529 126.33 52.5788 128.474 51.3161C130.618 50.0665 138.433 47.2939 138.972 43.2196C138.972 43.2196 139.921 40.3428 138.21 37.6092C138.21 37.6092 136.195 39.2885 135.844 39.0281C135.492 38.7678 134.988 38.4423 135.82 37.3229C135.82 37.3229 136.277 36.6981 135.609 36.0993C135.609 36.0993 133.899 37.0495 133.231 38.0258C133.231 38.0258 130.958 40.9806 130.267 41.6836C129.575 42.3865 128.075 43.545 128.075 43.545C128.075 43.545 128.04 41.6445 129.376 39.692C130.712 37.7394 133.559 35.0189 132.446 34.6153C132.106 34.4982 128.24 32.4806 125.65 35.5656C125.65 35.5656 120.881 40.0695 119.593 41.215C119.593 41.215 116.523 44.2089 115.199 43.8965C115.199 43.8965 115.211 42.1912 116.851 40.6943C116.851 40.6943 122.393 36.0993 122.088 33.6651C122.088 33.6651 122.358 31.4522 119.78 31.309C119.78 31.309 117.941 31.1268 117.003 30.1505C117.003 30.1505 114.976 28.0287 114.847 27.6512C114.847 27.6512 113.148 24.8916 111.485 27.443C111.485 27.443 110.407 28.992 109.657 30.2416C109.657 30.2416 107.923 32.4545 107.103 32.7799C107.103 32.7799 107.22 31.2179 107.946 30.0594C107.946 30.0594 109.54 27.5211 109.891 26.5318C109.891 26.5318 110.313 25.2301 110.219 24.6834C110.219 24.6834 110.29 22.5225 108.755 25.4123C108.755 25.4123 106.447 29.4866 106.095 30.0854L101.713 37.8175L99.1587 42.3344L97.1318 45.9141L94.6595 50.2748L93.7808 51.8238C93.7808 51.8238 94.7767 47.9187 95.0228 47.4371C95.2805 46.9554 96.4522 43.6101 97.6004 41.3581C97.6004 41.3581 100.905 34.7455 103.435 30.554C103.435 30.554 106.786 24.9307 106.154 24.9567C105.861 24.9697 104.63 23.5899 102.064 24.9307C102.064 24.9307 95.1634 27.7424 92.6794 26.714C92.6794 26.714 89.1176 24.4491 86.6805 28.6666C86.6805 28.6666 84.1965 32.7539 83.9271 34.9928C83.9271 34.9928 83.2006 37.1797 82.2867 38.9891C82.0641 39.2494 81.8532 39.5227 81.6657 39.8091C81.5134 40.0564 81.3845 40.3298 81.2205 40.5771C81.1268 40.7073 81.0331 40.8375 80.951 40.9676C80.951 40.9676 80.9042 41.0327 80.8339 41.1238C80.8221 41.1368 80.8104 41.1368 80.7987 41.1499C80.5058 41.5143 80.248 41.9179 80.0254 42.3474C80.002 42.3865 79.9785 42.4125 79.9551 42.4516C79.9082 42.5166 79.8731 42.5817 79.8262 42.6598C79.7676 42.777 79.7208 42.8942 79.6739 43.0113C79.5802 43.1805 79.4864 43.3628 79.4044 43.532C79.3224 43.7012 79.2638 43.8834 79.2287 44.0657C79.1584 44.2479 79.0998 44.4301 79.0412 44.6124C78.9709 44.8467 78.9123 45.094 78.8889 45.3283C78.8537 45.4195 78.8303 45.5106 78.8186 45.6147C78.8069 45.6538 78.7952 45.6928 78.7834 45.7319C78.76 45.81 78.7483 45.8881 78.7249 45.9792C78.7014 46.1354 78.7014 46.2785 78.6897 46.4347C78.5608 47.1897 78.5022 47.9968 78.5608 48.8559C78.5608 48.8559 78.5608 48.895 78.5725 48.96C78.5725 48.9731 78.5608 48.9861 78.5608 49.0121C78.5843 49.9363 78.4905 50.9256 78.76 51.8108C78.8303 53.6852 78.7834 55.8981 78.2562 56.6661C78.2562 56.6661 76.3112 54.4662 76.2995 48.934C76.2995 48.934 76.4049 43.3888 78.2796 40.8114C78.2796 40.8114 82.6851 34.4331 82.7905 30.3067C82.7905 30.3067 85.2042 24.7485 80.4472 24.2148L70.8747 20.9345C70.8747 20.9345 67.1839 18.8648 67.0199 23.5769C66.973 23.7201 66.9145 23.8633 66.891 24.0065C66.8559 24.2018 66.8324 24.41 66.8442 24.6053C66.8559 25.0088 66.9496 25.3863 67.1254 25.7377C67.1254 25.7508 67.1371 25.7508 67.1371 25.7508C67.1488 26.5969 67.0668 27.456 66.7153 27.7293C66.7153 27.7293 66.2466 27.8075 65.86 28.4843C65.2273 29.1352 65.239 30.1505 65.2272 31.0617C65.2155 31.9468 65.2858 32.832 65.403 33.7172C65.3561 34.6284 65.239 35.4875 64.9578 35.8259C64.9578 35.8259 65.0164 31.7386 64.2899 30.1896C64.2899 30.1896 63.8798 27.2868 63.0714 24.7875C63.0714 24.7615 63.0831 24.7485 63.0831 24.7224C63.0714 24.5272 63.0245 24.3449 62.9894 24.1627C62.9191 23.8243 62.8722 23.4728 62.7199 23.1604C62.6379 23.0042 62.5324 22.861 62.427 22.7308C62.3332 22.6007 62.2395 22.4575 62.134 22.3403C62.052 22.2362 61.9466 22.1581 61.8294 22.119C61.5365 21.7285 61.2319 21.4421 60.8804 21.338C60.8804 21.338 60.2594 20.8824 58.5605 20.6611C58.5605 20.6611 56.2874 19.2032 55.1861 18.7216C55.1861 18.7216 53.3934 17.6933 51.7648 19.5807C51.7648 19.5807 50.4057 17.5241 48.7067 16.9383C48.7067 16.9383 44.9691 15.246 44.1021 12.109C44.1021 12.109 42.3563 5.53539 41.4541 4.71531C41.4541 4.71531 40.7043 2.85389 39.0053 3.58284C39.0053 3.58284 36.8495 4.14259 38.3258 7.46192C38.3258 7.46192 40.1067 10.625 39.4037 11.6013C39.4037 11.6013 38.5367 11.0285 37.7985 9.46651C37.7985 9.46651 37.4002 6.81105 32.9244 9.15411C32.9244 9.15411 26.6677 10.5469 29.468 16.8732C29.468 16.8732 29.4445 17.0033 28.3197 16.9903C28.3197 16.9903 27.5113 16.9643 27.3707 17.7453C27.3707 17.7453 29.6789 21.0777 31.1552 22.0279C31.1552 22.0279 32.5612 23.5769 32.9361 25.8158C32.9361 25.8158 30.2647 23.8633 29.2805 22.835C29.0462 22.6007 26.7848 20.2576 25.7069 19.9712C25.7069 19.9712 27.6636 22.4054 28.39 27.7684C28.39 27.7684 28.4838 32.1681 32.7018 36.2034C32.7018 36.2034 39.6497 43.3758 41.0792 43.9095C41.0792 43.9095 41.2315 43.7533 41.2784 43.4018C41.2901 43.3888 41.2901 43.3888 41.3018 43.3888C41.5127 43.1805 41.5479 42.79 41.4073 42.5296C41.3955 42.5166 41.3838 42.5036 41.3721 42.4776C41.3369 42.3474 41.3018 42.2043 41.2432 42.0741C41.1846 41.9439 41.1143 41.8398 41.0323 41.7226C41.0089 41.6836 40.9737 41.6575 40.9503 41.6315C40.9269 41.6055 40.9034 41.5924 40.88 41.5664C40.8448 41.4883 40.8097 41.4232 40.7511 41.3581C40.6339 41.1629 40.5402 40.9546 40.4465 40.7463C40.3293 40.499 40.1653 40.2907 40.013 40.0695C39.9661 40.0044 39.931 39.9263 39.8958 39.8482C39.9075 39.8872 39.9192 39.9263 39.9427 39.9653C39.9192 39.9003 39.8958 39.8352 39.8724 39.7831C39.8724 39.7571 39.8724 39.731 39.8724 39.718C39.8489 39.6659 39.8372 39.6138 39.8138 39.5618C39.7669 39.4576 39.6966 39.3926 39.6029 39.3275C39.5912 39.3275 39.5795 39.3145 39.5677 39.3145C39.0171 38.208 38.4781 36.8412 38.4664 35.5916C38.4781 35.5656 38.4898 35.5395 38.5015 35.5135C38.607 34.8887 38.7124 34.2769 38.8062 33.6521C38.9116 33.0273 38.9819 32.3894 39.1225 31.7646C39.2279 31.322 39.6146 31.0878 39.9544 30.8925C40.1067 30.8014 40.2707 30.7493 40.4465 30.6842C40.5519 30.7233 40.6457 30.7753 40.7511 30.8404C40.798 30.9315 40.8566 31.0227 40.9503 31.0877C40.962 31.1008 40.9855 31.1268 40.9972 31.1398C41.0792 31.283 41.1495 31.4262 41.2315 31.5694C41.337 31.7646 41.4893 31.9208 41.6182 32.09C41.6885 32.2072 41.747 32.3243 41.8173 32.4415C41.9228 32.6237 42.0751 32.832 42.2626 32.9231C42.286 32.9362 42.2977 32.9361 42.3212 32.9492C42.3212 32.9622 42.3329 32.9622 42.3329 32.9752C43.4694 35.5005 45.2972 40.3688 46.1174 45.6407C46.3517 47.1637 46.6095 48.8039 46.8555 50.3789C46.8438 50.47 46.8438 50.5612 46.8555 50.6523C47.2422 52.9563 47.0664 55.3384 47.992 57.5122L48.0037 57.5252C48.0272 57.6424 48.0389 57.7205 48.0389 57.7205C48.0389 57.7205 49.2926 66.5981 49.6441 67.4182C49.6441 67.4182 50.6869 77.5714 52.1163 78.769C52.1163 78.769 55.3501 84.7698 55.8305 84.939C55.8305 84.939 58.127 88.5577 58.4667 89.534C58.8065 90.4973 61.6771 93.9338 64.4774 93.7645C67.2777 93.5823 67.7581 93.9728 69.2812 92.4238C69.2812 92.4238 71.191 87.2951 71.7651 86.5531L72.3276 85.3035C72.3276 85.3035 73.1946 85.4987 73.0657 85.9413C72.9368 86.3839 70.6169 91.5777 72.5033 94.7408C72.5033 94.7408 73.3 97.3442 76.487 94.2331C76.487 94.2331 78.1859 92.593 80.1191 92.8013C80.1191 92.8013 80.4003 93.361 79.6622 93.8296C79.6622 93.8296 78.8069 94.2462 79.4865 95.2745C79.4865 95.2745 82.6265 94.4675 83.2358 94.103C83.2358 94.103 88.8012 91.9682 91.0508 91.7599C91.0508 91.7599 94.1674 91.4215 95.714 91.6688C95.714 91.6688 93.9097 93.0876 91.5546 93.9077C89.1878 94.7278 83.9271 95.639 82.3805 97.8779C82.3805 97.8779 93.7105 98.3595 98.1394 96.2768C98.1394 96.2768 107.642 93.4391 111.508 90.2109C111.508 90.2109 120.729 84.184 121.655 82.2575C121.655 82.2575 116.792 80.0446 108.907 83.3509L103.939 85.5508C103.939 85.5508 104.302 83.0255 106.681 81.7629C109.059 80.5002 112.926 78.4045 122.323 78.6258C131.719 78.834 148.088 75.723 150.396 73.8746C150.337 73.8616 152.598 72.0652 148.556 70.373Z" fill="#CD3333"/>
<path d="M46.1289 10.2606C46.1289 10.2606 46.2929 8.47725 49.269 8.46423C52.245 8.45122 50.8742 7.35779 56.1467 10.4558C56.1467 10.4558 60.4233 14.6473 66.0824 13.0592C66.0824 13.0592 70.6051 10.6901 71.8119 11.4842C71.8119 11.4842 73.6397 11.2629 76.3579 15.168C76.3579 15.168 79.2871 18.5524 81.1501 18.9299C81.1501 18.9299 82.6381 19.047 83.2005 22.0539C83.2005 22.0539 79.3105 21.8457 77.3421 20.2576C77.3421 20.2576 73.9912 18.2269 72.0228 17.4459C72.0228 17.4459 69.7614 16.6519 67.1721 17.8104C67.1721 17.8104 64.5124 20.0103 61.7472 17.9927C61.7472 17.9927 57.9745 14.9337 56.1701 14.7644C56.1701 14.7644 53.651 14.0485 51.214 14.439C51.214 14.439 49.3744 15.0768 47.9684 13.697C47.9802 13.697 45.5665 12.148 46.1289 10.2606Z" fill="#CD3333"/>
<path d="M146.178 53.1125C146.178 53.1125 148.967 59.1654 149.728 60.1027C150.501 61.0399 154.438 68.1211 154.438 68.1211C154.438 68.1211 153.079 70.7245 151.333 67.8087C151.333 67.8087 149.798 65.3355 146.928 65.2444C146.928 65.2444 144.444 65.1793 143.729 61.7168C143.729 61.7168 142.733 59.1264 144.608 57.1218C144.608 57.1348 146.049 55.1432 146.178 53.1125Z" fill="#CD3333"/>
<path d="M119.581 89.7163C119.581 89.7163 118.749 88.0632 123.518 85.5509C128.286 83.0517 130.29 81.3985 134.66 81.2683C134.66 81.2683 139.628 79.5892 140.109 83.7416C140.109 83.7416 140.401 85.3687 140.823 86.345C140.823 86.345 142.03 87.907 138.562 89.0525C138.562 89.0525 136.57 90.3412 128.474 89.6253C128.474 89.6383 121.092 89.2998 119.581 89.7163Z" fill="#CD3333"/>
<path d="M51.4017 8.59449C51.3197 8.46432 51.2025 8.32113 51.0502 8.29509C50.7573 8.23001 50.4643 8.16493 50.1597 8.17795C49.9957 8.19096 49.8316 8.20399 49.6676 8.26907C49.5856 8.29511 49.4918 8.33416 49.4098 8.39925C49.2927 8.49037 49.1872 8.5945 49.1286 8.72467C49.0583 8.88087 49.0232 9.05007 49.07 9.2323C49.1052 9.38851 49.2106 9.54469 49.3395 9.62279C49.3512 9.63581 49.3747 9.63584 49.3864 9.64885C49.4098 9.66187 49.4215 9.67489 49.445 9.6879C49.527 9.75299 49.6207 9.79202 49.7496 9.79202C49.9723 9.79202 50.1246 9.67488 50.2183 9.51868C50.312 9.51868 50.4058 9.51868 50.4995 9.51868C50.5698 9.53169 50.6518 9.54471 50.7221 9.55773C50.8745 9.59678 51.0268 9.58378 51.1791 9.49266C51.2963 9.41456 51.4134 9.25833 51.4486 9.10213C51.4954 8.93291 51.4955 8.73768 51.4017 8.59449Z" fill="#CD3333"/>
<path d="M48.2615 9.31058C48.2146 9.15437 48.1326 8.99818 47.992 8.92008C47.9451 8.89405 47.8983 8.88101 47.8514 8.85497C47.746 8.82894 47.6405 8.82894 47.5351 8.85497C47.1484 8.93308 46.7618 9.08928 46.4688 9.38867C46.1173 9.74013 45.965 10.2869 46.0705 10.7945C46.1056 10.9507 46.2111 11.1069 46.34 11.185C46.4688 11.2631 46.6563 11.3022 46.7969 11.2501C46.9375 11.198 47.0781 11.1069 47.1484 10.9507C47.2187 10.8075 47.2304 10.6644 47.207 10.5082C47.207 10.5212 47.207 10.5472 47.2187 10.5602C47.2187 10.5342 47.2187 10.5081 47.2187 10.4821C47.2187 10.4691 47.2187 10.4561 47.2304 10.443C47.2421 10.43 47.2538 10.404 47.2538 10.391C47.2656 10.365 47.289 10.3519 47.3007 10.3389C47.3359 10.3129 47.3827 10.2869 47.4296 10.2608C47.5702 10.2088 47.7108 10.1567 47.8514 10.1306C47.992 10.1046 48.1326 9.96141 48.2029 9.83125C48.2732 9.66202 48.3083 9.46678 48.2615 9.31058Z" fill="#CD3333"/>
<path d="M55.8071 10.0402C55.7016 9.97516 55.6079 9.94914 55.5025 9.93613C54.9518 9.44148 54.3073 9.09 53.6278 8.89475C53.5926 8.88173 53.5458 8.86872 53.5106 8.8557C53.2411 8.72553 52.9716 8.60841 52.6904 8.51729C52.3975 8.42617 52.0343 8.63441 51.964 8.97285C51.8937 9.31129 52.046 9.63672 52.3389 9.75387C52.4444 9.92309 52.6084 10.0403 52.8076 10.0533C52.8428 10.0533 52.8662 10.0533 52.9013 10.0663C52.9013 10.0663 52.9131 10.0663 52.9365 10.0663C52.9482 10.0663 52.9834 10.0793 52.9951 10.0793C53.0302 10.0793 53.0537 10.0923 53.0888 10.0923C53.1005 10.0923 53.1123 10.0923 53.124 10.1054C53.2646 10.1835 53.4052 10.2485 53.5458 10.3396C53.7332 10.4698 53.9207 10.6 54.0964 10.7562C54.1199 10.7692 54.1316 10.7952 54.155 10.8082C54.2019 10.8473 54.237 10.8863 54.2839 10.9254C54.3776 11.0165 54.4714 11.1076 54.5534 11.1988C54.7057 11.368 54.9518 11.42 55.1627 11.355C55.1861 11.381 55.2095 11.407 55.233 11.4331C55.4673 11.7324 55.9946 11.6674 56.1586 11.3029C56.3461 10.8213 56.2172 10.2876 55.8071 10.0402Z" fill="#CD3333"/>
<path d="M59.1463 14.895C59.0994 14.7257 59.0057 14.6086 58.8768 14.5044C58.6893 14.3482 58.455 14.2571 58.2324 14.192C58.1855 14.179 58.1387 14.166 58.0918 14.14C58.0566 14.127 57.9629 14.114 57.9512 14.0749C58.0332 14.114 58.0449 14.114 57.9863 14.0879C57.9629 14.0749 57.9395 14.0619 57.9161 14.0489C57.8692 14.0229 57.8223 13.9968 57.7754 13.9708C57.5528 13.8536 57.3302 13.7365 57.0842 13.6844C56.9904 13.6714 56.8967 13.6584 56.8147 13.6454C56.803 13.6454 56.7912 13.6454 56.7795 13.6454H56.7678C56.5921 13.4241 56.264 13.3329 56.0414 13.5022C55.7719 13.6974 55.6664 14.0749 55.8305 14.3873C56.0179 14.7648 56.3577 14.895 56.7092 14.934C56.7444 14.934 56.7795 14.947 56.8264 14.947C56.8264 14.947 56.8147 14.947 56.8381 14.947C56.8733 14.9601 56.8967 14.96 56.9319 14.9731C56.9787 14.9861 57.0256 15.0121 57.0842 15.0251C57.1076 15.0382 57.1193 15.0381 57.1427 15.0512C57.3771 15.1683 57.5997 15.2855 57.8458 15.3766C57.9512 15.4156 58.0449 15.4416 58.1504 15.4807H58.1621C58.1504 15.4807 58.1621 15.4807 58.1972 15.4937C58.2441 15.5198 58.291 15.5588 58.3379 15.5979C58.455 15.689 58.6659 15.702 58.7948 15.663C58.9354 15.6239 59.076 15.5067 59.1463 15.3636C59.158 15.2464 59.1932 15.0642 59.1463 14.895Z" fill="#CD3333"/>
<path d="M62.4856 16.7171C62.4505 16.6781 62.4271 16.626 62.3919 16.5869C62.3216 16.5088 62.2279 16.4568 62.1341 16.4177C62.0873 16.4047 62.0287 16.4047 61.9818 16.3917C61.9467 16.3917 61.9233 16.4177 61.8998 16.4177C61.8295 16.3526 61.7709 16.3006 61.6889 16.2746C61.6421 16.2615 61.5835 16.2616 61.5366 16.2485C61.4312 16.2485 61.3374 16.2745 61.2437 16.3396C61.1383 16.4307 61.0797 16.4568 61.0211 16.5869V16.6C60.9977 16.652 60.9859 16.7041 60.9625 16.7562V16.7692C60.9742 16.7432 60.9391 16.8994 60.9391 16.9514V16.9644C60.9508 17.0165 60.9508 17.0816 60.9625 17.1337C60.9742 17.1988 60.9977 17.2638 61.0328 17.3159C61.0563 17.381 61.1031 17.433 61.1383 17.4721L61.15 17.4851C61.1851 17.5242 61.232 17.5502 61.2671 17.5893L61.2789 17.6023C61.3492 17.6413 61.4195 17.6804 61.5015 17.7064C61.5835 17.7325 61.6655 17.7325 61.7475 17.7455C61.8061 17.7455 61.8647 17.7324 61.9115 17.7324C61.9701 17.7194 62.0287 17.7194 62.0756 17.6934C62.1576 17.6674 62.2279 17.6283 62.2982 17.5893C62.3685 17.5502 62.4271 17.4982 62.4622 17.42C62.5091 17.355 62.5442 17.2899 62.5677 17.1987C62.5911 17.1076 62.5911 17.0295 62.5794 16.9384C62.5559 16.8733 62.5325 16.7952 62.4856 16.7171Z" fill="#CD3333"/>
<path d="M28.226 34.4985C28.144 34.4204 28.062 34.3553 27.9682 34.3033C27.8745 34.2512 27.7808 34.2121 27.687 34.1861C27.5816 34.1601 27.4761 34.1471 27.3707 34.134C27.3121 34.134 27.2535 34.134 27.1949 34.134C27.0895 34.1471 26.984 34.1601 26.8786 34.1991C26.738 34.2512 26.6091 34.3163 26.5154 34.4334C26.3045 34.6677 26.2693 35.0192 26.4099 35.3056C26.4802 35.4487 26.6208 35.5659 26.7614 35.605C26.7966 35.618 26.8317 35.6049 26.8669 35.618C26.902 35.631 26.9372 35.657 26.984 35.657H27.0075C27.0895 35.657 27.1598 35.644 27.2301 35.605C27.3004 35.5789 27.359 35.5399 27.4058 35.4748C27.4058 35.4748 27.4058 35.4748 27.4175 35.4748C27.4293 35.5008 27.441 35.5138 27.4527 35.5399C27.5581 35.657 27.7222 35.7351 27.8628 35.7351C28.0151 35.7221 28.1674 35.67 28.2729 35.5399C28.3783 35.4227 28.4486 35.2535 28.4486 35.0843C28.4369 34.85 28.3783 34.6417 28.226 34.4985Z" fill="#CD3333"/>
<path d="M33.0416 40.3039C32.6901 39.7963 32.2566 39.3407 31.8348 38.9111C31.5067 38.5727 31.1669 38.2212 30.8271 37.8828C30.6748 37.7136 30.5342 37.5444 30.3819 37.3882C30.1476 37.1669 29.7726 37.1148 29.55 37.3882C29.3508 37.6355 29.3039 38.065 29.55 38.3123C29.5734 38.3514 29.5851 38.3905 29.6203 38.4165C29.7375 38.5337 29.8663 38.6638 29.9835 38.781C30.1944 39.0023 30.4053 39.2235 30.5928 39.4578C30.6279 39.5099 30.6748 39.562 30.71 39.614C30.7334 39.6401 30.7451 39.6661 30.7685 39.6921C30.7685 39.7051 30.7685 39.6921 30.7685 39.7052C30.8506 39.8223 30.9326 39.9395 31.0146 40.0566C31.1786 40.2779 31.3661 40.4732 31.5887 40.6164C31.6239 40.6424 31.659 40.6424 31.6942 40.6554C31.8699 40.8376 32.034 41.0329 32.2097 41.2151C32.4323 41.4494 32.819 41.4755 33.0416 41.2151C33.147 41.085 33.2174 40.9288 33.2174 40.7595C33.2056 40.5903 33.1353 40.4601 33.0416 40.3039Z" fill="#CD3333"/>
<path d="M25.707 36.0085C25.6835 35.9043 25.6249 35.8002 25.5546 35.7221C25.5195 35.6831 25.4726 35.657 25.4375 35.6179C25.3437 35.5529 25.25 35.5269 25.1446 35.5269H25.1211C25.1094 35.5269 25.0977 35.5398 25.086 35.5398C25.0743 35.5398 25.0625 35.5269 25.0391 35.5269C24.7345 35.5269 24.5587 35.7481 24.5001 35.9955C24.2775 36.373 24.4181 37.0238 24.9571 37.0238C25.1914 37.0238 25.3437 36.8937 25.4375 36.7114C25.4843 36.6854 25.5195 36.6724 25.5546 36.6203C25.6132 36.5552 25.6484 36.4901 25.6718 36.412C25.707 36.3339 25.7304 36.2558 25.7187 36.1647C25.7187 36.1126 25.707 36.0606 25.707 36.0085Z" fill="#CD3333"/>
<path d="M27.4294 42.0871C27.4177 42.0741 27.4177 42.0611 27.406 42.0481C27.406 42.009 27.3943 41.983 27.3825 41.9439V41.9309C27.3825 41.9179 27.3825 41.9179 27.3825 41.9049C27.3825 41.8919 27.3825 41.8918 27.3825 41.8788V41.7617C27.3825 41.6706 27.3708 41.5924 27.3357 41.5143C27.3357 41.5143 27.3357 41.5014 27.324 41.5014V41.4883C27.324 41.4232 27.3357 41.3582 27.324 41.2931C27.324 41.2801 27.324 41.2801 27.3123 41.2671C27.3123 41.254 27.324 41.254 27.324 41.241V41.215C27.324 41.1889 27.3123 41.1629 27.3005 41.1238C27.3123 41.0978 27.3123 41.0718 27.324 41.0457V41.0197V41.0067C27.3357 40.9676 27.3474 40.9416 27.3474 40.9156V40.8895C27.3474 40.7984 27.3357 40.7203 27.3005 40.6422C27.2771 40.5641 27.242 40.486 27.1834 40.4339C27.1248 40.3689 27.0662 40.3298 26.9959 40.3038C26.9256 40.2647 26.8553 40.2387 26.7733 40.2517C26.7264 40.2647 26.6679 40.2647 26.621 40.2777C26.5273 40.3038 26.4335 40.3689 26.3632 40.447C26.3281 40.486 26.3047 40.5381 26.2695 40.5771C26.2109 40.6812 26.1875 40.7854 26.1875 40.9025V40.9286V40.9416C26.1875 40.9807 26.1641 41.0067 26.1641 41.0327V41.0588C26.1641 41.0848 26.1758 41.1238 26.1758 41.1499C26.1758 41.1759 26.1641 41.2019 26.1641 41.228V41.254C26.1641 41.2931 26.1758 41.3321 26.1875 41.3581C26.1875 41.4362 26.1641 41.5014 26.1875 41.5795C26.1875 41.5795 26.1875 41.5795 26.1875 41.5925V41.6836C26.1875 41.7617 26.1992 41.8268 26.2226 41.8919C26.2226 41.9049 26.2226 41.9049 26.2226 41.9179C26.2226 41.9309 26.2226 41.9309 26.2226 41.9439V41.97C26.2226 42.009 26.2344 42.0351 26.2461 42.0741V42.1262C26.2461 42.1652 26.2578 42.1913 26.2695 42.2303C26.2695 42.2824 26.2578 42.3214 26.2695 42.3735C26.2812 42.3995 26.2812 42.4386 26.2929 42.4646C26.2929 42.4906 26.3164 42.5037 26.3281 42.5297C26.3398 42.5687 26.3281 42.6078 26.3515 42.6338C26.3632 42.6729 26.3867 42.6859 26.3984 42.725C26.3984 42.738 26.3984 42.751 26.4101 42.751C26.4218 42.764 26.4335 42.764 26.4335 42.777C26.4453 42.803 26.457 42.8291 26.4687 42.8421C26.4804 42.8682 26.5156 42.8682 26.5273 42.8812C26.5624 42.9202 26.5858 42.9593 26.621 42.9853C26.7147 43.0504 26.8202 43.0764 26.9256 43.0764C27.0193 43.0764 27.1599 43.0504 27.2302 42.9853C27.3005 42.9462 27.3591 42.8942 27.3943 42.8161C27.4411 42.751 27.4763 42.6859 27.4997 42.5948C27.5231 42.5037 27.5231 42.4256 27.5114 42.3344C27.4997 42.2303 27.4763 42.1522 27.4294 42.0871Z" fill="#CD3333"/>
<path d="M29.4328 45.4069C29.3859 45.3158 29.3156 45.2377 29.2219 45.1726C29.175 45.1075 29.1282 45.0424 29.0579 45.0034C29.0461 45.0034 29.0344 45.0034 29.0344 44.9903C29.0344 44.9773 29.0227 44.9643 29.0227 44.9643C29.011 44.9513 28.9993 44.9383 28.9758 44.9253C28.9524 44.8992 28.929 44.8992 28.9173 44.8862C28.8821 44.8472 28.847 44.8081 28.8001 44.7821C28.7767 44.73 28.7415 44.6909 28.6946 44.6519C28.6829 44.6389 28.6829 44.6258 28.6712 44.6128C28.6478 44.5868 28.6478 44.5478 28.6243 44.5217C28.6126 44.5087 28.6126 44.5087 28.6009 44.4957C28.5423 44.4306 28.4837 44.3915 28.4134 44.3655C28.3431 44.3264 28.2728 44.3004 28.1908 44.3134C28.1088 44.3134 28.0385 44.3264 27.9682 44.3655C27.8979 44.3915 27.8276 44.4306 27.7807 44.4957C27.7456 44.5347 27.7221 44.5868 27.687 44.6258C27.6284 44.73 27.605 44.8341 27.605 44.9513C27.6167 45.0034 27.6167 45.0684 27.6284 45.1205C27.6518 45.2247 27.7104 45.3288 27.7807 45.4069L27.8042 45.4329C27.8159 45.4459 27.8276 45.4459 27.8393 45.4589C27.851 45.485 27.8745 45.498 27.8862 45.511C27.8862 45.524 27.8862 45.5371 27.8979 45.5501C27.9096 45.5631 27.9096 45.5761 27.9213 45.5891C27.9448 45.6282 27.9799 45.6542 28.0033 45.6933C28.0151 45.7063 28.0151 45.7323 28.0268 45.7453C28.0385 45.7583 28.0385 45.7584 28.0502 45.7714C28.0854 45.8104 28.1322 45.8365 28.1791 45.8625L28.1908 45.8755C28.2025 45.8885 28.2143 45.8885 28.2143 45.9016C28.226 45.9276 28.2494 45.9406 28.2728 45.9536C28.2846 45.9666 28.2846 45.9666 28.2963 45.9797L28.308 45.9927C28.308 46.0057 28.3197 46.0057 28.3197 46.0187C28.3549 46.0838 28.4017 46.1228 28.4603 46.1619C28.472 46.1749 28.472 46.1879 28.4837 46.1879C28.4955 46.1879 28.5072 46.2009 28.5189 46.2009C28.5306 46.214 28.5306 46.227 28.554 46.24C28.5775 46.253 28.6126 46.266 28.6361 46.2921C28.7064 46.3441 28.7767 46.3702 28.8587 46.3702C28.9407 46.3832 29.011 46.3832 29.093 46.3571C29.175 46.3311 29.2336 46.2921 29.2922 46.24C29.3508 46.1879 29.4094 46.1359 29.4445 46.0578C29.468 46.0057 29.4797 45.9536 29.5031 45.9016C29.5265 45.7844 29.5265 45.6672 29.5031 45.5501C29.468 45.511 29.4562 45.459 29.4328 45.4069Z" fill="#CD3333"/>
<path d="M31.6238 46.8126C31.6238 46.7995 31.6238 46.7995 31.6238 46.8126C31.6238 46.7475 31.6121 46.6954 31.6004 46.6303C31.6004 46.6173 31.5887 46.6173 31.5887 46.6043C31.5652 46.5132 31.5184 46.422 31.4598 46.3569C31.4598 46.3569 31.4598 46.344 31.4481 46.344C31.4363 46.3309 31.4363 46.3309 31.4246 46.3179C31.4246 46.3179 31.4129 46.3179 31.4129 46.3049C31.4129 46.3049 31.4129 46.2919 31.4012 46.2919C31.366 46.2528 31.3192 46.2268 31.284 46.1878C31.202 46.1357 31.12 46.1226 31.038 46.1096C31.0263 46.1096 31.0263 46.1096 31.0145 46.1096C30.9911 46.0836 30.956 46.0706 30.9325 46.0576C30.9091 46.0315 30.8857 46.0185 30.8622 45.9925C30.8505 45.9925 30.8505 45.9925 30.8388 45.9795C30.8271 45.9795 30.8154 45.9795 30.8154 45.9665C30.8154 45.9665 30.8154 45.9534 30.8036 45.9534C30.7451 45.8883 30.6865 45.8493 30.6162 45.8233C30.5459 45.7842 30.4756 45.7582 30.3936 45.7712C30.3467 45.7842 30.2881 45.7842 30.2413 45.7972C30.1475 45.8233 30.0538 45.8884 29.9835 45.9665C29.9483 46.0055 29.9249 46.0576 29.8898 46.0966C29.8312 46.2008 29.8077 46.3049 29.8077 46.4221V46.4611C29.8077 46.5522 29.8195 46.6303 29.8546 46.7084C29.878 46.7865 29.9132 46.8646 29.9718 46.9167C29.9718 46.9167 29.9835 46.9167 29.9835 46.9297C29.9835 46.9297 29.9835 46.9427 29.9952 46.9427C30.0069 46.9557 30.0069 46.9557 30.0186 46.9688C30.0772 47.0338 30.1358 47.0729 30.2061 47.0989C30.2178 47.0989 30.2295 47.0989 30.2295 47.112C30.253 47.125 30.2647 47.138 30.2881 47.151C30.3116 47.164 30.335 47.164 30.3584 47.164C30.417 47.2291 30.4756 47.2681 30.5459 47.2942C30.5576 47.3072 30.581 47.2942 30.5927 47.3072C30.6045 47.3072 30.6045 47.3202 30.6045 47.3202C30.6513 47.3463 30.6982 47.3463 30.7333 47.3593C30.8154 47.4244 30.9208 47.4764 31.0497 47.4764C31.4363 47.4764 31.6238 47.138 31.6238 46.8126Z" fill="#CD3333"/>
<path d="M37.6345 45.3417C37.4587 44.7949 37.1307 44.3524 36.744 43.9749C36.3925 43.6365 36.0176 43.3371 35.7246 42.9336C35.6895 42.8815 35.6309 42.8554 35.5723 42.8164V42.8034C35.5372 42.7253 35.4903 42.6602 35.42 42.6211C35.3614 42.5691 35.3028 42.53 35.2208 42.504C35.1388 42.478 35.0685 42.478 34.9865 42.491C34.9045 42.491 34.8342 42.517 34.7639 42.5691C34.7287 42.6082 34.6819 42.6342 34.6467 42.6732C34.5764 42.7513 34.5295 42.8555 34.4944 42.9596C34.4827 43.0117 34.4827 43.0768 34.4709 43.1288C34.4709 43.246 34.4944 43.3501 34.553 43.4542C34.6233 43.6235 34.717 43.7796 34.8224 43.9228C34.9279 44.066 35.0568 44.1832 35.1974 44.3003C35.2442 44.3264 35.2911 44.3264 35.338 44.3394C35.502 44.4956 35.6778 44.6518 35.8418 44.808C35.9941 44.9511 36.1464 45.1074 36.2753 45.2766C36.2871 45.2896 36.2988 45.3156 36.3105 45.3287C36.3339 45.3677 36.3573 45.4068 36.3808 45.4328C36.4394 45.5239 36.4862 45.6281 36.5214 45.7322C36.5214 45.7192 36.5214 45.7191 36.5097 45.7061C36.5565 45.8493 36.6386 45.9795 36.7674 46.0576C36.8963 46.1357 37.0838 46.1747 37.2244 46.1227C37.5056 46.0446 37.7516 45.6801 37.6345 45.3417Z" fill="#CD3333"/>
<path d="M41.5363 54.6357C41.5363 54.5446 41.5246 54.4665 41.4894 54.3884C41.466 54.3103 41.4308 54.2322 41.3722 54.1801C41.3371 54.1411 41.2902 54.115 41.2551 54.089C41.2199 54.0369 41.1848 53.9979 41.1496 53.9458C41.0325 53.7636 40.9153 53.5813 40.8098 53.3991C40.7278 53.2559 40.6107 53.1388 40.4584 53.0997C40.3763 53.0737 40.306 53.0737 40.224 53.0867C40.142 53.0867 40.0717 53.1127 40.0014 53.1648C39.8725 53.2559 39.7671 53.386 39.7319 53.5553C39.6968 53.7245 39.7085 53.9067 39.7905 54.063C40.0131 54.4535 40.2592 54.831 40.5404 55.1694C40.6107 55.2475 40.7044 55.2996 40.7981 55.3386C40.8802 55.3647 40.9504 55.3647 41.0325 55.3516C41.1145 55.3516 41.1848 55.3256 41.2551 55.2735C41.3488 55.2215 41.4074 55.1434 41.466 55.0392C41.4894 54.9872 41.5245 54.9221 41.5363 54.857C41.548 54.8049 41.548 54.7399 41.5597 54.6878C41.5363 54.6487 41.5363 54.6357 41.5363 54.6357Z" fill="#CD3333"/>
<path d="M44.5943 54.7398C44.2545 53.7114 43.8562 52.7091 43.1883 51.8891C43.118 51.7979 43.036 51.7198 42.954 51.6417C42.8485 51.4335 42.7314 51.2252 42.6025 51.043C42.5087 50.9128 42.4033 50.7956 42.2978 50.6655C42.2627 50.4963 42.1807 50.3401 42.0284 50.262C42.0166 50.262 42.0049 50.2489 41.9932 50.2359C41.9815 50.2099 41.9698 50.1839 41.9581 50.1578C41.876 49.9886 41.7823 49.8454 41.6769 49.6892C41.63 49.6241 41.5831 49.559 41.5245 49.494C41.5011 49.4549 41.466 49.4159 41.4425 49.3768C41.4308 49.3638 41.4308 49.3638 41.4308 49.3638C41.3957 49.3247 41.3488 49.2467 41.3254 49.1946C41.2785 49.1165 41.2316 49.0514 41.1848 48.9733C40.8333 48.4136 40.47 47.8278 39.9897 47.3983C39.9194 47.3332 39.8373 47.2811 39.7553 47.255C39.7202 47.19 39.6616 47.1379 39.603 47.0989C39.5327 47.0468 39.4624 47.0208 39.3804 47.0208C39.2984 47.0077 39.2281 47.0077 39.1461 47.0338C39.0054 47.0858 38.8648 47.1769 38.7945 47.3331C38.7711 47.3852 38.7594 47.4373 38.736 47.4894C38.7125 47.6065 38.7125 47.7237 38.736 47.8408C38.7477 47.8799 38.7594 47.9189 38.7828 47.971C38.7946 48.0101 38.8063 48.0491 38.8297 48.0881C38.8766 48.1663 38.9234 48.2313 38.982 48.3094C39.0289 48.3745 39.0757 48.4396 39.1226 48.5047C39.2163 48.6349 39.3218 48.765 39.4155 48.8822C39.4741 48.9472 39.5327 48.9863 39.603 49.0123C39.6616 49.0514 39.7319 49.0644 39.8022 49.0644C39.8256 49.0905 39.8491 49.1425 39.8608 49.1555C39.9076 49.2206 39.9428 49.2857 39.9897 49.3508C40.0834 49.494 40.1654 49.6242 40.2591 49.7673C40.3411 49.8845 40.4114 50.0016 40.4935 50.1188C40.4466 50.3791 40.5638 50.6394 40.763 50.7957C40.6927 50.7436 40.8684 50.9258 40.8567 50.8998C40.8215 50.8608 40.9035 50.9909 40.9153 51.0039C40.9387 51.043 40.9621 51.082 40.9856 51.1211C41.1027 51.3293 41.2316 51.5376 41.3839 51.7329C41.5831 51.9932 41.8175 52.2275 42.0518 52.4748C42.1338 52.631 42.2041 52.7873 42.2861 52.9304C42.5088 53.3079 42.7782 53.6464 43.0008 54.0239C43.1063 54.2061 43.2 54.3883 43.2469 54.5445C43.3172 54.7919 43.3875 55.0392 43.5281 55.2475C43.7039 55.5078 43.9733 55.651 44.2545 55.5078C44.5006 55.3906 44.688 55.0522 44.5943 54.7398Z" fill="#CD3333"/>
<path d="M45.7893 58.8403C45.7307 58.4498 45.6721 58.0332 45.5433 57.6687C45.4847 57.5125 45.4144 57.3693 45.2738 57.2782C45.1449 57.2001 44.9574 57.1611 44.8168 57.2132C44.5356 57.3173 44.2896 57.6687 44.4067 58.0202C44.4887 58.2415 44.5239 58.4888 44.5708 58.7231C44.6059 58.9313 44.6411 59.1266 44.6762 59.3349C44.7114 59.6212 44.7231 59.8946 44.6997 60.181C44.6762 60.5194 44.9926 60.8448 45.2855 60.8318C45.6253 60.8188 45.8479 60.5455 45.8713 60.181C45.9065 59.7384 45.8596 59.2828 45.7893 58.8403Z" fill="#CD3333"/>
<path d="M116.687 166.36C116.136 166.022 115.586 165.684 115.023 165.371C114.976 165.228 114.906 165.098 114.777 165.033C114.156 164.694 113.477 164.525 112.809 164.317C112.153 164.108 111.497 163.939 110.829 163.835C110.782 163.822 110.723 163.835 110.676 163.835C110.63 163.822 110.594 163.809 110.536 163.809C109.786 163.809 109.786 165.111 110.536 165.111C110.548 165.111 110.547 165.111 110.559 165.111C111.192 165.215 111.813 165.371 112.422 165.566C112.985 165.749 113.617 165.892 114.133 166.152C114.18 166.282 114.25 166.412 114.367 166.478C114.941 166.803 115.515 167.154 116.089 167.506C116.359 167.675 116.746 167.584 116.886 167.272C117.039 166.946 116.968 166.543 116.687 166.36Z" fill="#CD3333"/>
<path d="M119.733 171.88C119.745 171.893 119.745 171.905 119.757 171.905C119.745 171.893 119.745 171.893 119.733 171.88Z" fill="#CD3333"/>
<path d="M121.327 172.348C121.327 172.309 121.315 172.27 121.303 172.231C121.303 172.218 121.303 172.205 121.303 172.205C121.303 172.166 121.315 172.14 121.303 172.101C121.303 172.088 121.292 172.062 121.292 172.049C121.28 171.997 121.245 171.945 121.221 171.893C121.21 171.867 121.21 171.841 121.198 171.828C121.174 171.775 121.139 171.723 121.104 171.684C121.081 171.671 121.057 171.645 121.046 171.632C121.046 171.632 121.046 171.632 121.034 171.619C121.01 171.593 120.987 171.567 120.964 171.541C120.952 171.515 120.94 171.489 120.917 171.463C120.905 171.45 120.905 171.45 120.893 171.437C120.882 171.424 120.87 171.424 120.858 171.411C120.858 171.411 120.858 171.398 120.846 171.398C120.846 171.398 120.846 171.385 120.835 171.385V171.372C120.811 171.32 120.8 171.268 120.764 171.229L120.753 171.216C120.741 171.203 120.741 171.19 120.729 171.177C120.718 171.164 120.706 171.138 120.694 171.125L120.682 171.112C120.671 171.086 120.659 171.06 120.647 171.047C120.635 171.007 120.635 170.981 120.624 170.942C120.624 170.929 120.612 170.929 120.612 170.916C120.6 170.903 120.589 170.89 120.589 170.877V170.864C120.577 170.851 120.577 170.825 120.565 170.812C120.553 170.786 120.53 170.773 120.518 170.76C120.518 170.747 120.507 170.747 120.507 170.734C120.507 170.721 120.495 170.721 120.495 170.721C120.483 170.708 120.495 170.695 120.483 170.682C120.471 170.669 120.471 170.656 120.46 170.643C120.46 170.63 120.448 170.63 120.448 170.617C120.448 170.617 120.448 170.617 120.448 170.604C120.448 170.578 120.425 170.565 120.425 170.539C120.425 170.526 120.425 170.526 120.425 170.513C120.401 170.409 120.343 170.305 120.272 170.226L120.261 170.213C120.202 170.148 120.143 170.109 120.073 170.083C120.003 170.044 119.933 170.018 119.85 170.031C119.768 170.031 119.698 170.044 119.628 170.083C119.558 170.109 119.487 170.148 119.44 170.213C119.405 170.253 119.382 170.305 119.347 170.344C119.288 170.448 119.265 170.552 119.265 170.669C119.276 170.721 119.276 170.786 119.288 170.838C119.3 170.864 119.312 170.89 119.335 170.916V170.929C119.335 170.942 119.347 170.955 119.347 170.968C119.347 170.981 119.358 170.994 119.37 171.007C119.382 171.047 119.37 171.086 119.394 171.112C119.405 171.164 119.44 171.203 119.476 171.255V171.268C119.487 171.281 119.487 171.294 119.499 171.307L119.511 171.32V171.333C119.511 171.346 119.511 171.359 119.522 171.372C119.534 171.385 119.534 171.411 119.546 171.424C119.558 171.45 119.581 171.45 119.593 171.476C119.593 171.489 119.604 171.489 119.604 171.502C119.604 171.515 119.616 171.515 119.628 171.528C119.628 171.528 119.628 171.541 119.64 171.541C119.651 171.593 119.686 171.632 119.71 171.684C119.722 171.71 119.722 171.736 119.733 171.762C119.745 171.775 119.757 171.801 119.768 171.815L119.78 171.828C119.78 171.841 119.78 171.841 119.792 171.854L119.804 171.867C119.804 171.867 119.804 171.867 119.804 171.88C119.804 171.88 119.804 171.867 119.792 171.867C119.792 171.88 119.804 171.88 119.804 171.893C119.815 171.919 119.839 171.932 119.85 171.945C119.862 171.958 119.862 171.984 119.874 171.997C119.85 171.971 119.839 171.945 119.815 171.919C119.839 171.958 119.85 171.997 119.886 172.036C119.886 172.049 119.886 172.062 119.897 172.075C119.909 172.088 119.909 172.114 119.921 172.127C119.944 172.179 119.991 172.218 120.038 172.257C120.05 172.27 120.05 172.283 120.061 172.296L120.073 172.309C120.085 172.322 120.097 172.322 120.108 172.335C120.12 172.348 120.132 172.374 120.132 172.387C120.167 172.452 120.214 172.504 120.272 172.556C120.284 172.596 120.284 172.635 120.296 172.674C120.296 172.687 120.307 172.687 120.307 172.7C120.319 172.739 120.354 172.752 120.378 172.778C120.401 172.817 120.425 172.843 120.46 172.869C120.46 172.869 120.46 172.869 120.471 172.882H120.483C120.53 172.934 120.6 172.96 120.671 172.986C120.671 172.986 120.671 172.986 120.682 172.986H120.694C120.741 172.999 120.788 173.025 120.846 173.025C121.151 173.025 121.327 172.817 121.385 172.57C121.385 172.556 121.397 172.556 121.397 172.543C121.315 172.465 121.315 172.413 121.327 172.348Z" fill="#CD3333"/>
<path d="M119.429 169.602C119.452 169.445 119.429 169.289 119.37 169.146V169.133C119.37 169.12 119.358 169.12 119.358 169.107C119.358 169.094 119.347 169.094 119.347 169.081C119.323 169.042 119.288 169.003 119.253 168.964C119.241 168.951 119.241 168.938 119.229 168.938L119.218 168.912C119.218 168.899 119.206 168.899 119.194 168.886V168.873L119.183 168.86C119.159 168.821 119.147 168.769 119.124 168.743L119.101 168.717C119.101 168.703 119.089 168.69 119.089 168.69V168.677C119.077 168.664 119.065 168.638 119.054 168.625C119.054 168.625 119.054 168.625 119.042 168.612C119.03 168.599 119.03 168.573 119.019 168.56C119.019 168.547 119.019 168.534 119.007 168.521C118.995 168.482 118.96 168.443 118.937 168.404C118.925 168.391 118.913 168.378 118.901 168.365C118.901 168.365 118.901 168.352 118.89 168.352C118.796 168.196 118.655 168.066 118.433 168.066C118.046 168.066 117.859 168.417 117.87 168.756V168.769V168.795C117.87 168.847 117.894 168.899 117.905 168.951C117.917 168.977 117.905 169.003 117.917 169.029C117.917 169.042 117.929 169.042 117.929 169.055C117.929 169.055 117.929 169.055 117.929 169.068C117.941 169.12 117.976 169.159 117.999 169.198C118.011 169.211 117.999 169.237 118.011 169.263C118.023 169.276 118.034 169.302 118.046 169.315C118.058 169.328 118.069 169.341 118.069 169.354C118.069 169.354 118.069 169.367 118.081 169.367L118.093 169.38C118.093 169.393 118.105 169.406 118.105 169.419C118.105 169.432 118.105 169.445 118.116 169.458C118.116 169.471 118.128 169.472 118.128 169.485C118.14 169.511 118.163 169.524 118.175 169.55V169.563C118.187 169.576 118.187 169.589 118.198 169.602C118.222 169.641 118.245 169.667 118.269 169.693C118.269 169.706 118.269 169.706 118.269 169.719C118.28 169.732 118.28 169.745 118.292 169.758C118.292 169.771 118.304 169.771 118.316 169.784V169.797L118.327 169.81C118.362 169.862 118.386 169.914 118.433 169.94C118.444 169.953 118.456 169.953 118.456 169.953C118.468 169.953 118.468 169.966 118.48 169.979C118.491 169.992 118.515 169.992 118.526 170.005C118.573 170.044 118.608 170.07 118.667 170.083C118.667 170.083 118.679 170.083 118.679 170.096C118.69 170.096 118.69 170.096 118.702 170.096C118.749 170.109 118.796 170.135 118.854 170.135C119.171 170.135 119.347 169.914 119.393 169.654C119.429 169.628 119.429 169.615 119.429 169.602Z" fill="#CD3333"/>
<path d="M118.034 174.301C117.765 174.145 117.39 174.21 117.238 174.535C117.144 174.73 117.085 174.939 117.05 175.147C117.038 175.225 117.015 175.303 117.003 175.381C116.992 175.407 116.992 175.42 116.992 175.433C116.98 175.459 116.956 175.498 116.945 175.524C116.851 175.681 116.757 175.824 116.652 175.967C116.652 175.967 116.558 176.097 116.593 176.045C116.64 175.98 116.546 176.11 116.535 176.123C116.511 176.149 116.488 176.188 116.464 176.214C116.453 176.214 116.417 176.227 116.406 176.227C116.312 176.227 116.23 176.214 116.136 176.227C116.125 176.227 116.125 176.227 116.125 176.227C116.113 176.227 116.113 176.227 116.101 176.214C116.089 176.214 116.054 176.201 116.019 176.188C115.996 176.175 115.937 176.149 115.937 176.149C115.902 176.136 115.878 176.11 115.843 176.084C115.703 175.993 115.562 175.889 115.433 175.798C115.422 175.798 115.433 175.798 115.422 175.785C115.398 175.759 115.375 175.733 115.351 175.707C115.328 175.681 115.293 175.642 115.269 175.616C115.258 175.603 115.258 175.603 115.258 175.603C115.258 175.589 115.257 175.59 115.246 175.576C115.07 175.29 114.719 175.147 114.449 175.342C114.203 175.524 114.051 175.928 114.238 176.227C114.496 176.644 114.859 176.917 115.246 177.178C115.691 177.477 116.23 177.581 116.746 177.451C117.261 177.321 117.542 176.787 117.823 176.358C117.964 176.149 118.081 175.928 118.14 175.681C118.163 175.576 118.187 175.472 118.198 175.368C118.21 175.329 118.222 175.277 118.234 175.238C118.234 175.225 118.245 175.212 118.245 175.199C118.245 175.186 118.245 175.199 118.257 175.173C118.386 174.887 118.327 174.457 118.034 174.301Z" fill="#CD3333"/>
<path d="M50.9916 188.489C50.9916 188.489 53.8153 188.073 54.6003 187.643C54.6003 187.643 56.0649 187.188 56.5219 187.07C56.5219 187.07 57.799 186.888 58.2091 186.459C58.2091 186.459 58.8652 185.951 58.9238 185.417C59.2519 182.306 56.5922 183.374 56.5922 183.374" fill="#CD3333"/>
<path d="M42.661 179.859L44.4771 178.323L44.7934 179.859H42.661Z" fill="#CD3333"/>
<path d="M38.2439 183.92C38.2439 183.92 39.521 182.358 40.0248 182.072Z" fill="#CD3333"/>
<path d="M37.6937 185.951C37.6937 185.951 37.3994 185.157 37.8232 184.532Z" fill="#CD3333"/>
<path d="M60.7047 225.132C60.7047 225.132 68.0979 229.467 69.7734 230.872C71.4489 232.291 69.6211 226.082 69.6211 226.082L60.7047 225.132Z" fill="#CD3333"/>
<path d="M70.3708 231.328C70.3708 231.328 76.2995 236.119 76.8385 236.9C77.3891 237.681 75.4325 229.753 75.4325 229.753L70.3708 231.328Z" fill="#CD3333"/>
<path d="M85.2394 237.641C85.2394 237.641 89.1879 239.802 89.1645 242.913Z" fill="#CD3333"/>
<path d="M84.9231 235.012C84.9231 235.012 88.3444 238.006 88.8013 238.201C89.2583 238.396 87.7117 234.374 87.7117 234.374L84.9231 235.012Z" fill="#CD3333"/>
<path d="M82.4743 234.257C82.4743 234.257 83.3413 236.183 83.7748 236.483C84.1966 236.782 81.947 236.951 81.947 236.951L82.4743 234.257Z" fill="#CD3333"/>
</g>
<defs>
<filter id="filter0_d" x="0" y="0" width="262" height="385.799" filterUnits="userSpaceOnUse" color-interpolation-filters="sRGB">
<feFlood flood-opacity="0" result="BackgroundImageFix"/>
<feColorMatrix in="SourceAlpha" type="matrix" values="0 0 0 0 0 0 0 0 0 0 0 0 0 0 0 0 0 0 127 0"/>
<feOffset dy="4"/>
<feGaussianBlur stdDeviation="2"/>
<feColorMatrix type="matrix" values="0 0 0 0 0 0 0 0 0 0 0 0 0 0 0 0 0 0 0.25 0"/>
<feBlend mode="normal" in2="BackgroundImageFix" result="effect1_dropShadow"/>
<feBlend mode="normal" in="SourceGraphic" in2="effect1_dropShadow" result="shape"/>
</filter>
</defs>
</svg>
