<svg width="134" height="127" viewBox="0 0 134 127" fill="none" xmlns="http://www.w3.org/2000/svg">
<path d="M130.932 110.062L105.578 86.0245C101.506 91.4506 96.5008 96.1951 90.7745 100.063L116.128 124.092C120.219 127.969 126.842 127.969 130.932 124.092C135.022 120.217 135.022 113.938 130.932 110.062Z" fill="black"/>
<path d="M108.875 51.5937C108.875 23.0998 84.5022 0 54.4377 0C24.3737 0 0.000976562 23.0998 0.000976562 51.5937C0.000976562 80.0877 24.3737 103.186 54.4377 103.186C84.5022 103.186 108.875 80.0877 108.875 51.5937ZM60.785 76.3058C60.2371 79.18 60.4498 82.2193 59.2556 84.9715C58.2736 86.8317 59.2758 89.0405 58.5359 90.8863C57.1667 91.0169 55.8408 91.281 54.4379 91.281C31.3494 91.281 12.564 73.4756 12.564 51.5937C12.564 42.9891 15.5414 35.0759 20.4682 28.5644C20.3251 29.114 20.1782 29.6645 20.166 30.2384C20.0222 32.4041 20.4193 34.7495 21.9697 36.4317C22.7584 37.4125 24.1536 37.7106 24.8934 38.7452C25.8415 40.0016 27.7523 40.0047 28.6841 41.2836C29.5264 42.3763 30.4505 43.4157 31.3256 44.4896C31.9636 45.2408 32.1196 46.3762 33.1041 46.8301C35.3416 47.9074 38.0859 47.6051 40.2071 48.958C43.8959 51.0004 47.4545 53.3453 51.4573 54.8184C52.8356 55.4266 54.8884 54.7328 55.7627 56.1933C56.4219 57.9223 54.2907 58.9491 53.9886 60.4918C53.7561 61.4689 54.1761 62.6229 53.3918 63.4298C54.2173 65.3664 55.5752 67.0499 56.7809 68.7772C57.7837 70.1649 59.5586 70.7939 60.6088 72.1266C61.3244 73.4058 60.924 74.9327 60.785 76.3058ZM63.8601 90.179C64.4202 89.1017 64.8831 87.9791 65.6839 87.0324C66.1092 86.5757 65.9455 85.6764 66.7389 85.5457C67.8919 85.3049 69.4533 85.4209 69.9275 84.1263C69.756 83.9638 69.6 83.7929 69.4456 83.639C70.1658 83.622 70.8775 83.5607 71.5967 83.568C73.2258 81.561 75.1553 79.7545 76.3243 77.4591C77.0023 76.2511 78.6803 76.2362 79.5635 75.2358C80.3069 74.4687 81.1835 73.7554 81.6886 72.8087C82.0341 71.4686 81.5173 69.8953 82.5085 68.7314C83.4649 67.6857 84.7485 66.7793 85.0023 65.3293C85.2873 64.4449 84.6905 63.5696 83.8568 63.2129C81.1009 61.8947 77.7474 62.1512 75.1553 60.4533C74.3613 59.7713 74.6386 58.5667 73.9515 57.8019C73.052 56.6744 71.4831 56.4809 70.1573 56.0849C69.0786 55.8179 68.318 54.9958 67.3274 54.5579C64.9228 53.4233 62.2156 52.8527 59.5329 52.9961C58.4785 53.0396 57.3907 53.423 56.8422 54.3336C56.5644 54.8759 55.9066 54.52 55.4896 54.3606C53.3424 53.3571 51.0118 52.3224 49.6986 50.3222C49.4252 49.8304 48.8809 49.6087 48.3827 49.3841C48.6398 48.2877 49.6909 47.4546 49.5846 46.2721C48.2223 45.8378 46.8483 46.5244 45.475 46.3723C44.6282 46.2524 44.7216 45.2644 44.636 44.6597C44.4686 43.462 44.7553 42.1099 45.879 41.3927C47.2654 40.4392 49.1181 39.42 50.8561 40.1296C52.3203 40.7221 52.3493 42.5868 53.7271 43.2678C54.5409 41.9625 53.4981 40.5169 53.4854 39.1488C54.2789 38.0404 55.5837 37.4436 56.5942 36.5519C57.3341 36.0095 56.2791 35.1023 56.9126 34.5095C58.1518 32.905 59.4487 31.2192 61.3089 30.223C62.5475 29.5378 63.9996 30.1419 65.3412 30.0448C66.3884 29.7192 66.9521 28.6924 67.9093 28.227C69.3155 27.441 71.0093 27.5802 72.5467 27.8281C72.0313 26.8557 71.5903 25.3405 70.2642 25.2115C69.2084 25.5798 68.9391 26.956 67.7853 27.274C66.698 27.8744 65.6348 27.0335 64.9234 26.3045C63.6552 26.7974 62.3592 27.2622 61.0057 27.503C63.7864 26.3359 66.8367 25.8124 69.5511 24.499C69.9518 24.2737 70.6723 23.9169 70.3293 23.3869C69.4774 21.9062 67.6306 21.259 66.7629 19.782C66.1984 19.007 66.125 17.9448 65.365 17.3133C64.2766 16.8638 63.1487 17.9215 62.0526 17.4496C60.6865 16.8212 59.734 15.4994 58.1918 15.2013C57.3413 15.0186 56.2255 14.817 55.5625 15.4921C55.096 16.9141 56.1921 18.2553 56.2579 19.6582C55.6566 20.7588 55.3255 21.9487 54.9201 23.1189C54.6669 23.9562 53.7019 24.3171 52.8552 24.1316C52.8146 23.3175 53.3134 22.1039 52.2377 21.7165C50.2013 20.937 48.0792 20.3361 46.0834 19.4723C44.7699 19.0418 43.4418 17.6512 44.4195 16.3404C45.6793 14.7359 47.7075 13.9491 49.3101 12.7284C49.4531 12.6239 49.5755 12.4847 49.7072 12.3601C51.2808 12.1897 52.8185 11.907 54.4374 11.907C55.4647 11.907 56.4249 12.1245 57.4352 12.1942C56.8906 12.4805 56.3435 12.7634 55.8646 13.1432C56.658 13.5196 57.5614 13.3678 58.4122 13.4921C60.4365 13.5892 61.7168 15.6004 63.745 15.6193C64.1628 14.6427 62.4937 14.8406 62.31 14.0423C63.0988 13.9609 63.9745 14.3208 64.6931 13.9298C64.7668 13.5615 64.6036 13.3448 64.3832 13.1621C66.9797 13.7672 69.4815 14.5773 71.8659 15.6193C71.8596 15.8056 71.8789 15.9912 71.7278 16.1899C71.2125 17.1434 69.355 16.7592 69.3152 17.9605C70.0344 19.7087 71.4588 21.1621 72.954 22.3674C73.9849 23.0888 75.6115 23.7745 76.7331 22.8443C77.6908 21.9607 78.0335 20.4494 79.0078 19.6121C89.4425 26.8364 96.3124 38.4364 96.3124 51.5943C96.3124 70.3947 82.4105 86.1027 63.8601 90.179Z" fill="black"/>
</svg>
