<svg width="396" height="357" viewBox="0 0 396 357" fill="none" xmlns="http://www.w3.org/2000/svg">
<path d="M42.263 200.765C44.374 198.908 45.243 197.158 44.423 193.989C41.53 182.73 42.419 171.375 44.755 160.097C45.615 155.936 44.755 151.717 45.263 147.536C45.38 146.544 44.97 145.446 44.295 144.58C40.485 139.7 38.931 133.721 36.381 128.237C33.958 123.036 32.16 117.524 27.215 113.955C25.056 112.4 23.033 110.64 20.268 110.183C18.734 109.93 18.284 108.647 17.835 107.422C17.18 105.643 17.053 103.699 15.392 102.299C14.171 101.268 15.578 100.519 16.193 99.751C17.249 98.439 19.711 98.264 19.076 95.551C18.636 93.665 18.03 92.012 16.721 90.622C15.265 89.076 15.412 87.589 16.829 86.15C18.079 84.867 19.144 83.515 19.926 81.853C20.6 80.404 21.783 79.14 23.659 79.111C25.574 79.082 26.072 77.38 27.059 76.301C29.658 73.462 30.86 73.278 33.313 76.224C34.993 78.246 36.576 79.305 39.322 78.605C41.677 78.012 43.807 79.529 45.595 80.676C48.487 82.524 51.243 82.105 53.959 81.007C56.969 79.772 59.138 80.618 61.082 82.864C62.529 84.536 64.131 85.936 66.222 86.83C67.659 87.443 68.43 88.93 69.261 90.233C69.603 90.778 69.857 91.692 70.521 91.565C73.707 90.943 76.951 92.635 80.048 91.4C82.267 90.515 84.631 90.369 86.898 89.757C90.416 88.814 92.331 91.692 94.471 93.607C95.477 94.501 96.269 95.367 97.666 95.493C98.213 95.542 98.897 95.687 99.249 96.047C102.679 99.518 106.734 97.233 110.457 97.126C112.362 97.068 113.31 97.35 113.994 99.061C114.854 101.18 115.538 103.203 114.648 105.536C114.179 106.771 114.727 107.753 116.016 108.511C119.104 110.319 121.557 112.721 122.163 116.483C122.319 117.436 123.022 118.039 123.618 118.671C125.661 120.839 126.687 123.61 127.996 126.186C128.885 127.946 127.283 130.017 124.957 130.532C122.26 131.125 119.485 131.329 116.876 132.33C115.117 133.001 114.443 133.808 115.655 135.772C117.511 138.767 116.739 140.507 113.593 141.829C110.603 143.093 107.476 142.714 104.437 142.48C101.018 142.218 97.607 142.422 94.197 142.208C92.37 142.092 90.904 143.074 89.439 143.89C83.791 147.03 77.684 148.372 71.313 148.985C67.922 149.305 64.571 149.908 61.141 150.054C58.796 150.151 57.067 151.619 56.099 153.768C55.132 155.917 53.647 157.56 51.683 158.814C50.217 159.747 49.416 161.128 49.142 162.79C48.39 167.33 47.315 171.861 47.051 176.44C46.68 182.896 47.755 189.283 49.474 195.535C49.865 196.954 50.735 197.187 51.81 196.254C53.774 194.524 55.757 194.076 57.887 195.924C58.874 196.779 59.587 196.546 60.242 195.476C61.815 192.919 64.18 191.83 67.16 191.743C68.352 191.704 69.681 191.48 70.678 190.897C73.961 188.972 77.459 188.933 81.065 189.303C83.048 189.507 84.934 189.235 86.732 188.282C89.79 186.649 92.907 187.417 95.985 188.243C97.236 188.583 98.409 189.176 99.62 189.653C103.04 191.004 104.496 194.232 102.503 197.217C100.5 200.201 100.705 202.68 102.767 205.354C103.255 205.986 103.666 206.822 103.48 207.629C102.376 212.617 102.073 217.935 97.92 221.707C96.308 223.175 94.099 223.758 92.595 225.479C91.041 227.258 89.556 228.746 90.963 231.4C91.569 232.537 91.539 234.083 91.53 235.444C91.481 240.694 91.403 245.944 90.142 251.097C89.839 252.332 88.882 253.236 88.735 254.412C88.247 258.369 87.387 262.385 87.699 266.293C87.905 268.85 89.81 271.3 91.09 273.74C92.37 276.19 93.034 278.844 93.992 281.401C95.927 286.535 98.926 291.085 102.503 295.878C102.503 293.058 102.522 290.793 102.493 288.528C102.473 286.155 102.806 283.88 103.578 281.615C104.496 278.903 103.91 276.005 104.408 273.196C105.268 268.286 106.499 263.61 109.44 259.449C110.926 257.358 112.87 256.075 115.049 254.947C116.622 254.121 118.205 253.285 119.7 252.332C120.423 251.865 121.303 251.253 121.371 250.329C121.537 247.976 123.159 246.401 124.263 244.544C124.771 243.679 125.377 242.765 126.481 242.911C127.752 243.086 128.094 244.35 128.133 245.322C128.24 247.986 128.328 250.689 128.015 253.324C126.755 264.135 122.993 274.08 116.544 282.85C113.31 287.254 111.277 292.067 109.519 297.122C108.844 299.067 109.606 300.787 109.792 302.605C109.841 303.121 110.281 303.442 110.789 303.549C116.827 304.842 121.781 308.837 127.644 310.432C132.989 311.89 137.796 314.904 143.474 315.419C146.249 315.672 148.389 317.84 150.87 319.036C151.506 319.337 151.564 320.076 151.603 320.893C149.659 321.739 147.587 321.447 145.711 320.98C139.575 319.435 133.331 318.112 127.664 315.215C124.811 313.757 121.899 312.726 118.879 311.91C118.43 312.804 118.997 313.135 119.427 313.455C127.527 319.483 135.696 325.472 144.861 329.789C152.492 333.376 160.309 336.594 168.195 339.579C173.364 341.533 178.259 344.042 183.301 346.239C184.611 346.803 186.135 346.881 187.561 347.182C190.757 347.853 193.766 349.126 196.795 350.264C199.355 351.226 201.984 351.596 204.642 351.722C206.899 351.829 208.872 352.811 210.993 353.326C211.843 353.531 212.361 354.211 212.175 355.174C212.058 355.805 211.608 356.156 211.003 356.243C210.016 356.389 209.957 355.805 209.752 354.979C209.429 353.715 207.905 353.686 206.948 353.482C204.182 352.899 201.339 352.675 198.525 352.344C198.193 352.306 197.704 352.189 197.46 352.899C201.114 353.346 204.505 354.629 208.599 355.737C206.439 356.408 205.179 355.514 203.84 355.349C197.098 354.522 190.698 352.442 184.435 350.04C172.905 345.607 160.915 342.408 149.815 336.75C145.584 334.592 141.558 331.918 137.015 330.362C136.36 330.139 135.881 329.672 136.116 329.167C137.015 327.193 135.5 326.658 134.318 325.88C132.413 324.636 130.507 323.382 128.455 322.332C129.462 324.374 131.533 325.18 133.331 326.542C132.315 327.592 131.475 326.931 130.654 326.59C128.514 325.686 127.175 323.683 125.28 322.546C118.791 318.667 113.613 313.3 108.141 308.254C107.662 307.817 107.232 307.272 106.529 307.243C103.372 307.097 101.301 304.88 98.936 303.257C96.445 301.555 94.021 299.747 91.774 297.647C96.464 299.037 99.982 302.635 104.564 304.774C103.587 301.555 94.08 295.051 90.308 294.75C89.644 295.819 91.569 296.014 90.973 297.2C89.39 297.492 88.501 296.16 87.533 295.265C86.566 294.361 85.608 293.992 84.279 294.001C77.058 294.05 69.838 294.118 62.705 292.553C58.845 291.707 56.334 289.101 54.047 286.272C52.073 283.832 50.393 281.158 48.673 278.533C47.354 276.511 45.712 274.965 43.465 273.974C41.53 273.118 39.81 271.864 38.345 270.318C37.729 269.667 36.899 268.996 37.524 268.033C38.091 267.168 39.156 266.828 40.133 267.09C42.087 267.615 44.032 268.247 45.918 268.986C54.448 272.33 62.88 275.899 71.215 279.71C71.87 280.011 72.525 280.449 73.248 279.739C73.443 278.417 72.31 277.707 71.655 276.91C67.805 272.214 65.538 266.633 62.724 261.374C61.581 259.244 60.692 256.979 59.666 254.792C59.177 253.742 58.307 253.392 57.174 253.149C48.057 251.262 39.273 253.09 30.498 255.307C28.613 255.783 26.61 255.861 24.773 256.464C22.799 257.105 21.792 256.318 21.284 254.636C20.815 253.071 19.682 251.826 19.115 250.465C18.265 248.453 17.864 246.392 16.232 244.651C15.412 243.776 16.682 242.415 17.62 241.618C18.793 240.617 20.063 239.751 21.245 238.75C22.515 237.68 22.945 236.446 21.245 235.435C19.154 234.19 17.825 232.119 15.851 230.719C14.435 229.718 15.285 228.415 16.614 228.017C19.193 227.239 19.408 225.887 18.402 223.612C17.073 220.599 18.284 217.818 20.2 215.524C21.714 213.705 23.893 213.783 26.023 214.697C27.118 215.174 28.075 214.765 27.645 213.608C26.395 210.244 29.199 209.146 30.948 207.639C31.974 206.754 33.166 206.122 33.928 204.907C34.847 203.449 36.332 202.768 37.973 202.408C39.508 202.078 39.556 201.31 38.765 200.153C37.348 198.072 35.159 197.45 32.892 197.11C28.671 196.478 25.691 194.105 23.258 190.8C22.535 189.818 22.33 188.875 23.063 187.932C23.864 186.901 24.86 187.446 25.701 187.932C28.896 189.818 32.375 190.965 35.912 192.278C36.957 189.789 35.658 187.825 35.218 185.754C34.671 183.119 33.479 181.311 30.508 180.728C24.968 179.629 21.665 175.604 18.92 171.093C17.747 169.168 16.32 167.642 14.327 166.553C12.607 165.61 11.278 164.142 9.96898 162.693C9.25598 161.905 8.46398 160.933 9.24598 159.903C10.047 158.853 11.288 159.037 12.363 159.582C16.193 161.546 19.897 163.724 23.111 166.63C25.515 168.808 27.86 171.054 30.225 173.261C30.684 173.689 31.036 174.301 32.14 174.117C32.335 171.978 31.476 169.955 31.026 167.953C29.883 162.839 26.805 158.824 23.268 155.003C19.926 151.396 16.281 148.003 13.897 143.589C12.91 141.771 12.226 139.855 11.953 137.892C11.132 132.019 9.31398 126.458 7.44798 120.849C5.95298 116.367 3.44188 112.429 1.61468 108.142C0.901378 106.479 -0.544725 104.155 1.25317 103.096C3.06077 102.036 4.12598 104.544 5.04398 105.944C10.839 114.694 16.75 123.357 21.089 132.992C24.636 140.867 27.772 148.887 30.596 157.035C33.459 165.289 35.697 173.679 37.162 182.312C38.149 188.107 39.185 193.95 41.247 199.511C41.423 199.919 41.472 200.435 42.263 200.765ZM116.524 313.31C116.847 314.379 117.482 315.118 119.387 315.429C118.059 314.476 117.668 313.475 116.485 313.349C116.525 312.474 116.153 311.754 115.459 311.278C113.378 309.858 111.688 308.05 110.115 306.115C109.753 305.668 109.294 305.055 108.131 305.658C110.759 308.517 113.437 311.122 116.524 313.31ZM75.251 112.837C77.107 105.264 82.354 99.528 85.579 92.771C83.869 91.789 82.687 92.635 81.495 92.985C78.876 93.762 76.423 94.89 73.472 93.821C71.587 93.13 70.082 94.268 68.939 96.115C67.229 98.886 66.72 102.279 64.551 104.71C62.538 106.975 62.382 109.464 62.636 112.196C62.763 113.586 63.017 115.015 62.294 116.454C60.066 113.897 60.086 107.344 62.509 104.35C64.678 101.647 65.626 98.526 66.457 95.308C66.848 93.811 66.359 92.849 64.756 92.392C61.864 91.575 59.001 90.642 56.128 89.757C53.754 89.028 52.836 89.767 52.904 92.333C52.923 93.189 53.51 94.404 52.66 94.842C51.116 95.629 51.634 96.854 51.546 97.982C51.477 98.944 51.849 99.955 51.194 100.889C51.214 98.594 50.578 96.446 50.041 94.278C49.513 92.139 49.23 89.961 46.289 89.63C44.217 89.407 42.615 86.451 40.192 88.736C39.429 87.803 38.726 87.151 37.641 86.762C35.472 85.994 33.997 84.351 33.459 82.086C33.137 80.725 32.57 79.49 31.954 78.265C31.417 77.196 30.665 76.185 29.345 76.894C28.183 77.526 28.544 78.644 28.984 79.694C29.385 80.647 30.45 81.435 29.883 82.786C28.505 82.193 28.662 79.733 26.61 80.336C25.212 80.744 23.727 81.065 22.515 81.804C20.981 82.737 20.659 85.265 21.597 86.714C21.089 87.064 20.258 86.374 19.848 87.365C21.284 89.397 24.03 90.574 24.499 93.403C22.115 92.411 20.903 90.049 18.46 89.028C20.766 91.867 20.268 95.765 22.105 98.536C24.372 101.929 28.007 104.155 31.27 106.907C31.427 106.372 31.622 106.071 31.544 105.935C30.753 104.632 29.912 103.349 29.082 102.065C28.759 101.56 29.502 97.34 29.971 97.068C30.489 96.767 30.958 97 31.28 97.369C31.749 97.914 32.189 98.507 32.531 99.139C35.453 104.622 35.716 110.786 36.948 116.697C37.827 120.887 38.521 125.117 39.205 129.346C39.889 133.575 43.084 136.365 45.048 139.846C46.924 143.171 49.269 144.658 53.09 143.978C54.213 143.783 54.751 143.453 55.142 142.364C55.708 140.789 56.568 139.311 57.301 137.794C57.536 137.862 57.77 137.921 58.005 137.989C57.233 140.565 55.757 143.18 58.024 145.572C60.242 145.728 61.464 143.025 63.799 143.394C64.102 144.289 62.49 144.055 63.271 145.242C67.502 144.337 71.616 141.965 76.804 142.549C73.326 145.125 69.114 144.405 65.685 147.186C78.544 147.886 88.901 143.472 98.438 135.519C93.113 133.964 88.549 135.967 83.664 137.979C84.172 135.947 85.188 135.568 86.107 135.072C90.67 132.564 95.77 132.826 100.636 132.807C107.896 132.778 114.795 131.164 121.733 129.521C122.329 129.375 122.837 129.103 122.905 128.461C122.983 127.8 122.475 127.44 121.987 127.149C120.472 126.225 118.889 126.283 117.296 126.896C116.055 127.372 114.815 127.868 112.978 128.587C117.111 124.815 117.111 124.815 113.554 120.362C114.043 118.943 115.948 117.572 114.668 115.919C113.31 114.169 111.356 114.967 109.294 115.919C110.095 114.053 111.649 113.625 112.606 112.604C113.056 112.118 113.593 111.642 113.144 110.932C112.714 110.251 112.049 110.349 111.404 110.63C106.968 112.575 102.698 114.782 98.868 117.825C96.542 119.672 93.904 121.14 90.885 123.114C91.5 121.267 92.37 120.46 93.23 119.818C98.184 116.094 103.197 112.449 109.02 110.115C112.831 108.579 114.228 105.196 112.294 102.192C110.74 103.358 110.417 103.465 110.027 103.057C109.548 102.299 111.062 101.832 110.124 101.064C107.574 102.201 106.568 105.137 103.832 106.635C103.92 103.524 106.929 102.454 107.486 99.965C105.571 99.333 103.832 98.925 102.161 100.383C100.148 102.133 98.106 103.854 96.005 105.507C95.194 106.149 94.422 107.053 93.103 106.907C93.21 105.264 94.441 104.583 95.389 103.786C96.513 102.833 97.627 101.89 98.379 100.626C99.356 98.993 98.809 97.632 96.923 97.515C95.125 97.408 94.178 96.387 93.171 95.201C91.579 93.325 90.855 93.354 89.458 95.337C88.628 96.504 87.914 97.758 86.351 98.624C86.605 96.018 89.194 94.774 88.931 92.304C88.501 92.343 88.247 92.294 88.198 92.372C83.889 99.178 79.57 106.003 75.251 112.837ZM64.327 210.536C65.401 208.562 66.857 206.978 67.209 204.674C67.463 203.03 68.802 201.874 70.414 200.989C73.941 199.074 77.918 198.305 81.456 196.507C86.468 193.96 91.256 194.086 95.956 197.11C96.962 197.751 97.901 198.51 98.956 199.278C100.754 197.897 101.242 196.079 100.998 193.94C100.783 191.996 99.298 191.578 97.773 191.15C96.992 190.926 96.239 190.625 95.487 190.324C92.448 189.099 89.448 189.108 86.556 190.693C84.895 191.607 83.175 191.86 81.368 191.403C79.003 190.8 76.716 190.946 74.401 191.626C73.287 191.957 72.31 192.453 72.388 193.697C72.505 195.593 71.264 196.108 69.994 196.682C69.183 196.021 68.978 195.262 68.88 194.436C68.802 193.814 68.43 193.435 67.795 193.289C65.362 192.715 61.62 195.661 61.737 198.189C61.815 199.9 62.099 201.601 62.304 203.4C60.985 203.342 60.907 202.418 60.565 201.737C59.832 200.279 58.952 198.937 57.702 197.858C56.646 196.944 55.484 196.458 54.125 197.129C52.787 197.79 53.656 198.986 53.559 199.949C52.865 200.124 52.337 198.967 51.585 199.774C51.311 201.115 52.845 202.068 52.572 203.711C50.647 202.204 50.119 199.803 48.038 198.704C46.474 199.618 44.911 200.503 43.807 202.117C42.967 203.342 41.735 203.993 40.084 203.974C38.638 203.954 36.918 204.11 36.039 205.305C34.27 207.707 31.544 208.903 29.492 210.915C28.789 211.605 27.997 212.257 28.662 213.394C29.863 215.436 28.789 217.808 30.108 219.957C27.45 220.2 26.61 218.392 25.378 217.225C23.6 215.543 22.535 215.533 20.893 217.342C18.968 219.461 19.34 221.872 20.239 224.186C21.001 226.16 20.805 227.647 18.929 228.755C17.6 229.543 17.835 230.389 18.812 231.254C19.535 231.896 20.424 232.392 21.04 233.121C22.408 234.725 23.414 234.18 24.558 232.858C26.17 230.992 28.232 229.98 30.753 230C31.681 230.01 32.56 229.903 33.195 229.144C34.3 227.842 35.755 227.55 37.368 227.579C38.13 227.589 39.117 227.949 39.488 226.918C39.781 226.111 39.048 225.615 38.618 225.042C37.485 223.535 36.117 222.135 35.882 220.093C37.319 219.694 37.504 220.851 37.973 221.474C39.869 224.001 41.599 226.685 44.12 228.649C47.432 231.235 49.963 234.472 52.269 237.924C52.796 238.721 53.383 239.518 52.689 240.529C51.428 239.887 51.428 239.887 51.057 239.246C48.966 235.639 46.543 232.411 42.752 230.292C39.527 228.493 36.987 228.503 34.104 230.865C33.215 231.594 32.267 232.294 31.055 232.187C30.069 232.1 28.769 231.235 28.388 232.732C28.046 234.093 29.56 234.21 30.44 234.696C30.606 234.793 30.704 235.017 30.889 235.25C29.727 235.755 28.71 235.503 27.772 235.065C26.101 234.287 24.939 235.065 24.44 236.455C23.551 238.905 22.056 240.733 19.369 242.133C21.577 244.233 24.558 243.31 26.658 244.817C25.955 246.197 24.704 245.769 23.659 245.915C22.779 246.042 21.499 245.39 21.216 246.79C20.962 248.044 20.17 249.425 21.714 250.553C22.261 250.951 22.789 251.69 22.877 252.342C23.16 254.403 24.44 254.607 26.053 254.247C29.619 253.45 33.156 252.536 36.733 251.758C42.615 250.485 48.517 249.337 54.526 251.058C55.112 251.224 55.835 251.467 56.119 250.504C50.686 246.246 45.126 242.269 37.436 242.396C38.697 240.004 40.573 239.936 41.892 240.48C44.716 241.628 47.823 241.91 50.5 243.514C55.102 246.285 59.451 249.386 63.476 252.935C65.675 254.869 68.176 256.23 71.362 256.619C71.977 251.982 66.33 252.157 65.694 248.453C68.831 249.6 70.707 252.701 74.254 253.226C73.805 251.894 73.463 250.854 73.101 249.794C74.41 249.911 74.87 251.749 76.228 251.379C77.078 250.805 75.886 249.794 76.922 249.415C78.573 249.785 78.641 251.807 80.078 252.604C80.967 251.214 79.951 249.639 80.83 248.132C82.452 249.464 81.622 251.642 83.029 253.226C84.289 249.707 83.674 246.236 84.66 243.028C85.364 246.965 86.937 250.776 85.022 255.346C87.406 254.228 87.748 252.799 88.286 251.457C89.702 247.879 89.282 244.117 89.546 240.422C89.751 237.612 90.259 234.842 89.419 232.003C87.455 225.333 87.211 218.46 87.308 211.567C87.338 209.603 87.885 207.872 90.113 206.997C90.631 208.883 88.813 210.099 89.331 211.46C90.445 214.425 90.074 217.526 90.504 220.54C90.719 222.047 91.608 222.553 93.113 222.232C97.138 221.367 101.643 213.744 100.363 209.875C100.265 209.574 100.177 209.233 99.982 208.99C98.565 207.162 97.226 205.257 95.38 203.905C94.451 204.362 95.067 205.646 94.002 205.869C92.702 205.296 92.819 204.362 93.23 203.254C93.914 201.417 93.152 200.376 91.237 200.376C89.634 200.376 88.354 199.803 87.387 198.626C86.048 197.012 84.416 197.012 82.755 197.771C79.658 199.2 76.492 200.435 73.297 201.63C70.942 202.515 68.479 203.478 68.724 206.783C68.753 207.211 68.43 207.736 68.137 208.096C66.085 210.585 65.88 213.346 66.76 216.321C66.935 216.924 67.072 217.604 66.261 218.119C65.265 217.73 64.864 216.904 64.825 215.874C64.717 213.375 62.978 212.189 60.975 211.343C59.245 210.604 58.122 211.625 58.395 213.492C58.513 214.308 59.373 215.076 58.522 215.99C57.115 216 56.412 215.174 55.904 213.949C55.034 211.858 50.803 210.351 48.898 211.508C47.813 212.169 46.426 213.151 47.168 214.59C49.113 218.353 49.337 222.718 51.575 226.374C52.132 227.278 53.031 228.24 52.484 229.611C50.539 226.325 48.292 223.078 47.237 219.49C45.576 213.812 41.374 216.924 38.257 216.272C37.231 216.058 36.136 215.776 35.462 217.011C35.413 217.108 35.218 217.137 35.091 217.196C34.886 214.96 35.54 213.851 37.817 213.093C39.175 212.636 40.397 212.053 41.257 210.925C42.175 209.729 43.436 209.379 44.823 209.107C51.38 207.814 57.79 208.455 64.327 210.536ZM126.726 245.799C124.459 246.382 123.882 248.035 123.55 249.512C122.934 252.254 121.166 253.751 118.918 255.083C116.837 256.318 114.453 256.989 112.636 258.729C109.714 261.519 108.151 264.922 107.085 268.762C105.63 274.022 105.991 279.505 104.731 284.794C104.135 287.303 104.33 290.054 105.053 292.65C106.45 289.578 106.431 286.155 107.867 283.161C110.916 276.832 114.004 270.532 117.003 264.193C117.336 263.483 117.678 263.007 118.391 263.299C119.26 263.649 118.918 264.446 118.576 264.942C116.319 268.16 115.733 272.155 113.603 275.412C110.359 280.371 108.434 285.805 107.457 291.6C107.252 292.815 106.724 294.011 107.203 295.294C108.541 295.207 108.6 294.244 108.893 293.428C109.587 291.483 109.909 289.412 111.121 287.633C115.841 280.711 120.687 273.925 123.403 265.807C125.563 259.361 126.667 252.867 126.726 245.799ZM67.727 257.903C67.238 258.924 67.61 259.4 67.854 259.896C70.991 266.419 75.006 272.369 79.55 278.008C82.589 281.79 85.96 285.222 89.448 288.557C90.113 289.199 90.924 289.899 92.35 289.043C91.09 285.582 89.204 282.315 88.041 278.767C86.918 275.344 85.227 272.117 83.781 268.801C84.055 268.685 84.328 268.558 84.602 268.442C85.628 269.91 86.683 271.368 87.348 273.069C89.654 278.922 91.881 284.814 94.969 290.317C96.396 292.854 98.086 295.158 100.734 296.889C100.949 295.897 100.519 295.586 100.275 295.187C98.203 291.843 95.389 288.897 94.06 285.154C92.194 279.885 89.683 274.926 87.269 269.919C86.009 267.294 84.895 264.708 85.755 261.597C86.087 260.392 86.771 259.011 86.097 257.514C84.885 257.183 83.644 256.901 82.306 257.358C81.426 258.855 82.012 261.072 80.048 261.937C80.312 264.018 82.951 264.358 83.156 266.614C80.39 265.797 78.798 263.892 77.488 261.908C74.997 258.146 70.834 259.517 67.727 257.903ZM90.357 292.543C74.831 282.48 57.809 275.665 40.612 269.2C40.836 270.755 42.136 270.921 43.045 271.368C46.797 273.196 49.855 275.675 51.712 279.486C52.963 282.053 54.839 284.201 56.617 286.399C58.61 288.868 61.297 290.628 64.229 291.337C69.368 292.572 74.704 292.193 79.97 292.125C80.41 292.115 80.986 292.242 81.201 291.396C74.147 287.692 66.066 285.951 59.47 281.255C59.627 280.886 59.783 280.517 59.939 280.137C69.828 284.911 79.892 289.228 90.357 292.543ZM4.62398 108.949C4.24298 110.524 5.11298 111.68 5.83598 112.73C9.41198 117.961 11.318 124.028 12.265 129.958C13.663 138.747 16.506 146.33 23.434 152.174C23.629 151.707 23.541 151.299 23.297 150.822C21.216 146.7 19.144 142.568 17.131 138.407C16.535 137.182 15.744 135.889 16.897 133.76C20.747 140.011 21.958 147.099 26.766 152.193C21.489 136.725 14.2 122.268 4.62398 108.949ZM66.447 90.554C66.173 89.212 65.548 88.454 64.737 88.221C62.46 87.56 61.112 85.819 59.666 84.215C58.132 82.514 56.304 82.242 54.36 83.097C50.588 84.75 47.168 84.419 43.885 81.901C42.244 80.637 40.28 79.996 38.149 80.414C37.162 80.608 35.795 80.492 35.531 81.755C35.238 83.146 36.439 83.865 37.426 84.575C38.071 85.042 38.824 85.012 39.537 84.915C42.673 84.478 45.468 85.226 47.989 87.142C49.377 88.201 50.891 88.474 52.533 87.647C55.024 86.393 57.36 86.869 59.715 88.211C61.698 89.349 63.75 90.496 66.447 90.554ZM35.13 120.333C35.306 119.118 35.345 118.243 35.062 117.28C32.756 109.551 25.378 106.003 20.825 100.13C20.18 99.294 19.193 99.693 18.392 100.218C17.845 100.578 17.004 101.219 17.532 101.676C19.027 102.95 18.646 104.797 19.281 106.304C19.887 107.733 20.542 108.628 22.134 109.182C25.779 110.455 28.886 112.624 31.29 115.715C32.443 117.212 33.703 118.642 35.13 120.333ZM47.852 153.019C48.214 153.574 48.136 154.39 47.862 155.508C47.051 158.775 45.839 162.003 45.39 165.289C44.501 171.764 44.227 178.326 44.393 184.869C44.481 188.321 45.282 191.743 46.826 195.321C47.285 194.251 47.266 193.61 47.09 192.987C45.849 188.69 46.211 184.199 45.429 179.824C44.344 173.747 46.787 167.885 47.667 161.925C47.979 159.815 49.269 158.046 51.145 156.908C53.686 155.362 54.907 153.039 55.484 150.287C52.005 148.042 49.474 148.78 47.852 153.019ZM96.777 141.1C100.119 140.799 103.47 141.032 106.822 141.129C108.766 141.187 110.74 141.343 112.596 140.614C113.544 140.244 115.069 139.758 114.482 138.592C113.749 137.133 114.101 134.508 111.365 134.625C106.284 134.839 101.77 136.676 97.627 139.515C97.197 139.817 96.65 140.118 96.777 141.1ZM81.514 284.036C81.807 283.025 81.172 282.617 80.713 282.062C74.547 274.528 68.87 266.692 65.03 257.679C64.463 256.347 63.603 255.2 62.216 254.587C61.825 255.054 61.786 255.453 62.001 255.832C65.597 262.142 68.04 269.064 72.456 274.946C74.254 277.337 76.287 279.544 77.899 282.082C78.632 283.249 79.921 284.065 81.514 284.036ZM12.617 161.76C12.9 163.043 13.311 163.432 13.799 163.743C17.288 166.037 20.082 168.905 22.115 172.639C22.916 174.107 24.196 175.73 26.531 176.246C25.447 174.369 23.6 173.485 23.111 171.015C27.147 173.494 29.336 177.403 33.225 179.172C27.333 172.464 21.187 166.076 12.617 161.76ZM146.21 332.89C153.968 337.81 173.774 345.568 176.403 344.664C165.84 341.212 156.44 336.011 146.21 332.89ZM118.958 113.761C118.762 115.443 117.834 116.435 117.101 117.572C115.977 119.332 117.541 122.754 119.583 122.832C121.254 122.89 122.26 123.619 123.257 124.747C123.912 125.486 124.703 126.526 125.846 124.98C123.56 121.335 120.922 117.864 118.958 113.761ZM127.517 312.542C130.556 315.517 143.317 319.571 146.766 318.53C139.829 316.965 134.074 313.572 127.517 312.542ZM112.753 306.349C114.267 309.45 123.335 312.94 127.029 311.803C121.772 310.811 117.883 307.408 112.753 306.349ZM25.124 190.236C28.222 194.485 33.078 196.322 35.247 194.067C32.14 192.696 29.091 191.335 26.013 190.003C25.847 189.925 25.574 190.11 25.124 190.236ZM87.865 196.351C88.852 197.625 89.429 198.792 90.846 198.665C94.051 198.383 95.614 200.405 97.148 202.7C97.783 203.643 98.008 205.199 99.689 205.208C99.474 201.008 92.829 196.244 87.865 196.351ZM39.576 214.872C41.462 214.697 43.201 213.997 45.009 213.618C45.742 213.462 46.66 212.568 46.015 211.537C45.419 210.594 44.354 210.886 43.621 211.343C42.136 212.267 41.071 213.725 39.576 214.872ZM186.75 348.621C189.115 350.653 193.825 352.179 195.496 351.625C192.789 349.885 189.633 349.651 186.75 348.621ZM127.634 321.71C127.39 321.224 127.077 321.136 126.765 321.233C126.481 321.321 126.472 321.593 126.687 321.768C126.95 321.972 127.263 322.04 127.634 321.71Z" fill="#FFD9C3"/>
<path d="M200.303 10.074C200.342 10.122 200.391 10.171 200.43 10.229C200.381 10.268 200.323 10.346 200.274 10.336C200.225 10.326 200.186 10.249 200.147 10.19C200.196 10.161 200.244 10.122 200.303 10.074Z" fill="#6F6C6A"/>
<path d="M34.319 235.989C34.045 236.164 33.889 236.358 33.733 236.358C33.557 236.349 33.391 236.164 33.225 236.057C33.371 235.931 33.498 235.707 33.655 235.688C33.821 235.658 34.006 235.833 34.319 235.989Z" fill="#6F6C6A"/>
<path d="M217.598 16.442L213.729 16.335L213.739 15.985C214.012 15.994 214.198 15.936 214.305 15.81C214.403 15.683 214.462 15.518 214.471 15.304L214.852 2.07201C214.862 1.85801 214.813 1.68301 214.725 1.55701C214.637 1.43101 214.452 1.362 214.178 1.353L214.188 1.00301L226.168 1.343C226.5 1.353 226.754 1.33299 226.93 1.27499C227.106 1.21699 227.203 1.10001 227.203 0.906006L227.555 0.914993L227.457 4.18201L227.106 4.172C227.125 3.589 226.793 3.28701 226.109 3.26801L217.285 3.015L216.934 15.255C216.924 15.528 216.973 15.732 217.061 15.868C217.149 16.004 217.334 16.082 217.608 16.092L217.598 16.442Z" fill="#FFD9C3"/>
<path d="M245.094 5.98003C246.208 6.17503 247.185 6.51504 248.026 7.01104C248.866 7.50704 249.55 8.10003 250.087 8.79003C250.625 9.48003 250.996 10.249 251.192 11.094C251.397 11.94 251.416 12.805 251.26 13.71C251.104 14.614 250.791 15.421 250.322 16.15C249.853 16.879 249.247 17.482 248.514 17.958C247.781 18.435 246.931 18.755 245.983 18.921C245.036 19.086 244 19.076 242.886 18.882C241.772 18.687 240.785 18.367 239.945 17.9C239.105 17.433 238.411 16.85 237.883 16.16C237.356 15.469 236.974 14.701 236.779 13.855C236.584 13.01 236.554 12.144 236.711 11.24C236.867 10.336 237.18 9.52904 237.649 8.80004C238.118 8.07104 238.723 7.46804 239.456 6.99204C240.189 6.51504 241.039 6.18504 241.997 5.99004C242.935 5.79604 243.98 5.79603 245.094 5.98003ZM244.821 7.59403C243.99 7.45803 243.228 7.44904 242.515 7.58504C241.811 7.72104 241.186 7.97403 240.648 8.33303C240.111 8.69303 239.662 9.15003 239.31 9.70403C238.958 10.258 238.723 10.871 238.606 11.542C238.489 12.232 238.499 12.893 238.655 13.535C238.802 14.167 239.075 14.75 239.456 15.265C239.847 15.78 240.345 16.228 240.971 16.597C241.596 16.967 242.319 17.229 243.14 17.365C243.971 17.501 244.733 17.501 245.446 17.355C246.159 17.21 246.775 16.957 247.312 16.597C247.85 16.237 248.299 15.78 248.651 15.226C249.003 14.672 249.237 14.05 249.355 13.36C249.472 12.689 249.452 12.037 249.306 11.396C249.159 10.764 248.886 10.18 248.504 9.66503C248.114 9.15003 247.615 8.70304 246.99 8.34304C246.374 7.98304 245.642 7.73003 244.821 7.59403Z" fill="#FFD9C3"/>
<path d="M272.835 16.937C272.903 16.84 272.952 16.772 272.962 16.733L273.04 16.481C273.079 16.374 273.001 16.189 272.815 15.936C272.63 15.683 272.366 15.401 272.024 15.1C271.682 14.799 271.281 14.507 270.822 14.235C270.373 13.962 269.884 13.739 269.386 13.583C268.584 13.331 267.832 13.224 267.119 13.272C266.405 13.321 265.761 13.496 265.174 13.787C264.588 14.079 264.09 14.478 263.67 14.983C263.249 15.479 262.937 16.062 262.731 16.704C262.526 17.356 262.448 17.987 262.507 18.619C262.565 19.251 262.741 19.835 263.054 20.369C263.367 20.904 263.777 21.381 264.305 21.808C264.823 22.226 265.448 22.557 266.181 22.781C266.914 23.004 267.578 23.14 268.194 23.169C268.809 23.199 269.347 23.169 269.806 23.082C270.265 22.994 270.627 22.878 270.9 22.722C271.174 22.576 271.33 22.44 271.359 22.333C271.428 22.129 271.447 21.935 271.428 21.74L271.76 21.662L272.894 24.842L272.512 24.968C272.395 24.812 272.307 24.706 272.249 24.657C272.18 24.608 272.122 24.569 272.063 24.55C271.897 24.501 271.633 24.521 271.291 24.608C270.939 24.706 270.5 24.783 269.962 24.861C269.425 24.939 268.809 24.958 268.115 24.919C267.422 24.881 266.62 24.725 265.731 24.443C264.783 24.142 263.933 23.733 263.181 23.218C262.429 22.703 261.833 22.09 261.393 21.361C260.943 20.642 260.67 19.835 260.572 18.94C260.465 18.046 260.572 17.103 260.894 16.101C261.217 15.1 261.676 14.274 262.292 13.603C262.907 12.942 263.611 12.436 264.422 12.106C265.233 11.775 266.093 11.59 267.021 11.571C267.949 11.551 268.887 11.687 269.845 11.989C270.646 12.242 271.291 12.494 271.78 12.757C272.268 13.019 272.767 13.331 273.255 13.719C273.587 13.962 273.851 14.186 274.056 14.371C274.262 14.556 274.428 14.672 274.564 14.711C274.711 14.76 274.897 14.701 275.112 14.546L275.415 14.76L273.128 17.19L272.835 16.937Z" fill="#FFD9C3"/>
<path d="M295.788 25.279C295.895 25.046 295.924 24.871 295.885 24.725C295.846 24.589 295.69 24.453 295.426 24.336L291.312 22.411L287.033 31.492C286.896 31.793 286.837 32.007 286.876 32.143C286.906 32.279 287.072 32.406 287.355 32.542L287.209 32.863L284.131 31.424L284.277 31.103C284.561 31.239 284.766 31.268 284.893 31.21C285.02 31.151 285.147 30.967 285.293 30.675L289.573 21.594L285.46 19.669C285.196 19.543 284.99 19.514 284.863 19.563C284.736 19.611 284.609 19.757 284.502 19.99L284.179 19.844L285.479 17.103L285.801 17.249C285.694 17.482 285.665 17.657 285.704 17.803C285.743 17.939 285.899 18.075 286.163 18.192L296.139 22.849C296.403 22.975 296.608 23.004 296.735 22.956C296.872 22.897 296.99 22.761 297.097 22.528L297.419 22.674L296.12 25.415L295.788 25.279Z" fill="#FFD9C3"/>
<path d="M307.015 30.1889C307.191 29.9069 307.279 29.7029 307.259 29.5669C307.239 29.4309 307.122 29.2849 306.888 29.1389L307.083 28.8469L317.011 35.2149C317.255 35.3709 317.45 35.4289 317.587 35.3999C317.724 35.3709 317.871 35.2349 318.007 35.0309L318.301 35.2249L316.649 37.7719L316.356 37.5779C316.493 37.3639 316.551 37.1889 316.522 37.0429C316.503 36.8969 316.366 36.7509 316.122 36.5959L308.383 31.6279L306.321 34.8169L311.764 38.3069C312.008 38.4619 312.203 38.5209 312.34 38.4919C312.477 38.4529 312.623 38.3259 312.76 38.1119L313.053 38.3069L311.402 40.8539L311.109 40.6599C311.246 40.4459 311.304 40.2709 311.275 40.1249C311.246 39.9789 311.119 39.8329 310.865 39.6779L305.422 36.1869L303.165 39.6679L311.168 44.8109C311.412 44.9669 311.607 45.0249 311.744 44.9959C311.881 44.9569 312.027 44.8299 312.164 44.6259L312.457 44.8109L310.855 47.2899L310.562 47.0959C310.698 46.8819 310.747 46.7169 310.708 46.5999C310.669 46.4829 310.523 46.3469 310.278 46.1819L300.077 39.6389L300.273 39.3469C300.507 39.4929 300.683 39.5509 300.82 39.5029C300.957 39.4639 301.103 39.2989 301.289 39.0259L307.015 30.1889Z" fill="#FFD9C3"/>
<path d="M327.847 44.7721C328.062 44.5191 328.179 44.3251 328.179 44.1891C328.179 44.0531 328.072 43.8781 327.827 43.6741L328.062 43.4111L334.189 48.7101C335.429 49.7791 336.113 50.7611 336.24 51.6461C336.368 52.5311 336.055 53.4151 335.283 54.3001C335.117 54.4941 334.921 54.6601 334.697 54.8151C334.472 54.9711 334.228 55.0781 333.954 55.1561C333.68 55.2331 333.397 55.2431 333.094 55.1851C332.791 55.1261 332.479 54.9901 332.156 54.7671L332.117 54.8151C332.586 55.3991 332.811 56.0601 332.772 56.7791C332.742 57.4991 332.43 58.1891 331.853 58.8501C331.003 59.8221 330.104 60.2791 329.156 60.2211C328.209 60.1631 327.065 59.5691 325.736 58.4221L319.59 53.1041L319.825 52.8421C320.059 53.0461 320.245 53.1331 320.382 53.1141C320.519 53.0941 320.694 52.9581 320.909 52.7061L327.847 44.7721ZM327.007 57.3331C327.417 57.6931 327.779 57.9561 328.091 58.1211C328.404 58.2861 328.678 58.3641 328.941 58.3541C329.195 58.3441 329.44 58.2571 329.674 58.1011C329.909 57.9361 330.153 57.7131 330.407 57.4211C330.896 56.8671 331.111 56.3221 331.042 55.8071C330.974 55.2921 330.563 54.6991 329.791 54.0381L325.541 50.3631L322.698 53.6191L327.007 57.3331ZM330.69 52.6381C331.12 53.0071 331.482 53.2791 331.795 53.4441C332.107 53.6101 332.381 53.6971 332.635 53.7071C332.889 53.7171 333.114 53.6491 333.309 53.5131C333.505 53.3761 333.7 53.1921 333.895 52.9781C334.296 52.5211 334.452 52.0441 334.384 51.5491C334.316 51.0531 333.905 50.4791 333.153 49.8281L329.078 46.3081L326.616 49.1281L330.69 52.6381Z" fill="#FFD9C3"/>
<path d="M351.406 65.8209C352.148 66.6759 352.676 67.5609 353.008 68.4749C353.33 69.3889 353.487 70.2829 353.457 71.1579C353.428 72.0329 353.223 72.8599 352.842 73.6369C352.461 74.4149 351.923 75.1059 351.22 75.6989C350.526 76.2919 349.764 76.7289 348.933 76.9919C348.103 77.2539 347.253 77.3419 346.383 77.2349C345.513 77.1369 344.654 76.8459 343.823 76.3789C342.983 75.9029 342.191 75.2419 341.458 74.3859C340.716 73.5309 340.169 72.6559 339.827 71.7609C339.485 70.8669 339.318 69.9819 339.348 69.1069C339.377 68.2319 339.582 67.4059 339.963 66.6279C340.344 65.8499 340.882 65.1599 341.585 64.5669C342.279 63.9739 343.041 63.5359 343.872 63.2739C344.702 63.0109 345.553 62.9239 346.422 63.0299C347.292 63.1279 348.161 63.4099 349.021 63.8569C349.862 64.3139 350.663 64.9649 351.406 65.8209ZM350.165 66.8899C349.617 66.2579 349.021 65.7719 348.396 65.4319C347.761 65.0919 347.126 64.8869 346.481 64.8289C345.836 64.7709 345.201 64.8389 344.575 65.0429C343.95 65.2469 343.383 65.5679 342.865 66.0149C342.338 66.4719 341.918 66.9969 341.624 67.5799C341.331 68.1639 341.165 68.7859 341.136 69.4279C341.097 70.0689 341.204 70.7399 341.449 71.4109C341.693 72.0919 342.084 72.7429 342.631 73.3749C343.178 74.0069 343.774 74.4929 344.419 74.8329C345.064 75.1739 345.699 75.3679 346.354 75.4259C346.999 75.4849 347.634 75.4169 348.259 75.2119C348.885 75.0079 349.461 74.6779 349.998 74.2209C350.516 73.7739 350.917 73.2579 351.21 72.6749C351.503 72.0919 351.669 71.4789 351.699 70.8279C351.738 70.1859 351.62 69.5249 351.376 68.8539C351.112 68.1739 350.712 67.5219 350.165 66.8899Z" fill="#FFD9C3"/>
<path d="M360.102 100.13L358.373 97.418L358.666 97.233C358.832 97.496 358.988 97.642 359.135 97.681C359.281 97.71 359.496 97.642 359.78 97.467L367.88 92.362L355.314 90.506C355.168 90.486 355.041 90.467 354.943 90.447C354.845 90.428 354.757 90.437 354.679 90.496C354.601 90.544 354.562 90.612 354.571 90.7C354.581 90.787 354.689 90.992 354.894 91.322L354.601 91.507L352.5 88.201L352.793 88.017C352.959 88.279 353.116 88.425 353.262 88.464C353.409 88.493 353.624 88.425 353.907 88.25L362.818 82.631C363.102 82.456 363.258 82.29 363.287 82.144C363.317 81.999 363.258 81.794 363.082 81.532L363.375 81.347L365.105 84.06L364.812 84.244C364.646 83.982 364.489 83.836 364.343 83.797C364.196 83.758 363.981 83.836 363.698 84.011L355.92 88.911L367.997 90.661C368.339 90.7 368.544 90.7 368.593 90.671C368.662 90.632 368.681 90.554 368.671 90.437C368.652 90.321 368.564 90.136 368.398 89.874L368.691 89.689L370.977 93.286L370.684 93.471C370.518 93.208 370.362 93.062 370.205 93.024C370.049 92.985 369.844 93.062 369.561 93.237L360.649 98.857C360.366 99.032 360.209 99.197 360.18 99.343C360.151 99.489 360.21 99.693 360.385 99.956L360.102 100.13ZM369.981 81.96C369.307 82.543 368.984 83.175 369.004 83.856C369.023 84.536 369.248 85.217 369.688 85.907C370.088 86.529 370.606 86.957 371.251 87.19C371.896 87.414 372.57 87.404 373.283 87.132L373.879 88.065C372.678 88.639 371.613 88.746 370.684 88.367C369.766 87.987 368.965 87.268 368.281 86.199C367.685 85.265 367.499 84.312 367.733 83.35C367.968 82.387 368.505 81.59 369.355 80.968L369.981 81.96Z" fill="#FFD9C3"/>
<path d="M373.059 123.785L384.041 124.747C384.315 124.757 384.491 124.757 384.559 124.728C384.647 124.699 384.716 124.621 384.755 124.494C384.794 124.368 384.784 124.174 384.716 123.911L384.989 123.824L386.562 128.529L386.23 128.636C386.181 128.49 386.113 128.354 386.015 128.228C385.927 128.101 385.81 128.062 385.683 128.111C385.595 128.14 385.507 128.199 385.429 128.276C385.351 128.354 385.273 128.422 385.194 128.49L377.172 136.074L377.729 137.736L374.475 138.815C374.202 138.903 374.026 139.01 373.958 139.126C373.889 139.243 373.909 139.447 374.006 139.739L373.674 139.846L372.638 136.744L372.971 136.637C373.068 136.929 373.176 137.104 373.303 137.162C373.43 137.221 373.625 137.192 373.899 137.104L375.648 136.521L371.583 124.407L369.834 124.99C369.551 125.087 369.385 125.185 369.316 125.301C369.248 125.418 369.267 125.622 369.365 125.914L369.033 126.021L367.997 122.919L368.329 122.812C368.427 123.104 368.535 123.279 368.662 123.337C368.779 123.386 368.984 123.367 369.258 123.279L372.511 122.2L373.059 123.785ZM373.616 125.447L376.576 134.275L384.862 126.449L373.616 125.447Z" fill="#FFD9C3"/>
<path d="M392.494 151.639C392.689 152.747 392.699 153.778 392.513 154.731C392.327 155.683 391.995 156.529 391.516 157.258C391.038 157.997 390.442 158.6 389.709 159.076C388.976 159.553 388.165 159.864 387.256 160.029C386.347 160.194 385.478 160.175 384.628 159.981C383.778 159.786 383.006 159.426 382.302 158.892C381.599 158.367 381.012 157.686 380.534 156.85C380.055 156.014 379.723 155.042 379.517 153.933C379.322 152.825 379.302 151.794 379.459 150.851C379.615 149.908 379.938 149.062 380.407 148.324C380.876 147.585 381.481 146.982 382.214 146.506C382.947 146.029 383.758 145.718 384.667 145.553C385.576 145.387 386.445 145.407 387.295 145.601C388.145 145.796 388.917 146.155 389.621 146.69C390.324 147.225 390.92 147.896 391.428 148.722C391.937 149.558 392.288 150.521 392.494 151.639ZM390.872 151.921C390.725 151.094 390.471 150.375 390.1 149.762C389.728 149.15 389.289 148.644 388.761 148.265C388.233 147.886 387.657 147.624 387.012 147.478C386.367 147.332 385.712 147.322 385.038 147.439C384.344 147.565 383.719 147.799 383.172 148.158C382.615 148.508 382.165 148.956 381.804 149.5C381.442 150.035 381.188 150.657 381.051 151.367C380.915 152.076 380.915 152.835 381.061 153.661C381.208 154.487 381.472 155.207 381.853 155.819C382.234 156.432 382.683 156.928 383.211 157.317C383.739 157.696 384.315 157.958 384.96 158.104C385.605 158.25 386.269 158.26 386.963 158.133C387.637 158.017 388.253 157.774 388.8 157.424C389.347 157.074 389.806 156.626 390.168 156.082C390.53 155.547 390.774 154.925 390.911 154.215C391.028 153.506 391.018 152.747 390.872 151.921Z" fill="#FFD9C3"/>
<path d="M382.625 183.78C382.634 184.092 382.693 184.296 382.801 184.403C382.908 184.51 383.133 184.558 383.465 184.549L392.669 184.335V184.276L382.781 179.23L392.415 173.718V173.66L383.211 173.874C382.879 173.883 382.664 173.942 382.556 174.049C382.449 174.155 382.4 174.369 382.41 174.68L382.058 174.69L381.98 171.482L382.331 171.472C382.341 171.783 382.4 171.987 382.507 172.094C382.615 172.201 382.84 172.25 383.172 172.24L393.725 171.987C394.057 171.978 394.272 171.919 394.379 171.812C394.487 171.706 394.536 171.492 394.526 171.18L394.878 171.171L394.966 175.079L394.614 175.089C394.604 174.622 394.487 174.389 394.272 174.399C394.233 174.399 394.106 174.457 393.901 174.583L386.005 179.143L394.106 183.324C394.321 183.44 394.448 183.489 394.487 183.489C394.702 183.479 394.8 183.246 394.79 182.779L395.142 182.769L395.239 186.736L394.888 186.746C394.878 186.474 394.819 186.299 394.712 186.211C394.604 186.124 394.379 186.085 394.047 186.094L383.494 186.347C383.162 186.357 382.947 186.405 382.84 186.493C382.732 186.58 382.683 186.765 382.693 187.037L382.341 187.047L382.263 183.78H382.625Z" fill="#FFD9C3"/>
<path d="M155.844 180.776H160.632V187.64C160.632 188.515 160.974 188.933 161.668 188.904V189.74H154.965V188.904C155.561 188.904 155.854 188.467 155.854 187.601V185.083H129.637V184.247C130.233 184.247 130.527 183.965 130.527 183.411V162.226C130.527 161.663 130.233 161.39 129.637 161.39V160.554H136.722V161.39C136.507 161.39 136.311 161.458 136.135 161.604C135.959 161.75 135.881 161.954 135.881 162.236V180.806H150.519V162.236C150.519 161.672 150.177 161.4 149.483 161.4V160.564H156.704V161.4C156.489 161.4 156.293 161.468 156.118 161.614C155.942 161.76 155.863 161.964 155.863 162.246V180.776H155.844Z" fill="#FFD9C3"/>
<path d="M177.507 166.076C177.507 165.824 177.389 165.649 177.155 165.542C176.92 165.435 176.676 165.376 176.432 165.376V164.54H191.02C192.212 164.54 193.229 164.676 194.089 164.958C194.948 165.24 195.671 165.619 196.248 166.106C196.824 166.592 197.254 167.136 197.538 167.758C197.821 168.381 197.958 169.032 197.958 169.722C197.958 170.286 197.86 170.801 197.675 171.288C197.489 171.774 197.245 172.201 196.952 172.59C196.658 172.979 196.326 173.329 195.965 173.64C195.603 173.951 195.242 174.204 194.86 174.389V174.437C195.3 174.622 195.74 174.875 196.17 175.186C196.61 175.497 197 175.867 197.342 176.304C197.684 176.742 197.968 177.237 198.183 177.801C198.398 178.365 198.515 178.968 198.515 179.619C198.515 180.368 198.378 181.068 198.095 181.719C197.811 182.371 197.372 182.944 196.756 183.45C196.15 183.946 195.349 184.344 194.362 184.636C193.375 184.928 192.193 185.083 190.825 185.083H176.422V184.247C176.676 184.247 176.911 184.189 177.145 184.082C177.38 183.975 177.497 183.79 177.497 183.547V166.076H177.507ZM190.366 172.649C191.118 172.649 191.822 172.493 192.476 172.182C193.131 171.871 193.463 171.229 193.463 170.267C193.463 169.771 193.365 169.372 193.18 169.081C192.994 168.789 192.76 168.556 192.476 168.381C192.193 168.206 191.87 168.099 191.489 168.05C191.118 168.001 190.737 167.982 190.366 167.982H182.021V172.649H190.366ZM190.268 181.613C191.704 181.613 192.691 181.379 193.219 180.913C193.747 180.446 194.02 179.794 194.02 178.949C194.02 177.986 193.678 177.267 192.984 176.8C192.291 176.333 191.138 176.1 189.516 176.1H182.011V181.603H190.268V181.613Z" fill="#FFD9C3"/>
<path d="M234.639 168.876C234.639 168.283 234.151 167.992 233.183 167.992H221.741V172.658H228.962C229.49 172.658 229.881 172.619 230.135 172.542C230.379 172.464 230.506 172.26 230.506 171.91H231.346V176.858H230.408C230.506 176.518 230.379 176.304 230.037 176.226C229.695 176.149 229.207 176.11 228.581 176.11H221.732V181.612H233.74C234.112 181.612 234.424 181.525 234.678 181.36C234.932 181.185 235.05 180.961 235.05 180.679H235.89V185.579H235.05C235.05 185.297 234.923 185.142 234.678 185.112C234.424 185.083 234.112 185.064 233.74 185.064H216.523V184.228C216.68 184.228 216.836 184.169 216.992 184.062C217.149 183.955 217.227 183.771 217.227 183.528V166.076C217.227 165.824 217.149 165.649 216.992 165.542C216.836 165.435 216.68 165.376 216.523 165.376V164.54H233.174C234.141 164.54 234.63 164.258 234.63 163.704H235.47V168.886H234.639V168.876Z" fill="#FFD9C3"/>
<path d="M258.413 184.228C258.569 184.228 258.725 184.169 258.882 184.063C259.038 183.956 259.116 183.771 259.116 183.528V167.992H253.019C252.765 167.992 252.53 168.05 252.315 168.176C252.1 168.303 251.983 168.507 251.983 168.779H251.143V163.412H251.983C251.983 163.85 252.091 164.142 252.315 164.297C252.53 164.453 252.765 164.531 253.019 164.531H269.718C269.972 164.531 270.207 164.453 270.421 164.297C270.636 164.142 270.754 163.85 270.754 163.412H271.594V168.779H270.754C270.754 168.497 270.646 168.293 270.421 168.176C270.197 168.06 269.972 167.992 269.718 167.992H263.621V183.528C263.621 183.994 263.904 184.228 264.461 184.228V185.064H258.413V184.228Z" fill="#FFD9C3"/>
<path d="M298.279 164.249C299.999 164.249 301.621 164.463 303.136 164.9C304.65 165.338 305.969 165.989 307.103 166.864C308.227 167.739 309.116 168.828 309.78 170.15C310.435 171.472 310.767 173.018 310.767 174.797C310.767 176.567 310.435 178.122 309.78 179.444C309.125 180.767 308.236 181.865 307.103 182.731C305.979 183.606 304.66 184.228 303.136 184.617C301.621 185.006 299.999 185.2 298.279 185.2C296.56 185.2 294.938 185.006 293.423 184.617C291.909 184.228 290.589 183.596 289.456 182.731C288.332 181.856 287.443 180.767 286.779 179.444C286.124 178.122 285.792 176.576 285.792 174.797C285.792 173.028 286.124 171.472 286.779 170.15C287.433 168.828 288.322 167.729 289.456 166.864C290.58 165.989 291.899 165.338 293.423 164.9C294.947 164.472 296.56 164.249 298.279 164.249ZM298.279 167.71C297.283 167.71 296.306 167.875 295.348 168.196C294.39 168.517 293.54 168.993 292.788 169.596C292.036 170.199 291.44 170.938 290.98 171.813C290.521 172.688 290.296 173.679 290.296 174.797C290.296 175.915 290.521 176.917 290.98 177.782C291.43 178.657 292.036 179.396 292.788 179.999C293.54 180.601 294.39 181.068 295.348 181.399C296.306 181.729 297.283 181.885 298.279 181.885C299.276 181.885 300.253 181.72 301.211 181.399C302.168 181.078 303.018 180.601 303.771 179.999C304.523 179.396 305.119 178.657 305.579 177.782C306.028 176.907 306.262 175.915 306.262 174.797C306.262 173.679 306.038 172.678 305.579 171.813C305.119 170.947 304.523 170.199 303.771 169.596C303.018 168.993 302.168 168.526 301.211 168.196C300.253 167.865 299.286 167.71 298.279 167.71Z" fill="#FFD9C3"/>
<path d="M332.244 183.528C332.244 183.994 332.537 184.228 333.133 184.228V185.064H326.987V184.228C327.486 184.228 327.74 183.994 327.74 183.528V166.076C327.74 165.61 327.486 165.376 326.987 165.376V164.54H333.133V165.376C332.537 165.376 332.244 165.61 332.244 166.076V173.679C333.309 172.804 334.404 171.929 335.527 171.044C336.651 170.16 337.667 169.343 338.576 168.594C339.485 167.846 340.237 167.214 340.823 166.708C341.419 166.193 341.713 165.872 341.713 165.756C341.713 165.6 341.625 165.474 341.458 165.386C341.283 165.289 341.126 165.25 340.97 165.25V164.55H348.709V165.386C348.337 165.513 347.771 165.872 347.018 166.456L339.182 172.756L346.588 181.904C346.96 182.371 347.37 182.847 347.81 183.324C348.25 183.81 348.689 184.111 349.119 184.238V185.074H342.182V184.238C342.524 184.238 342.699 184.14 342.699 183.956C342.699 183.829 342.631 183.664 342.484 183.44C342.348 183.226 342.074 182.876 341.664 182.41L335.899 175.41L332.244 178.307V183.528Z" fill="#FFD9C3"/>
<path d="M26.649 244.797C26.649 244.797 26.277 245.536 25.759 245.672C25.242 245.808 24.01 245.876 23.649 245.896C23.287 245.906 21.538 245.458 21.245 246.606C20.952 247.753 20.786 248.599 20.786 248.599C20.786 248.599 20.522 249.658 21.704 250.533C22.877 251.408 22.906 252.556 22.906 252.556C22.906 252.556 23.072 254.315 24.694 254.354C26.316 254.393 31.368 252.964 31.368 252.964L35.628 251.972L41.452 250.786C41.452 250.786 45.947 250.096 47.881 250.154C49.816 250.212 51.878 250.358 53.49 250.757C55.112 251.165 55.63 251.583 56.099 250.465C56.099 250.465 49.865 245.575 48.438 245.196C47.022 244.817 45.478 242.425 37.416 242.347C37.416 242.347 38.384 240.082 40.543 240.16C40.543 240.16 41.218 240.033 42.361 240.617C42.361 240.617 46.943 242.211 47.676 242.211C48.409 242.211 53.529 244.933 54.35 245.906C54.35 245.906 59.568 249.328 60.252 250.203C60.252 250.203 68.382 257.844 71.332 256.571C71.332 256.571 72.3 254.617 68.597 251.875C68.597 251.875 65.87 250.125 65.831 249.026L65.665 248.404C65.665 248.404 66.584 248.803 66.808 248.929C67.033 249.056 69.925 250.903 70.17 251.301C70.414 251.7 73.443 253.333 74.225 253.178C74.225 253.178 73.355 249.96 73.072 249.746C72.788 249.532 74.02 250.028 74.381 250.485C74.733 250.942 76.922 252.633 76.462 250.135C76.462 250.135 76.306 248.744 77.615 249.668C77.615 249.668 79.794 253.1 80.058 252.546C80.058 252.546 80.644 251.71 80.429 250.086C80.429 250.086 80.41 248.404 80.811 248.074C80.811 248.074 81.866 248.832 82.052 250.864C82.052 250.864 82.394 252.75 83.009 253.168C83.009 253.168 84.211 249.143 83.967 247.412C83.967 247.412 84.309 243.164 84.641 242.969C84.641 242.969 85.843 248.054 85.794 248.793C85.745 249.532 86.312 253.236 85.002 255.278C85.002 255.278 88.549 255.394 89.341 245.575C90.132 235.756 90.152 232.139 88.403 227.842C88.403 227.842 86.302 211.994 87.66 209.282C87.66 209.282 88.334 207.581 90.103 206.929C90.103 206.929 90.171 208.193 89.448 209.943C89.448 209.943 89.018 210.935 89.312 211.392C89.312 211.392 90.25 214.775 90.259 217.896C90.269 221.026 90.435 224.594 95.526 220.9C95.526 220.9 103.871 212.996 99.239 207.979C99.239 207.979 96.093 203.867 95.35 203.828C95.35 203.828 94.744 204.149 94.764 204.703C94.783 205.247 94.354 205.782 93.972 205.801C93.591 205.821 92.907 205.208 92.917 204.343C92.917 204.343 93.025 203.526 93.288 202.894C93.552 202.253 93.591 201.067 92.624 200.6C91.657 200.133 89.507 200.192 88.872 199.812C88.872 199.812 87.611 198.996 86.976 198.189C86.341 197.382 84.387 196.614 82.208 197.946C82.208 197.946 71.303 202.029 71.215 202.437C71.215 202.437 68.684 202.933 68.675 206.365C68.675 206.803 68.606 207.25 68.391 207.629C68.274 207.843 68.108 208.076 67.883 208.3C67.883 208.3 65.382 211.431 66.378 214.882C66.378 214.882 67.483 217.351 66.212 218.051C66.212 218.051 64.659 217.837 64.659 214.921C64.659 214.921 63.975 213.122 63.134 212.539C62.294 211.956 58.044 208.864 58.347 213.433C58.347 213.433 59.294 215.125 58.474 215.932C58.474 215.932 56.773 216.156 55.855 213.89C54.936 211.625 50.08 209.554 47.569 212.393C47.569 212.393 46.064 213.404 47.52 215.358C47.52 215.358 49.562 220.667 49.689 222.057C49.689 222.057 51.106 226.51 52.376 227.725C52.376 227.725 52.855 228.629 52.435 229.553C52.435 229.553 48.272 222.776 48.155 222.018C48.155 222.018 46.768 217.332 45.644 216.729C45.644 216.729 44.315 215.135 39.801 216.292C39.801 216.292 38.335 216.331 38.042 216.185C37.749 216.039 36.117 215.767 35.677 216.583C35.677 216.583 35.433 216.943 35.052 217.137C35.052 217.137 34.974 214.308 36.693 213.492C38.413 212.675 40.68 212.335 41.53 210.507C41.53 210.507 42.351 209.369 45.194 208.971C48.038 208.572 49.67 208.426 50.393 208.417C51.116 208.397 55.015 208.446 55.415 208.592C55.816 208.737 59.529 209.214 60.35 209.408C61.17 209.603 64.141 210.351 64.307 210.487C64.307 210.487 66.593 207.162 67.15 205.179C67.444 204.139 67.903 203.137 68.665 202.36C69.476 201.533 70.688 200.61 72.417 199.958C76.316 198.5 80.684 197.129 81.162 196.585C81.162 196.585 84.69 194.815 86.83 194.737C88.97 194.669 91.842 194.572 94.422 196.176C94.422 196.176 97.92 198.267 98.946 199.219C98.946 199.219 102.405 196.944 100.539 192.589C100.539 192.589 100.382 191.656 96.718 190.751C96.718 190.751 91.364 187.747 87.142 190.324C87.142 190.324 84.445 191.782 82.892 191.568C82.892 191.568 78.319 190.343 75.475 191.286C75.475 191.286 72.192 191.587 72.368 193.639C72.534 195.69 69.974 196.624 69.974 196.624C69.974 196.624 68.997 195.943 68.86 194.378C68.724 192.812 65.949 192.385 63.125 195.126C63.125 195.126 61.405 196.001 61.796 199.249L62.284 203.332C62.284 203.332 61.092 203.361 60.701 202.029C60.701 202.029 58.239 196.371 55.083 196.769C55.083 196.769 52.494 196.653 53.539 199.881C53.539 199.881 53.099 199.968 52.738 199.647C52.376 199.326 51.243 199.083 51.555 200.289C51.555 200.289 52.894 202.875 52.562 203.633C52.562 203.633 50.696 201.796 50.285 200.872C50.285 200.872 48.595 198.442 48.028 198.626C48.028 198.626 44.051 200.697 43.074 202.865C43.074 202.865 42.038 204.012 39.312 203.906C36.586 203.808 36.029 205.228 36.029 205.228C36.029 205.228 33.694 207.901 32.619 208.358C31.544 208.815 28.925 211.392 28.925 211.392C28.925 211.392 27.968 212.208 28.652 213.317C29.336 214.425 29.326 216.496 29.326 216.496C29.326 216.496 29.101 218.615 30.098 219.879C30.098 219.879 28.095 220.317 25.798 217.594C23.502 214.872 21.704 215.631 20.063 218.411C18.421 221.192 20.385 224.556 20.385 224.556C20.385 224.556 21.695 227.297 18.646 228.862C18.646 228.862 16.868 229.776 19.222 231.517C19.222 231.517 21.616 233.869 22.193 233.947C22.769 234.025 22.916 234.725 26.121 231.342C26.121 231.342 27.606 229.942 31.847 229.835C31.847 229.835 32.873 229.786 34.309 228.133C34.309 228.133 35.55 227.268 38.315 227.579C38.315 227.579 41.11 227.511 38.413 224.711C38.413 224.711 35.716 221.542 35.873 220.025C35.873 220.025 37.114 219.364 38.198 221.726C38.198 221.726 41.726 226.811 42.879 227.521C42.879 227.521 45.742 229.942 46.23 230.428C46.728 230.914 49.357 233.85 49.806 234.453C50.256 235.056 52.503 238.264 52.503 238.264C52.503 238.264 53.353 239.489 52.65 240.451C52.65 240.451 51.301 239.956 50.735 238.692C50.735 238.692 46.22 229.582 38.648 228.94C38.648 228.94 35.531 229.018 34.446 230.496C34.446 230.496 32.668 232.11 31.016 232.11C31.016 232.11 28.3 230.797 28.3 233.072C28.3 233.072 27.89 233.85 30.401 234.618C30.401 234.618 31.261 235.24 30.039 235.406C28.818 235.571 27.89 235.026 27.567 234.91C27.245 234.793 25.789 234.054 24.714 235.707C24.714 235.707 23.678 238.556 22.437 239.703C21.196 240.85 19.799 241.939 19.32 242.046C19.32 242.046 20.971 243.669 23.395 243.679C23.434 243.737 25.652 244.01 26.649 244.797Z" fill="#CF2045"/>
<path d="M39.5759 214.872C39.5759 214.872 41.1489 213.589 41.4029 213.229C41.6569 212.869 43.6699 211.1 44.2369 211.042C44.8039 210.983 45.5949 210.604 46.1809 211.907C46.7679 213.21 43.8949 213.89 43.8949 213.89L39.5759 214.872Z" fill="#CF2045"/>
<path d="M87.865 196.351C87.865 196.351 89.146 198.403 89.751 198.451C89.751 198.451 90.543 198.85 91.452 198.636C92.36 198.422 94.227 199.433 94.227 199.433C94.227 199.433 95.917 200.726 96.015 201.125C96.112 201.524 96.982 202.019 97.402 203.157C97.822 204.294 98.379 205.131 99.679 205.208C99.679 205.208 99.708 202.447 96.103 199.599C92.507 196.74 87.865 196.351 87.865 196.351Z" fill="#CF2045"/>
<path d="M17.356 101.268C17.356 101.268 18.001 100.101 19.349 99.7421C20.698 99.3821 21.431 100.889 21.431 100.889C21.431 100.889 24.225 104.146 24.636 104.195C25.046 104.243 27.548 107.179 28.212 107.461C28.867 107.753 32.16 111.661 32.502 112.157C32.844 112.653 34.866 115.793 35.071 117.29C35.277 118.788 35.325 118.895 35.14 120.343C35.14 120.343 31.261 115.968 30.958 115.307C30.655 114.646 27.235 111.797 26.776 111.506C26.316 111.214 22.936 109.318 22.134 109.201C21.333 109.085 19.672 107.792 19.281 106.324C18.89 104.856 18.597 103.349 18.49 103.086C18.49 103.086 17.972 101.997 17.532 101.696C17.083 101.375 17.356 101.268 17.356 101.268Z" fill="#CF2045"/>
<path d="M120.941 126.653C120.941 126.653 119.055 126.001 116.915 127.042L112.997 128.578C112.997 128.578 117.512 125.428 115.792 123.376C115.792 123.376 113.984 120.596 113.564 120.353C113.564 120.353 114.766 118.321 114.991 117.737C115.215 117.164 115.362 114.228 111.727 114.986C111.727 114.986 109.939 115.404 109.313 115.91C109.313 115.91 109.695 114.83 110.935 113.917C110.935 113.917 114.092 112.137 113.163 110.912C113.163 110.912 112.939 108.9 106.294 113.061C106.294 113.061 100.07 116.532 99.454 117.378C99.454 117.378 91.862 122.803 90.904 123.104C90.904 123.104 90.65 121.422 96.025 117.747C101.399 114.072 102.405 113.362 104.193 112.419C105.981 111.486 112.499 109.415 112.948 106.372C112.948 106.372 113.74 104.224 112.313 102.182C112.313 102.182 110.633 103.436 110.339 103.242C110.046 103.047 109.626 102.804 110.32 101.968C110.32 101.968 110.701 101.501 110.144 101.054C110.144 101.054 108.717 101.764 108.16 102.493C108.16 102.493 106.265 104.7 105.688 105.225C105.112 105.75 103.861 106.615 103.861 106.615C103.861 106.615 103.832 105.196 104.946 103.737C106.06 102.279 108.434 100.247 107.506 99.9461C107.222 99.8581 103.998 98.3511 101.838 100.656C101.838 100.656 97.862 104.019 96.787 104.875C96.787 104.875 94.227 107.111 93.123 106.878C93.123 106.878 93.132 105.604 94.5 104.486C94.5 104.486 99.122 101.054 98.868 99.2361C98.868 99.2361 99.093 97.5831 96.943 97.4761C96.943 97.4761 95.409 97.3401 94.627 96.6111C94.627 96.6111 92.937 95.0261 92.829 94.7441C92.829 94.7441 91.413 92.6831 90.025 94.5891C90.025 94.5891 89.126 95.7461 88.501 96.6791C88.501 96.6791 87.055 98.3321 86.371 98.5751C86.371 98.5751 86.468 97.4081 87.074 96.5431C87.074 96.5431 88.403 94.6471 88.696 93.9081C88.696 93.9081 89.048 92.9361 88.97 92.5281C88.97 92.5281 89.028 90.9141 87.748 93.0721C87.748 93.0721 85.823 96.1151 85.53 96.5621L81.876 102.337L79.746 105.711L78.055 108.385L75.994 111.642L75.261 112.799C75.261 112.799 76.091 109.882 76.296 109.522C76.511 109.162 77.489 106.664 78.446 104.982C78.446 104.982 81.202 100.043 83.312 96.9121C83.312 96.9121 86.107 92.7121 85.579 92.7321C85.335 92.7421 84.309 91.7111 82.169 92.7121C82.169 92.7121 76.414 94.8121 74.342 94.0441C74.342 94.0441 71.372 92.3531 69.339 95.5031C69.339 95.5031 67.268 98.5561 67.043 100.228C67.043 100.228 66.437 101.861 65.675 103.212C65.489 103.407 65.314 103.611 65.157 103.825C65.03 104.01 64.923 104.214 64.786 104.399C64.708 104.496 64.63 104.593 64.561 104.69C64.561 104.69 64.522 104.739 64.463 104.807C64.454 104.817 64.444 104.817 64.434 104.826C64.19 105.099 63.975 105.4 63.789 105.721C63.77 105.75 63.75 105.769 63.731 105.799C63.692 105.847 63.662 105.896 63.623 105.954C63.574 106.042 63.535 106.129 63.496 106.217C63.418 106.343 63.34 106.479 63.271 106.606C63.203 106.732 63.154 106.868 63.125 107.004C63.066 107.14 63.017 107.276 62.968 107.412C62.91 107.587 62.861 107.772 62.841 107.947C62.812 108.015 62.793 108.083 62.783 108.161C62.773 108.19 62.763 108.219 62.753 108.249C62.734 108.307 62.724 108.365 62.705 108.433C62.685 108.55 62.685 108.657 62.675 108.774C62.568 109.337 62.519 109.94 62.568 110.582C62.568 110.582 62.568 110.611 62.578 110.66C62.578 110.669 62.568 110.679 62.568 110.699C62.587 111.389 62.509 112.128 62.734 112.789C62.793 114.189 62.753 115.842 62.314 116.415C62.314 116.415 60.692 114.772 60.682 110.64C60.682 110.64 60.77 106.499 62.333 104.574C62.333 104.574 66.007 99.8101 66.095 96.7281C66.095 96.7281 68.108 92.5761 64.141 92.1781L56.158 89.7281C56.158 89.7281 53.08 88.1821 52.943 91.7011C52.904 91.8081 52.855 91.9151 52.836 92.0221C52.806 92.1681 52.787 92.3241 52.797 92.4691C52.806 92.7711 52.885 93.0531 53.031 93.3151C53.031 93.3251 53.041 93.3251 53.041 93.3251C53.051 93.9571 52.982 94.5991 52.689 94.8031C52.689 94.8031 52.298 94.8611 51.976 95.3671C51.448 95.8531 51.458 96.6111 51.448 97.2921C51.438 97.9531 51.497 98.6141 51.595 99.2751C51.556 99.9561 51.458 100.597 51.223 100.85C51.223 100.85 51.272 97.7971 50.666 96.6401C50.666 96.6401 50.324 94.4721 49.65 92.6061C49.65 92.5861 49.66 92.5761 49.66 92.5571C49.65 92.4111 49.611 92.2751 49.582 92.1391C49.523 91.8861 49.484 91.6241 49.357 91.3901C49.289 91.2741 49.201 91.1671 49.113 91.0691C49.035 90.9721 48.956 90.8651 48.869 90.7781C48.8 90.7001 48.712 90.6421 48.614 90.6121C48.37 90.3211 48.116 90.1071 47.823 90.0291C47.823 90.0291 47.305 89.6891 45.888 89.5241C45.888 89.5241 43.993 88.4351 43.074 88.0751C43.074 88.0751 41.579 87.3071 40.221 88.7171C40.221 88.7171 39.088 87.1811 37.671 86.7431C37.671 86.7431 34.554 85.4791 33.831 83.1361C33.831 83.1361 32.375 78.2261 31.622 77.6141C31.622 77.6141 30.997 76.2241 29.58 76.7681C29.58 76.7681 27.782 77.1861 29.013 79.6651C29.013 79.6651 30.499 82.0281 29.912 82.7571C29.912 82.7571 29.189 82.3291 28.574 81.1621C28.574 81.1621 28.241 79.1791 24.509 80.9291C24.509 80.9291 19.291 81.9691 21.626 86.6941C21.626 86.6941 21.607 86.7921 20.669 86.7821C20.669 86.7821 19.995 86.7621 19.877 87.3461C19.877 87.3461 21.802 89.8351 23.033 90.5441C23.033 90.5441 24.206 91.7011 24.519 93.3741C24.519 93.3741 22.291 91.9151 21.47 91.1471C21.275 90.9721 19.389 89.2221 18.49 89.0081C18.49 89.0081 20.122 90.8261 20.727 94.8321C20.727 94.8321 20.806 98.1181 24.323 101.132C24.323 101.132 30.118 106.489 31.31 106.887C31.31 106.887 31.437 106.771 31.476 106.508C31.486 106.499 31.485 106.499 31.495 106.499C31.671 106.343 31.7 106.051 31.583 105.857C31.573 105.847 31.564 105.837 31.554 105.818C31.525 105.721 31.495 105.614 31.446 105.517C31.398 105.419 31.339 105.342 31.271 105.254C31.251 105.225 31.222 105.206 31.202 105.186C31.183 105.167 31.163 105.157 31.144 105.137C31.114 105.079 31.085 105.031 31.036 104.982C30.938 104.836 30.86 104.681 30.782 104.525C30.684 104.34 30.547 104.185 30.42 104.019C30.381 103.971 30.352 103.912 30.323 103.854C30.332 103.883 30.342 103.912 30.362 103.942C30.342 103.893 30.323 103.844 30.303 103.806C30.303 103.786 30.303 103.767 30.303 103.757C30.284 103.718 30.274 103.679 30.254 103.64C30.215 103.562 30.157 103.514 30.078 103.465C30.069 103.465 30.059 103.456 30.049 103.456C29.59 102.629 29.14 101.608 29.131 100.675C29.14 100.656 29.15 100.636 29.16 100.617C29.248 100.15 29.336 99.6931 29.414 99.2261C29.502 98.7601 29.561 98.2831 29.678 97.8171C29.766 97.4861 30.088 97.3111 30.372 97.1651C30.499 97.0971 30.635 97.0581 30.782 97.0101C30.87 97.0391 30.948 97.0781 31.036 97.1261C31.075 97.1941 31.124 97.2621 31.202 97.3111C31.212 97.3211 31.231 97.3401 31.241 97.3501C31.31 97.4571 31.368 97.5641 31.437 97.6711C31.525 97.8171 31.652 97.9331 31.759 98.0601C31.818 98.1471 31.867 98.2351 31.925 98.3221C32.013 98.4581 32.14 98.6141 32.297 98.6821C32.316 98.6921 32.326 98.6921 32.345 98.7011C32.345 98.7111 32.355 98.7111 32.355 98.7211C33.303 100.607 34.827 104.243 35.511 108.181C35.707 109.318 35.922 110.543 36.127 111.719C36.117 111.787 36.117 111.856 36.127 111.924C36.449 113.644 36.303 115.424 37.075 117.047L37.084 117.057C37.104 117.144 37.114 117.203 37.114 117.203C37.114 117.203 38.159 123.833 38.452 124.446C38.452 124.446 39.322 132.029 40.514 132.924C40.514 132.924 43.211 137.405 43.612 137.532C43.612 137.532 45.527 140.235 45.81 140.964C46.094 141.683 48.487 144.25 50.823 144.124C53.158 143.987 53.559 144.279 54.829 143.122C54.829 143.122 56.422 139.292 56.9 138.737L57.37 137.804C57.37 137.804 58.093 137.95 57.985 138.28C57.878 138.611 55.943 142.49 57.516 144.853C57.516 144.853 58.181 146.797 60.838 144.474C60.838 144.474 62.255 143.249 63.867 143.404C63.867 143.404 64.102 143.822 63.486 144.172C63.486 144.172 62.773 144.483 63.34 145.251C63.34 145.251 65.958 144.649 66.467 144.376C66.467 144.376 71.108 142.782 72.984 142.626C72.984 142.626 75.583 142.374 76.873 142.558C76.873 142.558 75.368 143.618 73.404 144.23C71.43 144.843 67.043 145.524 65.753 147.196C65.753 147.196 75.202 147.555 78.896 146C78.896 146 86.82 143.88 90.045 141.469C90.045 141.469 97.735 136.968 98.506 135.529C98.506 135.529 94.451 133.876 87.875 136.346L83.732 137.989C83.732 137.989 84.035 136.103 86.019 135.16C88.002 134.217 91.227 132.651 99.063 132.817C106.9 132.972 120.55 130.649 122.475 129.268C122.426 129.258 124.312 127.917 120.941 126.653Z" fill="#CF2045"/>
<path d="M35.5209 81.7561C35.5209 81.7561 35.6579 80.4241 38.1399 80.4141C40.6209 80.4041 39.4779 79.5871 43.8749 81.9011C43.8749 81.9011 47.4419 85.0321 52.1609 83.8461C52.1609 83.8461 55.9329 82.0761 56.9389 82.6691C56.9389 82.6691 58.4639 82.504 60.7309 85.421C60.7309 85.421 63.1729 87.949 64.7269 88.231C64.7269 88.231 65.9679 88.3181 66.4369 90.5641C66.4369 90.5641 63.1929 90.408 61.5509 89.222C61.5509 89.222 58.7569 87.7061 57.1149 87.1221C57.1149 87.1221 55.2289 86.5291 53.0699 87.3941C53.0699 87.3941 50.8519 89.0371 48.5459 87.5311C48.5459 87.5311 45.3999 85.246 43.8949 85.119C43.8949 85.119 41.7939 84.5851 39.7619 84.8761C39.7619 84.8761 38.2269 85.353 37.0549 84.322C37.0649 84.322 35.0519 83.1651 35.5209 81.7561Z" fill="#CF2045"/>
<path d="M118.957 113.761C118.957 113.761 121.283 118.282 121.918 118.982C122.563 119.682 125.846 124.971 125.846 124.971C125.846 124.971 124.713 126.915 123.257 124.737C123.257 124.737 121.977 122.89 119.583 122.822C119.583 122.822 117.511 122.774 116.915 120.187C116.915 120.187 116.085 118.253 117.648 116.756C117.648 116.765 118.85 115.278 118.957 113.761Z" fill="#CF2045"/>
<path d="M96.7769 141.1C96.7769 141.1 96.0829 139.865 100.06 137.989C104.037 136.122 105.708 134.888 109.352 134.79C109.352 134.79 113.495 133.536 113.896 136.638C113.896 136.638 114.14 137.853 114.492 138.582C114.492 138.582 115.499 139.749 112.606 140.604C112.606 140.604 110.945 141.567 104.193 141.032C104.193 141.042 98.0369 140.789 96.7769 141.1Z" fill="#CF2045"/>
<path d="M39.918 80.511C39.849 80.414 39.752 80.307 39.625 80.287C39.38 80.239 39.136 80.19 38.882 80.2C38.745 80.21 38.608 80.219 38.472 80.268C38.403 80.287 38.325 80.317 38.257 80.365C38.159 80.433 38.071 80.511 38.022 80.608C37.964 80.725 37.934 80.851 37.973 80.987C38.003 81.104 38.091 81.221 38.198 81.279C38.208 81.289 38.227 81.289 38.237 81.299C38.257 81.308 38.266 81.318 38.286 81.328C38.354 81.376 38.433 81.406 38.54 81.406C38.726 81.406 38.853 81.318 38.931 81.201C39.009 81.201 39.087 81.201 39.165 81.201C39.224 81.211 39.292 81.221 39.351 81.231C39.478 81.26 39.605 81.25 39.732 81.182C39.83 81.124 39.928 81.007 39.957 80.89C39.996 80.764 39.996 80.618 39.918 80.511Z" fill="#CF2045"/>
<path d="M37.299 81.0459C37.26 80.9289 37.192 80.8119 37.074 80.7539C37.035 80.7349 36.996 80.7249 36.957 80.7059C36.869 80.6859 36.781 80.6859 36.693 80.7059C36.371 80.7639 36.048 80.8809 35.804 81.1039C35.511 81.3669 35.384 81.7749 35.472 82.1539C35.501 82.2709 35.589 82.3869 35.697 82.4459C35.804 82.5039 35.961 82.5329 36.078 82.4939C36.195 82.4549 36.312 82.3869 36.371 82.2709C36.43 82.1639 36.439 82.0569 36.42 81.9399C36.42 81.9499 36.42 81.9689 36.43 81.9789C36.43 81.9599 36.43 81.9399 36.43 81.9209C36.43 81.9109 36.43 81.9009 36.439 81.8919C36.449 81.8819 36.459 81.8619 36.459 81.8529C36.469 81.8329 36.488 81.8239 36.498 81.8139C36.527 81.7939 36.566 81.7749 36.605 81.7549C36.723 81.7169 36.84 81.6779 36.957 81.6579C37.074 81.6389 37.192 81.5319 37.25 81.4349C37.309 81.3079 37.338 81.1619 37.299 81.0459Z" fill="#CF2045"/>
<path d="M43.592 81.59C43.504 81.542 43.426 81.522 43.338 81.513C42.879 81.143 42.341 80.881 41.774 80.735C41.745 80.725 41.706 80.715 41.677 80.706C41.452 80.608 41.227 80.521 40.993 80.453C40.749 80.385 40.446 80.54 40.387 80.793C40.328 81.046 40.455 81.289 40.7 81.376C40.788 81.503 40.924 81.59 41.091 81.6C41.12 81.6 41.139 81.6 41.169 81.61C41.169 81.61 41.178 81.61 41.198 81.61C41.208 81.61 41.237 81.619 41.247 81.619C41.276 81.619 41.296 81.629 41.325 81.629C41.335 81.629 41.345 81.629 41.354 81.639C41.472 81.697 41.589 81.746 41.706 81.814C41.862 81.911 42.019 82.008 42.165 82.125C42.185 82.135 42.195 82.154 42.214 82.164C42.253 82.193 42.283 82.222 42.322 82.251C42.4 82.319 42.478 82.388 42.546 82.456C42.673 82.582 42.879 82.621 43.055 82.572C43.074 82.592 43.094 82.611 43.113 82.631C43.309 82.854 43.748 82.806 43.885 82.533C44.041 82.174 43.934 81.775 43.592 81.59Z" fill="#CF2045"/>
<path d="M46.377 85.217C46.338 85.09 46.26 85.003 46.152 84.925C45.996 84.808 45.8 84.74 45.615 84.692C45.576 84.682 45.537 84.672 45.497 84.653C45.468 84.643 45.39 84.633 45.38 84.604C45.449 84.633 45.458 84.633 45.409 84.614C45.39 84.604 45.37 84.594 45.351 84.585C45.312 84.565 45.273 84.546 45.234 84.526C45.048 84.439 44.862 84.351 44.657 84.313C44.579 84.303 44.501 84.293 44.432 84.283C44.423 84.283 44.413 84.283 44.403 84.283H44.393C44.247 84.118 43.973 84.05 43.787 84.176C43.563 84.322 43.475 84.604 43.612 84.837C43.768 85.119 44.051 85.217 44.344 85.246C44.374 85.246 44.403 85.256 44.442 85.256C44.442 85.256 44.432 85.256 44.452 85.256C44.481 85.265 44.501 85.265 44.53 85.275C44.569 85.285 44.608 85.304 44.657 85.314C44.677 85.324 44.686 85.324 44.706 85.333C44.901 85.421 45.087 85.508 45.292 85.576C45.38 85.606 45.458 85.625 45.546 85.654H45.556C45.546 85.654 45.556 85.654 45.585 85.664C45.624 85.683 45.664 85.713 45.703 85.742C45.8 85.81 45.976 85.819 46.084 85.79C46.201 85.761 46.318 85.674 46.377 85.567C46.387 85.479 46.416 85.343 46.377 85.217Z" fill="#CF2045"/>
<path d="M49.162 86.578C49.132 86.549 49.1129 86.51 49.0829 86.481C49.0249 86.422 48.947 86.383 48.868 86.354C48.829 86.344 48.781 86.344 48.741 86.335C48.712 86.335 48.693 86.354 48.673 86.354C48.614 86.306 48.5659 86.267 48.4969 86.247C48.4579 86.237 48.4089 86.238 48.3699 86.228C48.2819 86.228 48.204 86.247 48.126 86.296C48.038 86.364 47.989 86.383 47.94 86.481V86.49C47.921 86.529 47.911 86.568 47.891 86.607V86.617C47.901 86.597 47.8719 86.714 47.8719 86.753V86.762C47.8819 86.801 47.882 86.85 47.891 86.889C47.901 86.937 47.921 86.986 47.95 87.025C47.97 87.074 48.0089 87.112 48.0379 87.142L48.048 87.151C48.077 87.181 48.116 87.2 48.145 87.229L48.155 87.239C48.214 87.268 48.272 87.297 48.341 87.317C48.409 87.336 48.478 87.336 48.546 87.346C48.595 87.346 48.644 87.336 48.683 87.336C48.732 87.326 48.781 87.326 48.82 87.307C48.888 87.287 48.947 87.258 49.005 87.229C49.064 87.2 49.113 87.161 49.142 87.103C49.181 87.054 49.2099 87.006 49.2299 86.937C49.2499 86.869 49.25 86.811 49.24 86.743C49.22 86.694 49.201 86.636 49.162 86.578Z" fill="#CF2045"/>
<path d="M20.591 99.8579C20.522 99.7999 20.454 99.751 20.376 99.713C20.297 99.674 20.219 99.6449 20.141 99.6249C20.053 99.6059 19.965 99.5959 19.877 99.5859C19.828 99.5859 19.78 99.5859 19.731 99.5859C19.643 99.5959 19.555 99.6059 19.467 99.6349C19.35 99.6739 19.242 99.7219 19.164 99.8099C18.988 99.9849 18.959 100.247 19.076 100.461C19.135 100.568 19.252 100.656 19.369 100.685C19.398 100.695 19.428 100.685 19.457 100.694C19.486 100.704 19.516 100.724 19.555 100.724H19.574C19.643 100.724 19.701 100.714 19.76 100.685C19.819 100.665 19.867 100.636 19.907 100.588C19.907 100.588 19.907 100.588 19.916 100.588C19.926 100.607 19.936 100.617 19.946 100.636C20.034 100.724 20.17 100.782 20.288 100.782C20.415 100.772 20.542 100.733 20.63 100.636C20.718 100.549 20.776 100.422 20.776 100.296C20.766 100.121 20.718 99.9649 20.591 99.8579Z" fill="#CF2045"/>
<path d="M24.6059 104.194C24.3129 103.815 23.9519 103.475 23.5999 103.154C23.3259 102.901 23.0429 102.639 22.7599 102.386C22.6329 102.26 22.5149 102.133 22.3879 102.017C22.1929 101.851 21.8799 101.813 21.6949 102.017C21.5279 102.201 21.4889 102.522 21.6949 102.707C21.7139 102.736 21.7239 102.765 21.7529 102.785C21.8509 102.872 21.9579 102.97 22.0559 103.057C22.2319 103.222 22.4079 103.388 22.5639 103.563C22.5939 103.601 22.6329 103.64 22.6619 103.679C22.6809 103.699 22.6909 103.718 22.7109 103.738C22.7109 103.747 22.7109 103.738 22.7109 103.747C22.7789 103.835 22.8479 103.922 22.9159 104.01C23.0529 104.175 23.2089 104.321 23.3949 104.428C23.4239 104.447 23.4529 104.447 23.4829 104.457C23.6289 104.593 23.7659 104.739 23.9129 104.875C24.0979 105.05 24.4209 105.069 24.6059 104.875C24.6939 104.778 24.7529 104.661 24.7529 104.535C24.7429 104.408 24.6849 104.311 24.6059 104.194Z" fill="#CF2045"/>
<path d="M18.49 100.986C18.47 100.908 18.421 100.831 18.363 100.772C18.333 100.743 18.294 100.724 18.265 100.694C18.187 100.646 18.109 100.626 18.021 100.626H18.001C17.991 100.626 17.982 100.636 17.972 100.636C17.962 100.636 17.952 100.626 17.933 100.626C17.679 100.626 17.532 100.792 17.483 100.976C17.298 101.258 17.415 101.744 17.864 101.744C18.06 101.744 18.187 101.647 18.265 101.511C18.304 101.492 18.333 101.482 18.363 101.443C18.411 101.394 18.441 101.346 18.46 101.287C18.49 101.229 18.509 101.171 18.499 101.103C18.499 101.064 18.49 101.025 18.49 100.986Z" fill="#CF2045"/>
<path d="M19.926 105.526C19.916 105.517 19.916 105.507 19.906 105.497C19.906 105.468 19.897 105.449 19.887 105.42V105.41C19.887 105.4 19.887 105.4 19.887 105.39C19.887 105.381 19.887 105.381 19.887 105.371V105.283C19.887 105.215 19.877 105.157 19.848 105.099C19.848 105.099 19.848 105.089 19.838 105.089V105.079C19.838 105.031 19.848 104.982 19.838 104.933C19.838 104.924 19.838 104.924 19.828 104.914C19.828 104.904 19.838 104.904 19.838 104.895V104.875C19.838 104.856 19.828 104.836 19.818 104.807C19.828 104.788 19.828 104.768 19.838 104.749V104.729V104.72C19.848 104.69 19.858 104.671 19.858 104.651V104.632C19.858 104.564 19.848 104.506 19.818 104.447C19.799 104.389 19.77 104.331 19.721 104.292C19.672 104.243 19.623 104.214 19.564 104.195C19.506 104.165 19.447 104.146 19.379 104.156C19.34 104.165 19.291 104.165 19.252 104.175C19.174 104.195 19.095 104.243 19.037 104.301C19.007 104.331 18.988 104.369 18.959 104.399C18.91 104.476 18.89 104.554 18.89 104.642V104.661V104.671C18.89 104.7 18.871 104.72 18.871 104.739V104.758C18.871 104.778 18.88 104.807 18.88 104.826C18.88 104.846 18.871 104.865 18.871 104.885V104.904C18.871 104.933 18.88 104.963 18.89 104.982C18.89 105.04 18.871 105.089 18.89 105.147C18.89 105.147 18.89 105.147 18.89 105.157V105.225C18.89 105.283 18.9 105.332 18.919 105.381C18.919 105.39 18.919 105.39 18.919 105.4C18.919 105.41 18.919 105.41 18.919 105.42V105.439C18.919 105.468 18.929 105.488 18.939 105.517V105.556C18.939 105.585 18.949 105.604 18.959 105.633C18.959 105.672 18.949 105.701 18.959 105.74C18.968 105.76 18.968 105.789 18.978 105.808C18.978 105.828 18.998 105.838 19.007 105.857C19.017 105.886 19.007 105.915 19.027 105.935C19.037 105.964 19.056 105.974 19.066 106.003C19.066 106.013 19.066 106.022 19.076 106.022C19.086 106.032 19.095 106.032 19.095 106.042C19.105 106.061 19.115 106.081 19.125 106.09C19.134 106.11 19.164 106.11 19.174 106.12C19.203 106.149 19.222 106.178 19.252 106.197C19.33 106.246 19.418 106.265 19.506 106.265C19.584 106.265 19.701 106.246 19.76 106.197C19.818 106.168 19.867 106.129 19.897 106.071C19.936 106.022 19.965 105.974 19.985 105.906C20.004 105.838 20.004 105.779 19.994 105.711C19.985 105.633 19.965 105.575 19.926 105.526Z" fill="#CF2045"/>
<path d="M21.597 108.006C21.558 107.938 21.499 107.879 21.421 107.831C21.382 107.782 21.343 107.733 21.284 107.704C21.274 107.704 21.265 107.704 21.265 107.694C21.265 107.685 21.255 107.675 21.255 107.675C21.245 107.665 21.235 107.656 21.216 107.646C21.196 107.626 21.177 107.626 21.167 107.617C21.138 107.588 21.108 107.558 21.069 107.539C21.05 107.5 21.02 107.471 20.981 107.442C20.971 107.432 20.971 107.422 20.962 107.413C20.942 107.393 20.942 107.364 20.923 107.344C20.913 107.335 20.913 107.335 20.903 107.325C20.854 107.276 20.805 107.247 20.747 107.228C20.688 107.199 20.629 107.179 20.561 107.189C20.493 107.189 20.434 107.199 20.375 107.228C20.317 107.247 20.258 107.276 20.219 107.325C20.19 107.354 20.17 107.393 20.141 107.422C20.092 107.5 20.073 107.578 20.073 107.665C20.082 107.704 20.082 107.753 20.092 107.792C20.112 107.869 20.16 107.947 20.219 108.006L20.239 108.025C20.248 108.035 20.258 108.035 20.268 108.044C20.278 108.064 20.297 108.074 20.307 108.083C20.307 108.093 20.307 108.103 20.317 108.113C20.327 108.122 20.327 108.132 20.336 108.142C20.356 108.171 20.385 108.19 20.405 108.219C20.415 108.229 20.415 108.249 20.424 108.258C20.434 108.268 20.434 108.268 20.444 108.278C20.473 108.307 20.512 108.326 20.551 108.346L20.561 108.356C20.571 108.365 20.581 108.365 20.581 108.375C20.59 108.394 20.61 108.404 20.629 108.414C20.639 108.424 20.639 108.424 20.649 108.433L20.659 108.443C20.659 108.453 20.669 108.453 20.669 108.463C20.698 108.511 20.737 108.54 20.786 108.569C20.796 108.579 20.796 108.589 20.805 108.589C20.815 108.589 20.825 108.599 20.835 108.599C20.844 108.608 20.844 108.618 20.864 108.628C20.884 108.638 20.913 108.647 20.932 108.667C20.991 108.706 21.05 108.725 21.118 108.725C21.186 108.735 21.245 108.735 21.313 108.715C21.382 108.696 21.431 108.667 21.48 108.628C21.528 108.589 21.577 108.55 21.607 108.492C21.626 108.453 21.636 108.414 21.655 108.375C21.675 108.288 21.675 108.2 21.655 108.113C21.626 108.083 21.616 108.044 21.597 108.006Z" fill="#CF2045"/>
<path d="M23.424 109.056C23.424 109.046 23.424 109.046 23.424 109.056C23.424 109.007 23.414 108.968 23.405 108.919C23.405 108.91 23.395 108.91 23.395 108.9C23.375 108.832 23.336 108.764 23.287 108.715C23.287 108.715 23.287 108.706 23.278 108.706C23.268 108.696 23.268 108.696 23.258 108.686C23.258 108.686 23.248 108.686 23.248 108.676C23.248 108.676 23.248 108.667 23.239 108.667C23.209 108.638 23.17 108.618 23.141 108.589C23.072 108.55 23.004 108.54 22.936 108.531C22.926 108.531 22.926 108.531 22.916 108.531C22.897 108.511 22.867 108.501 22.848 108.492C22.828 108.472 22.809 108.463 22.789 108.443C22.779 108.443 22.779 108.443 22.77 108.433C22.76 108.433 22.75 108.433 22.75 108.424C22.75 108.424 22.75 108.414 22.74 108.414C22.691 108.365 22.643 108.336 22.584 108.317C22.525 108.288 22.467 108.268 22.398 108.278C22.359 108.288 22.31 108.288 22.271 108.297C22.193 108.317 22.115 108.365 22.056 108.424C22.027 108.453 22.007 108.492 21.978 108.521C21.929 108.599 21.91 108.676 21.91 108.764V108.793C21.91 108.861 21.919 108.919 21.949 108.978C21.968 109.036 21.998 109.094 22.046 109.133C22.046 109.133 22.056 109.133 22.056 109.143C22.056 109.143 22.056 109.153 22.066 109.153C22.076 109.163 22.076 109.163 22.086 109.172C22.134 109.221 22.183 109.25 22.242 109.269C22.252 109.269 22.261 109.269 22.261 109.279C22.281 109.289 22.291 109.299 22.31 109.308C22.33 109.318 22.349 109.318 22.369 109.318C22.418 109.367 22.467 109.396 22.525 109.415C22.535 109.425 22.555 109.415 22.564 109.425C22.574 109.425 22.574 109.435 22.574 109.435C22.613 109.454 22.652 109.454 22.682 109.464C22.75 109.513 22.838 109.551 22.945 109.551C23.268 109.551 23.424 109.299 23.424 109.056Z" fill="#CF2045"/>
<path d="M28.4369 107.957C28.2899 107.549 28.0169 107.218 27.6939 106.936C27.4009 106.683 27.0879 106.46 26.8439 106.158C26.8149 106.119 26.7659 106.1 26.7169 106.071V106.061C26.6879 106.003 26.6489 105.954 26.5899 105.925C26.5409 105.886 26.492 105.857 26.424 105.838C26.356 105.818 26.2969 105.818 26.2289 105.828C26.1599 105.828 26.1009 105.847 26.0429 105.886C26.0139 105.915 25.9739 105.935 25.9449 105.964C25.8869 106.022 25.8469 106.1 25.8179 106.178C25.8079 106.217 25.808 106.265 25.799 106.304C25.799 106.392 25.8179 106.469 25.8669 106.547C25.9259 106.674 26.0039 106.79 26.0919 106.897C26.1799 107.004 26.2869 107.092 26.4039 107.179C26.4429 107.199 26.4829 107.199 26.5219 107.208C26.6579 107.325 26.8049 107.442 26.9419 107.558C27.0689 107.665 27.1959 107.782 27.3029 107.908C27.3129 107.918 27.3229 107.938 27.3329 107.947C27.3519 107.976 27.3719 108.006 27.3909 108.025C27.4399 108.093 27.4789 108.171 27.5089 108.249C27.5089 108.239 27.5089 108.239 27.4989 108.229C27.5379 108.336 27.6059 108.433 27.7139 108.492C27.8209 108.55 27.9779 108.579 28.0949 108.54C28.3289 108.482 28.5349 108.21 28.4369 107.957Z" fill="#CF2045"/>
<path d="M31.691 114.899C31.691 114.831 31.681 114.772 31.651 114.714C31.632 114.656 31.603 114.597 31.554 114.558C31.524 114.529 31.485 114.51 31.456 114.49C31.427 114.451 31.397 114.422 31.368 114.383C31.27 114.247 31.173 114.111 31.085 113.975C31.016 113.868 30.919 113.781 30.792 113.751C30.723 113.732 30.665 113.732 30.596 113.742C30.528 113.742 30.469 113.761 30.41 113.8C30.303 113.868 30.215 113.965 30.186 114.092C30.156 114.218 30.166 114.354 30.235 114.471C30.42 114.763 30.625 115.045 30.86 115.297C30.919 115.356 30.997 115.395 31.075 115.424C31.143 115.443 31.202 115.443 31.27 115.433C31.339 115.433 31.397 115.414 31.456 115.375C31.534 115.336 31.583 115.278 31.632 115.2C31.651 115.161 31.681 115.113 31.691 115.064C31.7 115.025 31.7 114.976 31.71 114.938C31.691 114.908 31.691 114.899 31.691 114.899Z" fill="#CF2045"/>
<path d="M34.2409 114.976C33.9569 114.208 33.6249 113.46 33.0679 112.847C33.0099 112.779 32.9409 112.721 32.8729 112.662C32.7849 112.507 32.6869 112.351 32.5799 112.215C32.5019 112.118 32.4139 112.031 32.3259 111.933C32.2959 111.807 32.2279 111.69 32.1009 111.632C32.0909 111.632 32.081 111.622 32.072 111.612C32.062 111.593 32.052 111.574 32.042 111.554C31.974 111.428 31.8959 111.321 31.8079 111.204C31.7689 111.156 31.7299 111.107 31.6809 111.058C31.6609 111.029 31.6319 111 31.6119 110.971C31.6029 110.961 31.6029 110.961 31.6029 110.961C31.5729 110.932 31.5339 110.874 31.5149 110.835C31.4759 110.776 31.4369 110.728 31.3969 110.669C31.1039 110.251 30.8009 109.814 30.4009 109.493C30.3419 109.444 30.2739 109.406 30.2049 109.386C30.1759 109.337 30.1269 109.299 30.0779 109.269C30.0199 109.231 29.9609 109.211 29.8929 109.211C29.8239 109.201 29.7659 109.201 29.6969 109.221C29.5799 109.26 29.4629 109.328 29.4039 109.444C29.3849 109.483 29.3749 109.522 29.3549 109.561C29.3359 109.649 29.3359 109.736 29.3549 109.824C29.3649 109.853 29.3749 109.882 29.3939 109.921C29.4039 109.95 29.4139 109.979 29.4329 110.008C29.4719 110.067 29.5119 110.115 29.5599 110.174C29.5999 110.222 29.6389 110.271 29.6779 110.319C29.7559 110.417 29.8439 110.514 29.9219 110.601C29.9709 110.65 30.0199 110.679 30.0779 110.699C30.1269 110.728 30.1859 110.737 30.2439 110.737C30.2639 110.757 30.2839 110.796 30.2929 110.806C30.3319 110.854 30.3619 110.903 30.4009 110.951C30.4789 111.058 30.5469 111.156 30.6249 111.262C30.6939 111.35 30.7529 111.437 30.8209 111.525C30.7819 111.719 30.8799 111.914 31.0459 112.031C30.9869 111.992 31.1339 112.128 31.1239 112.108C31.0949 112.079 31.1629 112.176 31.1729 112.186C31.1919 112.215 31.2119 112.244 31.2309 112.274C31.3289 112.429 31.4369 112.585 31.5639 112.731C31.7299 112.925 31.9249 113.1 32.1199 113.285C32.1889 113.401 32.2479 113.518 32.3159 113.625C32.5019 113.907 32.7259 114.16 32.9119 114.442C32.9999 114.578 33.0779 114.714 33.1169 114.831C33.1759 115.015 33.2339 115.2 33.3519 115.356C33.4979 115.55 33.7229 115.657 33.9569 115.55C34.1629 115.462 34.3189 115.21 34.2409 114.976Z" fill="#CF2045"/>
<path d="M35.238 118.039C35.189 117.747 35.14 117.436 35.032 117.164C34.983 117.047 34.925 116.94 34.808 116.872C34.7 116.814 34.544 116.785 34.426 116.824C34.192 116.901 33.987 117.164 34.085 117.426C34.153 117.592 34.182 117.776 34.221 117.951C34.251 118.107 34.28 118.253 34.309 118.408C34.339 118.622 34.348 118.826 34.329 119.04C34.309 119.293 34.573 119.536 34.817 119.526C35.101 119.517 35.286 119.313 35.306 119.04C35.335 118.71 35.296 118.369 35.238 118.039Z" fill="#CF2045"/>
<path d="M94.363 198.345C93.904 198.092 93.445 197.839 92.976 197.606C92.937 197.499 92.878 197.401 92.771 197.353C92.253 197.1 91.686 196.974 91.129 196.818C90.582 196.663 90.035 196.536 89.478 196.458C89.439 196.449 89.39 196.458 89.351 196.458C89.312 196.449 89.282 196.439 89.233 196.439C88.608 196.439 88.608 197.411 89.233 197.411C89.243 197.411 89.243 197.411 89.253 197.411C89.781 197.489 90.298 197.606 90.807 197.751C91.276 197.888 91.803 197.995 92.233 198.189C92.272 198.286 92.331 198.383 92.429 198.432C92.907 198.675 93.386 198.938 93.865 199.2C94.09 199.326 94.412 199.258 94.529 199.025C94.656 198.782 94.598 198.481 94.363 198.345Z" fill="#CF2045"/>
<path d="M96.9039 202.467C96.9139 202.476 96.9139 202.486 96.9229 202.486C96.9139 202.476 96.9139 202.476 96.9039 202.467Z" fill="#CF2045"/>
<path d="M98.2329 202.817C98.2329 202.788 98.2229 202.758 98.2129 202.729C98.2129 202.719 98.2129 202.71 98.2129 202.71C98.2129 202.681 98.2229 202.661 98.2129 202.632C98.2129 202.622 98.2029 202.603 98.2029 202.593C98.1939 202.554 98.1639 202.515 98.1449 202.476C98.1349 202.457 98.1349 202.438 98.1249 202.428C98.1059 202.389 98.0759 202.35 98.0469 202.321C98.0269 202.311 98.0079 202.292 97.9979 202.282C97.9979 202.282 97.9979 202.282 97.9879 202.272C97.9689 202.253 97.9489 202.233 97.9299 202.214C97.9199 202.194 97.9099 202.175 97.8909 202.156C97.8809 202.146 97.8809 202.146 97.8709 202.136C97.8609 202.126 97.8519 202.126 97.8419 202.117C97.8419 202.117 97.8419 202.107 97.8319 202.107C97.8319 202.107 97.8319 202.097 97.8219 202.097V202.088C97.8029 202.049 97.7929 202.01 97.7639 201.981L97.7539 201.971C97.7439 201.961 97.7439 201.951 97.7339 201.942C97.7249 201.932 97.7149 201.913 97.7049 201.903L97.6949 201.893C97.6849 201.874 97.6759 201.854 97.6659 201.844C97.6559 201.815 97.6559 201.796 97.6459 201.767C97.6459 201.757 97.6369 201.757 97.6369 201.747C97.6269 201.738 97.6169 201.728 97.6169 201.718V201.708C97.6069 201.699 97.6069 201.679 97.5979 201.669C97.5879 201.65 97.5679 201.64 97.5579 201.631C97.5579 201.621 97.5489 201.621 97.5489 201.611C97.5489 201.601 97.5389 201.601 97.5389 201.601C97.5289 201.592 97.5389 201.582 97.5289 201.572C97.5189 201.563 97.5189 201.553 97.5099 201.543C97.5099 201.533 97.4999 201.533 97.4999 201.524C97.4999 201.524 97.4999 201.524 97.4999 201.514C97.4999 201.494 97.4799 201.485 97.4799 201.465C97.4799 201.456 97.4799 201.456 97.4799 201.446C97.4609 201.368 97.4119 201.29 97.3529 201.232L97.3429 201.222C97.2949 201.174 97.2459 201.144 97.1869 201.125C97.1289 201.096 97.0699 201.076 97.0009 201.086C96.9329 201.086 96.8739 201.096 96.8159 201.125C96.7569 201.144 96.6989 201.174 96.6599 201.222C96.6299 201.251 96.6109 201.29 96.5809 201.319C96.5319 201.397 96.5129 201.475 96.5129 201.563C96.5229 201.601 96.5229 201.65 96.5319 201.689C96.5419 201.708 96.5519 201.728 96.5719 201.747V201.757C96.5719 201.767 96.5809 201.776 96.5809 201.786C96.5809 201.796 96.5909 201.806 96.6009 201.815C96.6109 201.844 96.6009 201.874 96.6199 201.893C96.6299 201.932 96.6599 201.961 96.6889 202V202.01C96.6989 202.019 96.6989 202.029 96.7079 202.039L96.7179 202.049V202.058C96.7179 202.068 96.7179 202.078 96.7279 202.088C96.7379 202.097 96.7379 202.117 96.7469 202.126C96.7569 202.146 96.7769 202.146 96.7869 202.165C96.7869 202.175 96.7959 202.175 96.7959 202.185C96.7959 202.194 96.8059 202.194 96.8159 202.204C96.8159 202.204 96.8159 202.214 96.8259 202.214C96.8349 202.253 96.8649 202.282 96.8839 202.321C96.8939 202.34 96.8939 202.36 96.9039 202.379C96.9139 202.389 96.9229 202.408 96.9329 202.418L96.9429 202.428C96.9429 202.438 96.9429 202.438 96.9529 202.447L96.9619 202.457C96.9619 202.457 96.9619 202.457 96.9619 202.467C96.9619 202.467 96.9619 202.457 96.9529 202.457C96.9529 202.467 96.9619 202.467 96.9619 202.476C96.9719 202.496 96.9919 202.506 97.0009 202.515C97.0109 202.525 97.0109 202.544 97.0209 202.554C97.0009 202.535 96.9919 202.515 96.9719 202.496C96.9919 202.525 97.0009 202.554 97.0309 202.583C97.0309 202.593 97.0309 202.603 97.0409 202.613C97.0499 202.622 97.0499 202.642 97.0599 202.651C97.0799 202.69 97.1189 202.719 97.1579 202.749C97.1679 202.758 97.1679 202.768 97.1769 202.778L97.1869 202.788C97.1969 202.797 97.2069 202.797 97.2159 202.807C97.2259 202.817 97.2359 202.836 97.2359 202.846C97.2649 202.894 97.3039 202.933 97.3529 202.972C97.3629 203.001 97.3629 203.031 97.3729 203.06C97.3729 203.069 97.3829 203.069 97.3829 203.079C97.3919 203.108 97.4219 203.118 97.4409 203.138C97.4609 203.167 97.4799 203.186 97.5099 203.206C97.5099 203.206 97.5099 203.206 97.5189 203.215H97.5289C97.5679 203.254 97.6269 203.274 97.6849 203.293C97.6849 203.293 97.6849 203.293 97.6949 203.293H97.7049C97.7439 203.303 97.7829 203.322 97.8319 203.322C98.0859 203.322 98.2329 203.167 98.2819 202.982C98.2819 202.972 98.2909 202.972 98.2909 202.962C98.2229 202.904 98.2229 202.865 98.2329 202.817Z" fill="#CF2045"/>
<path d="M96.65 200.765C96.669 200.649 96.65 200.532 96.601 200.425V200.415C96.601 200.406 96.591 200.406 96.591 200.396C96.591 200.386 96.581 200.386 96.581 200.376C96.562 200.347 96.533 200.318 96.503 200.289C96.493 200.279 96.494 200.269 96.484 200.269L96.474 200.25C96.474 200.24 96.464 200.24 96.454 200.231V200.221L96.445 200.211C96.425 200.182 96.415 200.143 96.396 200.124L96.376 200.104C96.376 200.094 96.366 200.085 96.366 200.085V200.075C96.357 200.065 96.347 200.046 96.337 200.036C96.337 200.036 96.337 200.036 96.327 200.026C96.318 200.017 96.318 199.997 96.308 199.987C96.308 199.978 96.308 199.968 96.298 199.958C96.288 199.929 96.259 199.9 96.239 199.871C96.23 199.861 96.22 199.851 96.21 199.842C96.21 199.842 96.21 199.832 96.2 199.832C96.122 199.715 96.005 199.618 95.819 199.618C95.497 199.618 95.341 199.881 95.35 200.133V200.143V200.162C95.35 200.201 95.37 200.24 95.38 200.279C95.389 200.299 95.38 200.318 95.389 200.338C95.389 200.347 95.399 200.347 95.399 200.357C95.399 200.357 95.399 200.357 95.399 200.367C95.409 200.406 95.438 200.435 95.458 200.464C95.468 200.474 95.458 200.493 95.468 200.513C95.477 200.522 95.487 200.542 95.497 200.551C95.507 200.561 95.516 200.571 95.516 200.581C95.516 200.581 95.516 200.59 95.526 200.59L95.536 200.6C95.536 200.61 95.546 200.619 95.546 200.629C95.546 200.639 95.546 200.649 95.555 200.658C95.555 200.668 95.565 200.668 95.565 200.678C95.575 200.697 95.595 200.707 95.604 200.726V200.736C95.614 200.746 95.614 200.756 95.624 200.765C95.643 200.794 95.663 200.814 95.682 200.833C95.682 200.843 95.682 200.843 95.682 200.853C95.692 200.863 95.692 200.872 95.702 200.882C95.702 200.892 95.712 200.892 95.722 200.901V200.911L95.731 200.921C95.761 200.96 95.78 200.999 95.819 201.018C95.829 201.028 95.839 201.028 95.839 201.028C95.849 201.028 95.849 201.037 95.858 201.047C95.868 201.057 95.888 201.057 95.897 201.067C95.937 201.096 95.966 201.115 96.015 201.125C96.015 201.125 96.024 201.125 96.024 201.135C96.034 201.135 96.034 201.135 96.044 201.135C96.083 201.144 96.122 201.164 96.171 201.164C96.435 201.164 96.581 200.999 96.621 200.804C96.65 200.785 96.65 200.775 96.65 200.765Z" fill="#CF2045"/>
<path d="M95.4869 204.275C95.2619 204.158 94.9489 204.207 94.8219 204.45C94.7439 204.596 94.6949 204.751 94.6659 204.907C94.6559 204.965 94.6369 205.024 94.6269 205.082C94.6169 205.101 94.6169 205.111 94.6169 205.121C94.6069 205.14 94.5879 205.169 94.5779 205.189C94.4999 205.306 94.4219 205.413 94.3339 205.519C94.3339 205.519 94.2559 205.617 94.2849 205.578C94.3239 205.529 94.2459 205.626 94.2359 205.636C94.2169 205.656 94.1969 205.685 94.1779 205.704C94.1679 205.704 94.1379 205.714 94.1289 205.714C94.0509 205.714 93.982 205.704 93.904 205.714C93.894 205.714 93.8939 205.714 93.8939 205.714C93.8839 205.714 93.8839 205.714 93.8749 205.704C93.8649 205.704 93.8359 205.695 93.8059 205.685C93.7869 205.675 93.7379 205.656 93.7379 205.656C93.7089 205.646 93.6889 205.626 93.6599 205.607C93.5419 205.539 93.4249 205.461 93.3179 205.393C93.3079 205.393 93.3179 205.393 93.3079 205.383C93.2879 205.364 93.2689 205.344 93.2489 205.325C93.2299 205.306 93.1999 205.276 93.1809 205.257C93.1709 205.247 93.1709 205.247 93.1709 205.247C93.1709 205.238 93.1709 205.238 93.1609 205.228C93.0149 205.014 92.7219 204.907 92.4969 205.053C92.2919 205.189 92.1649 205.49 92.3209 205.714C92.5359 206.025 92.8389 206.229 93.1609 206.424C93.5329 206.647 93.9819 206.725 94.4119 206.628C94.8419 206.531 95.0769 206.132 95.3109 205.811C95.4279 205.656 95.5259 205.49 95.5749 205.306C95.5939 205.228 95.6139 205.15 95.6239 205.072C95.6329 205.043 95.6429 205.004 95.6529 204.975C95.6529 204.965 95.6629 204.956 95.6629 204.946C95.6629 204.936 95.6629 204.946 95.6729 204.926C95.7799 204.713 95.7309 204.392 95.4869 204.275Z" fill="#CF2045"/>
<path d="M39.5759 214.872C39.5759 214.872 41.9309 214.561 42.5849 214.24C42.5849 214.24 43.8069 213.9 44.1879 213.813C44.1879 213.813 45.2529 213.676 45.5949 213.356C45.5949 213.356 46.1419 212.976 46.1909 212.578C46.4649 210.254 44.2469 211.051 44.2469 211.051" fill="#CF2045"/>
<path d="M32.629 208.426L34.143 207.279L34.407 208.426H32.629Z" fill="#CF2045"/>
<path d="M28.9449 211.46C28.9449 211.46 30.0099 210.293 30.4299 210.079L28.9449 211.46Z" fill="#CF2045"/>
<path d="M28.4859 212.976C28.4859 212.976 28.2409 212.383 28.5929 211.917L28.4859 212.976Z" fill="#CF2045"/>
<path d="M47.676 242.24C47.676 242.24 53.842 245.478 55.239 246.528C56.637 247.587 55.112 242.95 55.112 242.95L47.676 242.24Z" fill="#CF2045"/>
<path d="M55.738 246.868C55.738 246.868 60.682 250.446 61.131 251.029C61.591 251.612 59.959 245.692 59.959 245.692L55.738 246.868Z" fill="#CF2045"/>
<path d="M68.137 251.583C68.137 251.583 71.43 253.197 71.411 255.521L68.137 251.583Z" fill="#CF2045"/>
<path d="M67.874 249.619C67.874 249.619 70.727 251.856 71.108 252.001C71.489 252.147 70.199 249.143 70.199 249.143L67.874 249.619Z" fill="#CF2045"/>
<path d="M65.831 249.056C65.831 249.056 66.554 250.494 66.916 250.718C67.268 250.942 65.392 251.068 65.392 251.068L65.831 249.056Z" fill="#CF2045"/>
</svg>
